<svg xmlns="http://www.w3.org/2000/svg" xml:space="preserve" style="fill-rule:evenodd;clip-rule:evenodd;stroke-linecap:round;stroke-linejoin:round;stroke-miterlimit:6" viewBox="0 0 213 135"><path d="M0 0h213v135H0z" style="fill:none"/><path d="M70.871 64.487s5.901-12.614 6.126-38.399c.039-4.518.284-10.845.009-14.632-.335-4.632-.198-10.299-3.354-10.139-3.156.16-2.513 4.833-2.513 4.833S70.44.644 67.31 1.252c-3.131.609-2.29 5.426-2.29 5.426S63.929.196 61.162 1.239c-2.766 1.042-1.902 6.355-1.902 6.355s-4.935-2.825-5.548 1.513c-.418 2.951 3.423 3.696 5.044 3.776 1.61 9.157 4.295 19.472 2.293 35.092" style="fill:#d3b7ff;stroke:#000;stroke-width:1.98px"/><path d="M71.753 22.287c.01-.316.017-.631.025-.946M67.387 24.893c-.039-.96-.189-1.911-.231-2.871M63.348 15.416a31.847 31.847 0 0 1-.206-1.058M68.129 16.558c-.015-1.059-.14-2.11-.204-3.166M73.006 15.446c-.091-.731-.202-1.463-.254-2.198" style="fill:none;stroke:#a57fe1;stroke-width:1.89px"/><path d="M71.973 28.24c.031 1.546.074 3.137-.05 4.678M65.861 30.022c-.031 1.292-.004 2.572-.085 3.862M67.923 38.199c-.067 1.329-.116 2.653-.204 3.98M65.002 44.883c-.005.845.005 1.688-.056 2.532M72.169 43.023c-.017.122-.036.243-.055.364M71.174 46.766c-.089 1.364-.02 2.816-.439 4.135" style="fill:none;stroke:#a57fe1;stroke-width:1.91px"/><path d="M13.418 74.98S7.15 65.694 3.904 50.011C1.051 36.225 1.008 22.92 1.184 19.128c.216-4.64-.069-10.302 3.09-10.219 3.159.082 2.638 4.769 2.638 4.769s.556-5.521 3.701-4.99c3.146.53 2.43 5.367 2.43 5.367s.923-6.507 3.715-5.533c2.792.974 2.067 6.307 2.067 6.307s4.859-2.946 5.585 1.375c.494 2.94-3.326 3.779-4.945 3.9-.376 4.759-2.35 27.838 3.014 36.49" style="fill:#d3b7ff;stroke:#000;stroke-width:1.98px"/><path d="M7.241 30.446c-.343-1.236-.525-2.529-.752-3.789M9.105 26.089a81.627 81.627 0 0 0-.373-4.634M10.704 32.228a13.628 13.628 0 0 0-.244-1.798M13.418 27.007c-.158-1.631-.243-3.267-.411-4.898M14.841 32.81l-.041-.171" style="fill:none;stroke:#a57fe1;stroke-width:1.92px"/><path d="M7.45 35.782c.014 1.325.15 2.603.323 3.911M12.329 38.476c.016.162.037.323.054.485M15.377 37.785c.211 1.437.341 2.862.448 4.309M8.375 44.241c.245 1.694.782 3.33 1.04 5.016M12.205 45.883c.335 1.041.737 2.058.989 3.123M9.625 55.738c.426 1.654 1.037 3.355 1.718 4.938M13.589 52.863c.386.921.722 1.866 1.125 2.78" style="fill:none;stroke:#a57fe1;stroke-width:1.91px"/><path d="M42.191 114.044c11.341-.076 22.409.718 27.988 2.404 6.48 1.959 13.721 4.986 16.45 7.699 3.679 3.656 5.409 6.806-1.564 8.297-14.993 3.204-67.657 2.688-78.674-.311-5.213-1.419-2.856-4.326-1.299-6.999 2.789-4.788 10.26-10.911 37.099-11.09Z" style="fill-opacity:.11"/><path d="M36.842 108.736c.05 3.818.082 3.597.086 7.415.002 1.091-.276 6.023-.137 7.135.094.755-4.28.343-6.16.337M60.026 108.736c-.051 3.818-.082 3.597-.087 7.415-.001 1.091.276 6.023.138 7.135-.094.755 4.279.343 6.16.337" style="fill:none;stroke:#000;stroke-width:1.98px;stroke-miterlimit:4"/><path d="M23.247 45.295c-3.878.375-6.881.842-10.704 1.601-1.549.307-3.246 1.281-3.793 2.925-1.068 3.213 3.261 4.476 5.715 3.102" style="fill:none;stroke:#000;stroke-width:1.98px;stroke-linejoin:miter"/><path d="M39.42 40.159c10.082-1.61 22.185 5.966 26.814 11.462 5.376 6.384 10.083 13.56 12.347 22.399 3.053 11.916 4.447 18.812 1.152 24.86-9.651 17.719-55.374 16.576-65.199-1.46-2.909-5.341-3.069-16.128-.83-24.655 1.949-7.422 3.734-29.097 25.716-32.606Z" style="fill:#a57fe1"/><clipPath id="a"><path d="M39.42 40.159c10.082-1.61 22.185 5.966 26.814 11.462 5.376 6.384 10.083 13.56 12.347 22.399 3.053 11.916 4.447 18.812 1.152 24.86-9.651 17.719-55.374 16.576-65.199-1.46-2.909-5.341-3.069-16.128-.83-24.655 1.949-7.422 3.734-29.097 25.716-32.606Z"/></clipPath><g clip-path="url(#a)"><path d="M49.355 40.159c9.406-.337 15.35 4.208 19.979 9.704 5.376 6.383 11.624 17.312 13.568 25.894 2.717 11.993.762 14.835-4.244 20.211-12.096 12.989-44.001 12.806-53.398 1.123-3.905-4.854-6.776-15.363-4.674-23.923 3.856-15.706 7.87-32.261 28.769-33.009Z" style="fill:#d3b7ff"/></g><path d="M39.42 40.159c10.082-1.61 22.185 5.966 26.814 11.462 5.376 6.384 10.083 13.56 12.347 22.399 3.053 11.916 4.447 18.812 1.152 24.86-9.651 17.719-55.374 16.576-65.199-1.46-2.909-5.341-3.069-16.128-.83-24.655 1.949-7.422 3.734-29.097 25.716-32.606Z" style="fill:none;stroke:#000;stroke-width:1.98px;stroke-linejoin:miter"/><path d="M37.696 39.508c1.303 6.355 1.36 7.593 2.975 14.845.864 3.882 5.141 7.571 9.159 6.798 4.019-.772 6.001-3.628 5.404-9.596-.889-8.88-2.714-14.157-2.714-14.157-.815-3.897-3.377-7.656-9.019-6.35-4.025.931-6.62 4.563-5.805 8.46Z" style="fill:#d87dba"/><clipPath id="b"><path d="M37.696 39.508c1.303 6.355 1.36 7.593 2.975 14.845.864 3.882 5.141 7.571 9.159 6.798 4.019-.772 6.001-3.628 5.404-9.596-.889-8.88-2.714-14.157-2.714-14.157-.815-3.897-3.377-7.656-9.019-6.35-4.025.931-6.62 4.563-5.805 8.46Z"/></clipPath><g clip-path="url(#b)"><path d="M39.968 36.36c1.303 6.355 1.124 5.384 2.739 12.637.864 3.881 4.525 8.035 8.544 7.263 4.019-.772 5.695-4.806 5.098-10.775-.889-8.879-2.101-10.333-2.101-10.333-.815-3.897-3.196-7.72-8.839-6.415-4.025.931-6.256 3.726-5.441 7.623Z" style="fill:#ffa2e0"/></g><path d="M37.696 39.508c1.303 6.355 1.36 7.593 2.975 14.845.864 3.882 5.141 7.571 9.159 6.798 4.019-.772 6.001-3.628 5.404-9.596-.889-8.88-2.714-14.157-2.714-14.157-.815-3.897-3.377-7.656-9.019-6.35-4.025.931-6.62 4.563-5.805 8.46Z" style="fill:none;stroke:#000;stroke-width:2px;stroke-linecap:butt;stroke-miterlimit:2"/><path d="M60.803 34.437c2.689-.542 5.197 1.233 5.63 3.735.434 2.503-1.342 4.886-3.483 5.239-2.141.353-5.283-1.219-5.716-3.722-.434-2.502 1.442-4.824 3.569-5.252ZM27.379 39.948c2.689-.541 5.197 1.233 5.631 3.736.433 2.503-1.342 4.885-3.483 5.238-2.141.353-5.283-1.218-5.717-3.721-.434-2.503 1.443-4.824 3.569-5.253Z" style="fill:#fff;stroke:#000;stroke-width:2px;stroke-miterlimit:1.5"/><path d="M61.595 37.238c.858-.141 1.735.354 2.176 1.719.262.81-.445 1.642-1.303 1.784-.858.141-2.065-.369-2.161-1.212-.182-1.592.43-2.149 1.288-2.291ZM28.158 42.593c.858-.142 1.735.353 2.176 1.719.262.81-.445 1.642-1.303 1.784-.858.141-2.065-.369-2.161-1.212-.182-1.593.43-2.15 1.288-2.291Z"/><path d="M67.496 37.998c3.495-.84 6.257-1.324 9.828-1.785 1.448-.186 3.239.213 4.247 1.599 1.97 2.712-1.386 5.243-3.965 4.699" style="fill:none;stroke:#000;stroke-width:1.98px;stroke-linejoin:miter"/><ellipse cx="50.412" cy="68.252" rx="2.56" ry="2.498"/><path d="M58.09 65.4c1.783-.701 3.443-1.67 5.241-2.328M41.327 66.504c-2.348-.679-4.782-1.42-7.029-2.395M41.19 70.093c-2.503.272-5.005.147-7.49.375M58.32 69.501c2.876.228 5.713.557 8.601.628" style="fill:none;stroke:#a57fe1;stroke-width:1.91px"/><path d="M50.906 91.518a7.082 7.082 0 0 0 4.827-1.92c1.634-1.557 3.045-3.803 3.045-6.556 0-3.803-2.525-6.592-8.057-6.592-4.716 0-7.055 2.101-7.055 4.492 0 2.028 1.448 2.644 2.859 2.644.928 0 1.856-.435 2.896-.435 1.448 0 1.894.688 1.894 1.449 0 2.282-2.859 3.296-2.859 5.143 0 1.123.779 1.775 2.45 1.775Zm-.074 8.657c2.228 0 3.676-1.557 3.676-3.658 0-2.137-1.448-3.622-3.676-3.622-2.191 0-3.639 1.485-3.639 3.622 0 2.101 1.448 3.658 3.639 3.658Z" style="fill:#a57ee1;fill-rule:nonzero"/><path d="M125.341 46.235c-1.538 1.537-3.574 2.353-5.983 2.457-2.447.106-4.382-.575-5.888-1.707a8.347 8.347 0 0 1-1.432-1.372 7.43 7.43 0 0 1-.26.357c-1.481 1.924-3.689 3.208-6.807 3.343-4.821.208-8.317-2.455-9.732-8.453l-.032-.141c-.567-2.763-.944-6.497-1.149-11.354-.2-4.752-.141-8.501.189-11.351.009-.072.019-.143.03-.214.522-3.254 1.928-5.593 3.858-7.079 1.438-1.108 3.218-1.806 5.408-1.901 2.881-.124 4.977.752 6.463 2.071.197.175.385.359.565.553.152-.198.313-.387.482-.568 1.358-1.456 3.363-2.525 6.272-2.65 5.165-.223 8.744 2.593 10.052 8.22a20.028 20.028 0 0 1 .051.244c2.053-.973 4.513-1.548 7.43-1.548 2.151 0 4.045.317 5.695.882.257-2.426 1.047-4.244 2.163-5.593 1.322-1.597 3.154-2.698 5.749-3.057 2.476-.343 4.331.151 5.784 1.089 1.32.853 2.498 2.243 3.256 4.478.319-.474.67-.897 1.047-1.274 1.465-1.464 3.391-2.385 6.008-2.496 2.497-.106 4.298.562 5.657 1.635 1.318 1.04 2.418 2.674 2.929 5.243 2.698-1.803 6.017-2.747 9.631-2.747 4.537 0 8.635 1.465 11.634 4.235.556-1.287 1.209-2.368 1.968-3.219.15-.168.312-.326.484-.471 1.829-1.551 4.359-2.528 8.196-1.748 3.687.749 5.795 2.675 6.834 4.875.033.071.065.143.095.215.968 2.335 1.022 5.593.258 9.438-.663 3.342-1.725 6.484-2.561 8.138l-.021.042a12.037 12.037 0 0 1-1.106 1.768c1.004 2.019 1.302 4.461.778 7.101-1.221 6.144-6.082 9.575-12.158 8.341-3.694-.75-6.304-2.879-7.535-5.789-2.099.898-4.426 1.371-6.866 1.371-2.729 0-5.305-.59-7.574-1.707a8.75 8.75 0 0 1-1.201 1.37c-1.449 1.341-3.509 2.399-6.496 2.526-3.739.158-6.484-1.225-8.329-3.574-1.075.621-2.388 1.093-4 1.316-3.228.447-5.814-.341-7.786-1.98-1.984 2.257-5.538 3.889-11.321 3.889-4.606 0-8.103-1.302-10.729-3.204Z" style="fill:#f9f9f9"/><path d="M123.765 35.661a38.939 38.939 0 0 1-.227 3.056c-.428 3.131-1.889 4.986-4.403 5.095-2.887.124-4.363-1.699-4.543-4.851a235.36 235.36 0 0 1-.343-5.928c-.042-.989-.25-1.499-1.37-1.498l-3.073.133c-1.022.091-1.14.615-1.098 1.604.075 1.789.134 4.286.157 5.936.135 3.201-1.231 5.1-4.118 5.224-2.514.109-4.077-1.569-4.816-4.697-.528-2.572-.861-6.048-1.052-10.567-.187-4.426-.147-7.918.16-10.572.481-2.993 1.992-4.756 4.693-4.872 2.7-.117 4.062 1.192 4.211 3.638.147 1.268.225 3.104.266 4.092.04.942.204 1.501 1.276 1.502l2.98-.129c1.162-.097 1.325-.67 1.285-1.612a121.945 121.945 0 0 1-.08-4.1c-.056-2.45 1.143-3.869 3.844-3.986 2.7-.116 4.448 1.506 5.132 4.448.53 2.619.863 6.095 1.05 10.52l.034.848c1.048-4.399 4.28-8.895 11.111-8.895 6.571 0 9.787 3.817 9.787 9.425 0 3.11-1.398 4.571-4.195 4.571-2.749 0-5.965-.048-7.829-.048-.699 0-.885.283-.885.754 0 1.037 1.025 2.545 4.007 2.545 1.911 0 3.403-.424 5.779-.424 2.097 0 3.123 1.131 3.123 2.969 0 2.733-2.563 4.712-8.575 4.712-7.552 0-11.134-4.46-12.288-8.893Zm11.262-5.951c2.424 0 2.797-.283 2.797-1.178 0-1.319-.979-2.497-2.89-2.497-2.05 0-3.215 1.366-3.215 2.686 0 .801.372.989 3.308.989Zm19.475 12.98c-2.816.391-4.7-1.013-5.755-3.245-1.251-2.633-2.089-7.083-2.646-11.192-.506-3.735-1.01-7.803-.765-11.547.246-2.697 1.368-4.137 3.769-4.47 2.678-.371 3.785.855 4.259 4.357.498 2.975.813 6.689 1.065 9.936.152 2.167.326 4.14.515 5.541.235 1.727.766 2.177 1.866 2.31 1.133.033 1.776.61 2.042 2.571.322 2.381-.471 5.202-4.35 5.739Zm12.783 2.217c-2.84.121-4.585-1.456-5.428-3.779-1-2.74-1.42-7.25-1.592-11.393-.156-3.767-.28-7.865.313-11.569.495-2.662 1.746-3.989 4.168-4.091 2.7-.115 3.688 1.211 3.835 4.742.218 3.009.186 6.737.135 9.993-.05 2.172-.061 4.153-.002 5.566.072 1.742.559 2.24 1.642 2.477 1.125.141 1.711.776 1.793 2.754.1 2.401-.953 5.134-4.864 5.3Zm15.474-2.193c-6.478 0-11.651-4.76-11.651-12.441 0-7.681 5.127-12.063 11.651-12.063 6.571 0 11.837 4.335 11.837 12.016s-5.312 12.488-11.837 12.488Zm.047-8.247c2.144 0 3.635-1.79 3.635-4.382 0-2.498-1.491-4.1-3.635-4.1-2.097 0-3.542 1.602-3.542 4.1 0 2.639 1.398 4.382 3.542 4.382Zm17.74.277c-2.467-.501-3.353-1.546-3.607-3.856-.117-1.562.123-4.445.673-7.218.523-2.633 1.183-4.758 2.345-6.06.914-.776 2.213-1.089 4.132-.699 1.782.362 2.914 1.12 3.416 2.184.675 1.627.509 3.9-.023 6.58-.56 2.818-1.421 5.479-2.126 6.874-1.081 2.088-2.297 2.706-4.81 2.195Zm-2.432 12.484c-3.289-.668-4.932-3.405-4.281-6.685.643-3.234 3.194-5.071 6.484-4.403 3.244.658 4.896 3.349 4.254 6.583-.652 3.28-3.212 5.164-6.457 4.505Z" style="fill:#773fd2"/><path d="M.322-.557a.048.048 0 0 0-.049-.05c-.034 0-.048.034-.064.06a.1.1 0 0 0-.015.056l-.006.118-.015.069-.002.032-.016.06-.008.019v.037l-.014.08-.005.069.014.015.016.032S.225.021.229-.003l.002-.026.011-.029a1.545 1.545 0 0 1 .032-.227l.005-.036.006-.056.008-.03.005-.082c.006-.012.024-.046.024-.068Z" style="fill:#424242;fill-rule:nonzero" transform="matrix(17.19749 0 0 17.38949 98.658 68.626)"/><path d="M.187-.589.185-.617.179-.658c-.002-.02.005-.03-.04-.03-.024 0-.048.013-.048.034l.001.03-.004.011v.014a.262.262 0 0 0-.026.07c0 .025.027.046.057.046.047 0 .065-.024.065-.056v-.005L.183-.572l.004-.017Z" style="fill:#424242;fill-rule:nonzero" transform="matrix(17.19749 0 0 17.38949 105.416 68.626)"/><path d="M.668-.11.665-.255.654-.294.65-.324.632-.348S.571-.422.535-.422H.53l-.069.013-.041.033c-.007.005-.011.007-.015.007S.397-.371.392-.375C.373-.391.339-.446.311-.446c-.02 0-.023.005-.054.018a.13.13 0 0 1-.038.008C.216-.447.206-.491.18-.491c-.032 0-.051.023-.054.057l-.007.075-.006.022-.001.054-.009.039.006.096L.1-.095l.004.032.005.03.021.015c.005.005.018.017.03.017.023 0 .063-.047.063-.09 0-.039-.02-.083-.02-.127 0-.024.028-.06.028-.06L.242-.31.26-.318s.017-.015.026-.015c.028 0 .038.04.038.088v.007L.32-.154l.01.032.001.031c0 .023.026.044.05.044.027 0 .054-.031.054-.071v-.004L.432-.226l.016-.019.005-.017.008-.011.022-.011.013-.015c.002-.003.005-.004.009-.004.013 0 .033.013.045.025a.055.055 0 0 1 .016.042c0 .016-.003.033-.003.05 0 .014-.007.052-.007.052l.003.035c.003.033.025.073.043.073.029 0 .066-.065.066-.084Z" style="fill:#424242;fill-rule:nonzero" transform="matrix(17.19749 0 0 17.38949 108.753 68.626)"/><path d="M.532-.318c0-.028-.02-.051-.047-.051-.015 0-.035.016-.04.023l-.02.012L.39-.27C.366-.226.326-.187.3-.179l-.022.007S.267-.16.259-.16C.247-.16.244-.196.232-.218.193-.292.126-.367.099-.367c-.038 0-.055.054-.055.054l.007.035.021.015.013.02s.06.073.087.138c.022.057.075.112.1.112a.078.078 0 0 0 .046-.026l.026-.032.011-.01.018-.025.026-.027.013-.024.039-.046C.528-.274.532-.29.532-.318Z" style="fill:#424242;fill-rule:nonzero" transform="matrix(17.19749 0 0 17.38949 126.346 68.626)"/><path d="M.477-.277c0-.116-.057-.184-.145-.184l-.055.005-.024.01s-.028.007-.054.023c-.033.021-.084.078-.084.078S.101-.29.101-.277l-.002.055a.193.193 0 0 0-.008.046c0 .02.016.053.016.053l.056.064.011.019.04.024s.07.042.12.042a.16.16 0 0 0 .034-.01L.379 0l.016-.015-.004-.052-.025-.016-.017-.016-.033-.003-.027-.007C.278-.115.219-.146.193-.181a.021.021 0 0 1-.004-.01c0-.011.015-.019.041-.019.042 0 .108.019.163.019a.086.086 0 0 0 .084-.086ZM.386-.322c0 .018-.002.028-.037.029l-.035.001-.032-.004-.011-.001h-.02c-.01 0-.019 0-.025-.004C.219-.306.218-.315.218-.322c0-.016.01-.038.028-.038l.04.001.024-.006s.017-.007.028-.007c.025 0 .048.031.048.05Z" style="fill:#424242;fill-rule:nonzero" transform="matrix(17.19749 0 0 17.38949 135.323 68.626)"/><path d="M.446-.428c0-.026-.038-.051-.088-.051-.053 0-.076.06-.118.06-.008 0-.012-.008-.014-.016L.223-.446v-.013L.217-.477l.001-.009c0-.018-.03-.041-.049-.041-.033 0-.052.022-.052.047v.004l.004.062.011.055.005.066-.008.045.003.027-.001.034.004.02-.001.057.011.024.009.024c.008.019.025.04.042.04.036 0 .059-.051.059-.08C.255-.12.238-.16.238-.208c0-.022.002-.031.002-.031l.021-.048.004-.024c.005-.029.053-.048.1-.053.039-.004.081-.039.081-.064Z" style="fill:#424242;fill-rule:nonzero" transform="matrix(17.19749 0 0 17.38949 143.973 68.626)"/><path d="M.477-.349c0-.044-.019-.066-.043-.066-.022 0-.047.018-.065.055l-.048.106-.001.012-.013.012-.015.015-.007.001c-.036 0-.043-.043-.072-.067a.438.438 0 0 0-.094-.08L.101-.362c-.019 0-.041.007-.041.063 0 .016.015.041.015.041l.019.027.024.012.026.019c.046.033.083.079.083.111a.142.142 0 0 1-.019.064L.19.016l-.02.02-.035.071L.119.13.102.167a.53.53 0 0 0-.034.088c0 .033.02.046.044.046H.12C.149.3.178.278.181.264.19.236.196.212.211.194L.238.156.25.113C.256.104.298.046.31.002l.008-.023.026-.054.005-.027.025-.044.009-.026.044-.073.012-.035c.006-.009.038-.054.038-.069Z" style="fill:#424242;fill-rule:nonzero" transform="matrix(17.19749 0 0 17.38949 151.437 68.626)"/><path d="M.237-.011.228-.05.226-.075.22-.088.219-.107S.186-.178.143-.178c-.053 0-.081.054-.081.102 0 .033.002.037.021.049a.148.148 0 0 1 .031.015.029.029 0 0 1 .013.025c0 .033-.039.082-.039.106 0 .037.024.059.063.059.041 0 .055-.06.062-.107.005-.029.024-.082.024-.082Z" style="fill:#424242;fill-rule:nonzero" transform="matrix(17.19749 0 0 17.38949 158.918 68.626)"/><path d="M.532-.318c0-.028-.02-.051-.047-.051-.015 0-.035.016-.04.023l-.02.012L.39-.27C.366-.226.326-.187.3-.179l-.022.007S.267-.16.259-.16C.247-.16.244-.196.232-.218.193-.292.126-.367.099-.367c-.038 0-.055.054-.055.054l.007.035.021.015.013.02s.06.073.087.138c.022.057.075.112.1.112a.078.078 0 0 0 .046-.026l.026-.032.011-.01.018-.025.026-.027.013-.024.039-.046C.528-.274.532-.29.532-.318Z" style="fill:#424242;fill-rule:nonzero" transform="matrix(17.19749 0 0 17.38949 168.944 68.626)"/><path d="M.477-.277c0-.116-.057-.184-.145-.184l-.055.005-.024.01s-.028.007-.054.023c-.033.021-.084.078-.084.078S.101-.29.101-.277l-.002.055a.193.193 0 0 0-.008.046c0 .02.016.053.016.053l.056.064.011.019.04.024s.07.042.12.042a.16.16 0 0 0 .034-.01L.379 0l.016-.015-.004-.052-.025-.016-.017-.016-.033-.003-.027-.007C.278-.115.219-.146.193-.181a.021.021 0 0 1-.004-.01c0-.011.015-.019.041-.019.042 0 .108.019.163.019a.086.086 0 0 0 .084-.086ZM.386-.322c0 .018-.002.028-.037.029l-.035.001-.032-.004-.011-.001h-.02c-.01 0-.019 0-.025-.004C.219-.306.218-.315.218-.322c0-.016.01-.038.028-.038l.04.001.024-.006s.017-.007.028-.007c.025 0 .048.031.048.05Z" style="fill:#424242;fill-rule:nonzero" transform="matrix(17.19749 0 0 17.38949 177.92 68.626)"/><path d="M.446-.428c0-.026-.038-.051-.088-.051-.053 0-.076.06-.118.06-.008 0-.012-.008-.014-.016L.223-.446v-.013L.217-.477l.001-.009c0-.018-.03-.041-.049-.041-.033 0-.052.022-.052.047v.004l.004.062.011.055.005.066-.008.045.003.027-.001.034.004.02-.001.057.011.024.009.024c.008.019.025.04.042.04.036 0 .059-.051.059-.08C.255-.12.238-.16.238-.208c0-.022.002-.031.002-.031l.021-.048.004-.024c.005-.029.053-.048.1-.053.039-.004.081-.039.081-.064Z" style="fill:#424242;fill-rule:nonzero" transform="matrix(17.19749 0 0 17.38949 186.571 68.626)"/><path d="M.477-.349c0-.044-.019-.066-.043-.066-.022 0-.047.018-.065.055l-.048.106-.001.012-.013.012-.015.015-.007.001c-.036 0-.043-.043-.072-.067a.438.438 0 0 0-.094-.08L.101-.362c-.019 0-.041.007-.041.063 0 .016.015.041.015.041l.019.027.024.012.026.019c.046.033.083.079.083.111a.142.142 0 0 1-.019.064L.19.016l-.02.02-.035.071L.119.13.102.167a.53.53 0 0 0-.034.088c0 .033.02.046.044.046H.12C.149.3.178.278.181.264.19.236.196.212.211.194L.238.156.25.113C.256.104.298.046.31.002l.008-.023.026-.054.005-.027.025-.044.009-.026.044-.073.012-.035c.006-.009.038-.054.038-.069Z" style="fill:#424242;fill-rule:nonzero" transform="matrix(17.19749 0 0 17.38949 194.035 68.626)"/><path d="M.237-.011.228-.05.226-.075.22-.088.219-.107S.186-.178.143-.178c-.053 0-.081.054-.081.102 0 .033.002.037.021.049a.148.148 0 0 1 .031.015.029.029 0 0 1 .013.025c0 .033-.039.082-.039.106 0 .037.024.059.063.059.041 0 .055-.06.062-.107.005-.029.024-.082.024-.082Z" style="fill:#424242;fill-rule:nonzero" transform="matrix(17.19749 0 0 17.38949 201.516 68.626)"/><path d="M.532-.318c0-.028-.02-.051-.047-.051-.015 0-.035.016-.04.023l-.02.012L.39-.27C.366-.226.326-.187.3-.179l-.022.007S.267-.16.259-.16C.247-.16.244-.196.232-.218.193-.292.126-.367.099-.367c-.038 0-.055.054-.055.054l.007.035.021.015.013.02s.06.073.087.138c.022.057.075.112.1.112a.078.078 0 0 0 .046-.026l.026-.032.011-.01.018-.025.026-.027.013-.024.039-.046C.528-.274.532-.29.532-.318Z" style="fill:#424242;fill-rule:nonzero" transform="matrix(17.19749 0 0 17.38949 92.088 86.015)"/><path d="M.477-.277c0-.116-.057-.184-.145-.184l-.055.005-.024.01s-.028.007-.054.023c-.033.021-.084.078-.084.078S.101-.29.101-.277l-.002.055a.193.193 0 0 0-.008.046c0 .02.016.053.016.053l.056.064.011.019.04.024s.07.042.12.042a.16.16 0 0 0 .034-.01L.379 0l.016-.015-.004-.052-.025-.016-.017-.016-.033-.003-.027-.007C.278-.115.219-.146.193-.181a.021.021 0 0 1-.004-.01c0-.011.015-.019.041-.019.042 0 .108.019.163.019a.086.086 0 0 0 .084-.086ZM.386-.322c0 .018-.002.028-.037.029l-.035.001-.032-.004-.011-.001h-.02c-.01 0-.019 0-.025-.004C.219-.306.218-.315.218-.322c0-.016.01-.038.028-.038l.04.001.024-.006s.017-.007.028-.007c.025 0 .048.031.048.05Z" style="fill:#424242;fill-rule:nonzero" transform="matrix(17.19749 0 0 17.38949 101.065 86.015)"/><path d="M.446-.428c0-.026-.038-.051-.088-.051-.053 0-.076.06-.118.06-.008 0-.012-.008-.014-.016L.223-.446v-.013L.217-.477l.001-.009c0-.018-.03-.041-.049-.041-.033 0-.052.022-.052.047v.004l.004.062.011.055.005.066-.008.045.003.027-.001.034.004.02-.001.057.011.024.009.024c.008.019.025.04.042.04.036 0 .059-.051.059-.08C.255-.12.238-.16.238-.208c0-.022.002-.031.002-.031l.021-.048.004-.024c.005-.029.053-.048.1-.053.039-.004.081-.039.081-.064Z" style="fill:#424242;fill-rule:nonzero" transform="matrix(17.19749 0 0 17.38949 109.716 86.015)"/><path d="M.477-.349c0-.044-.019-.066-.043-.066-.022 0-.047.018-.065.055l-.048.106-.001.012-.013.012-.015.015-.007.001c-.036 0-.043-.043-.072-.067a.438.438 0 0 0-.094-.08L.101-.362c-.019 0-.041.007-.041.063 0 .016.015.041.015.041l.019.027.024.012.026.019c.046.033.083.079.083.111a.142.142 0 0 1-.019.064L.19.016l-.02.02-.035.071L.119.13.102.167a.53.53 0 0 0-.034.088c0 .033.02.046.044.046H.12C.149.3.178.278.181.264.19.236.196.212.211.194L.238.156.25.113C.256.104.298.046.31.002l.008-.023.026-.054.005-.027.025-.044.009-.026.044-.073.012-.035c.006-.009.038-.054.038-.069Z" style="fill:#424242;fill-rule:nonzero" transform="matrix(17.19749 0 0 17.38949 117.18 86.015)"/><path d="M.237-.011.228-.05.226-.075.22-.088.219-.107S.186-.178.143-.178c-.053 0-.081.054-.081.102 0 .033.002.037.021.049a.148.148 0 0 1 .031.015.029.029 0 0 1 .013.025c0 .033-.039.082-.039.106 0 .037.024.059.063.059.041 0 .055-.06.062-.107.005-.029.024-.082.024-.082Z" style="fill:#424242;fill-rule:nonzero" transform="matrix(17.19749 0 0 17.38949 124.66 86.015)"/><path d="M.532-.318c0-.028-.02-.051-.047-.051-.015 0-.035.016-.04.023l-.02.012L.39-.27C.366-.226.326-.187.3-.179l-.022.007S.267-.16.259-.16C.247-.16.244-.196.232-.218.193-.292.126-.367.099-.367c-.038 0-.055.054-.055.054l.007.035.021.015.013.02s.06.073.087.138c.022.057.075.112.1.112a.078.078 0 0 0 .046-.026l.026-.032.011-.01.018-.025.026-.027.013-.024.039-.046C.528-.274.532-.29.532-.318Z" style="fill:#424242;fill-rule:nonzero" transform="matrix(17.19749 0 0 17.38949 134.686 86.015)"/><path d="M.477-.277c0-.116-.057-.184-.145-.184l-.055.005-.024.01s-.028.007-.054.023c-.033.021-.084.078-.084.078S.101-.29.101-.277l-.002.055a.193.193 0 0 0-.008.046c0 .02.016.053.016.053l.056.064.011.019.04.024s.07.042.12.042a.16.16 0 0 0 .034-.01L.379 0l.016-.015-.004-.052-.025-.016-.017-.016-.033-.003-.027-.007C.278-.115.219-.146.193-.181a.021.021 0 0 1-.004-.01c0-.011.015-.019.041-.019.042 0 .108.019.163.019a.086.086 0 0 0 .084-.086ZM.386-.322c0 .018-.002.028-.037.029l-.035.001-.032-.004-.011-.001h-.02c-.01 0-.019 0-.025-.004C.219-.306.218-.315.218-.322c0-.016.01-.038.028-.038l.04.001.024-.006s.017-.007.028-.007c.025 0 .048.031.048.05Z" style="fill:#424242;fill-rule:nonzero" transform="matrix(17.19749 0 0 17.38949 143.663 86.015)"/><path d="M.446-.428c0-.026-.038-.051-.088-.051-.053 0-.076.06-.118.06-.008 0-.012-.008-.014-.016L.223-.446v-.013L.217-.477l.001-.009c0-.018-.03-.041-.049-.041-.033 0-.052.022-.052.047v.004l.004.062.011.055.005.066-.008.045.003.027-.001.034.004.02-.001.057.011.024.009.024c.008.019.025.04.042.04.036 0 .059-.051.059-.08C.255-.12.238-.16.238-.208c0-.022.002-.031.002-.031l.021-.048.004-.024c.005-.029.053-.048.1-.053.039-.004.081-.039.081-.064Z" style="fill:#424242;fill-rule:nonzero" transform="matrix(17.19749 0 0 17.38949 152.314 86.015)"/><path d="M.477-.349c0-.044-.019-.066-.043-.066-.022 0-.047.018-.065.055l-.048.106-.001.012-.013.012-.015.015-.007.001c-.036 0-.043-.043-.072-.067a.438.438 0 0 0-.094-.08L.101-.362c-.019 0-.041.007-.041.063 0 .016.015.041.015.041l.019.027.024.012.026.019c.046.033.083.079.083.111a.142.142 0 0 1-.019.064L.19.016l-.02.02-.035.071L.119.13.102.167a.53.53 0 0 0-.034.088c0 .033.02.046.044.046H.12C.149.3.178.278.181.264.19.236.196.212.211.194L.238.156.25.113C.256.104.298.046.31.002l.008-.023.026-.054.005-.027.025-.044.009-.026.044-.073.012-.035c.006-.009.038-.054.038-.069Z" style="fill:#424242;fill-rule:nonzero" transform="matrix(17.19749 0 0 17.38949 159.778 86.015)"/><path d="M.432-.372C.432-.4.369-.456.315-.456c-.021 0-.07.01-.07.01l-.03.005-.04.035s-.024.037-.024.1c0 .052.036.054.112.116.022.017.038.031.038.044 0 .032-.052.061-.078.061-.015 0-.056-.016-.056-.016L.144-.102.099-.124.074-.125.047-.131s-.042.027-.042.043c0 .029.02.055.048.068a.408.408 0 0 0 .164.043c.056 0 .088-.027.088-.027l.061-.031.01-.028a.149.149 0 0 0 .022-.082c0-.038-.033-.111-.033-.111L.34-.267.323-.284.269-.309C.262-.312.253-.32.253-.327c0-.021.018-.035.036-.035.005 0 .01.002.015.004l.014.007.042.046h.003c.014 0 .069-.004.069-.067Z" style="fill:#424242;fill-rule:nonzero" transform="matrix(17.19749 0 0 17.38949 173.38 86.015)"/><path d="M.491-.231C.491-.289.39-.38.39-.38L.374-.401.337-.416.315-.432.273-.436.261-.437c-.105 0-.203.121-.203.2 0 .044.007.063.027.096l.029.048.03.013s.067.042.155.042c.054 0 .192-.108.192-.193Zm-.103.003.001.007c0 .045-.073.077-.105.077-.048 0-.135-.039-.135-.09 0-.092.103-.109.103-.109l.033.013.039.006.029.033.021.01.008.015.006.038Z" style="fill:#424242;fill-rule:nonzero" transform="matrix(17.19749 0 0 17.38949 181.154 86.015)"/><path d="M.446-.428c0-.026-.038-.051-.088-.051-.053 0-.076.06-.118.06-.008 0-.012-.008-.014-.016L.223-.446v-.013L.217-.477l.001-.009c0-.018-.03-.041-.049-.041-.033 0-.052.022-.052.047v.004l.004.062.011.055.005.066-.008.045.003.027-.001.034.004.02-.001.057.011.024.009.024c.008.019.025.04.042.04.036 0 .059-.051.059-.08C.255-.12.238-.16.238-.208c0-.022.002-.031.002-.031l.021-.048.004-.024c.005-.029.053-.048.1-.053.039-.004.081-.039.081-.064Z" style="fill:#424242;fill-rule:nonzero" transform="matrix(17.19749 0 0 17.38949 189.753 86.015)"/><path d="M.446-.428c0-.026-.038-.051-.088-.051-.053 0-.076.06-.118.06-.008 0-.012-.008-.014-.016L.223-.446v-.013L.217-.477l.001-.009c0-.018-.03-.041-.049-.041-.033 0-.052.022-.052.047v.004l.004.062.011.055.005.066-.008.045.003.027-.001.034.004.02-.001.057.011.024.009.024c.008.019.025.04.042.04.036 0 .059-.051.059-.08C.255-.12.238-.16.238-.208c0-.022.002-.031.002-.031l.021-.048.004-.024c.005-.029.053-.048.1-.053.039-.004.081-.039.081-.064Z" style="fill:#424242;fill-rule:nonzero" transform="matrix(17.19749 0 0 17.38949 197.045 86.015)"/><path d="M.477-.349c0-.044-.019-.066-.043-.066-.022 0-.047.018-.065.055l-.048.106-.001.012-.013.012-.015.015-.007.001c-.036 0-.043-.043-.072-.067a.438.438 0 0 0-.094-.08L.101-.362c-.019 0-.041.007-.041.063 0 .016.015.041.015.041l.019.027.024.012.026.019c.046.033.083.079.083.111a.142.142 0 0 1-.019.064L.19.016l-.02.02-.035.071L.119.13.102.167a.53.53 0 0 0-.034.088c0 .033.02.046.044.046H.12C.149.3.178.278.181.264.19.236.196.212.211.194L.238.156.25.113C.256.104.298.046.31.002l.008-.023.026-.054.005-.027.025-.044.009-.026.044-.073.012-.035c.006-.009.038-.054.038-.069Z" style="fill:#424242;fill-rule:nonzero" transform="matrix(17.19749 0 0 17.38949 204.508 86.015)"/><path d="M.408-.447c0-.028-.035-.058-.057-.06L.309-.511c-.01 0-.012-.008-.012-.016L.3-.56.298-.601.309-.65c0-.029-.016-.045-.044-.045-.053 0-.062.042-.062.064l.001.009-.007.02-.002.018-.006.026.004.048v.001c0 .016-.025.016-.041.017a.343.343 0 0 1-.055-.011s-.022.055-.022.069c0 .024.014.039.034.04l.074.007.006.011-.006.036-.001.061.005.047-.001.022-.011.033.005.091a.178.178 0 0 0-.009.047c0 .02.021.061.021.061l.03-.001.015.003.023-.032.014-.025-.002-.019.006-.029-.006-.064.003-.047L.27-.256l.012-.05.001-.082.019-.001.027-.005.017.002h.003c.015 0 .025-.014.035-.025.009-.009.024-.02.024-.03Z" style="fill:#424242;fill-rule:nonzero" transform="matrix(17.19749 0 0 17.38949 99.535 103.405)"/><path d="M.491-.231C.491-.289.39-.38.39-.38L.374-.401.337-.416.315-.432.273-.436.261-.437c-.105 0-.203.121-.203.2 0 .044.007.063.027.096l.029.048.03.013s.067.042.155.042c.054 0 .192-.108.192-.193Zm-.103.003.001.007c0 .045-.073.077-.105.077-.048 0-.135-.039-.135-.09 0-.092.103-.109.103-.109l.033.013.039.006.029.033.021.01.008.015.006.038Z" style="fill:#424242;fill-rule:nonzero" transform="matrix(17.19749 0 0 17.38949 106.07 103.405)"/><path d="M.546-.199C.546-.235.526-.3.526-.3L.51-.334l-.012-.01-.017-.029L.463-.38C.452-.389.422-.414.373-.414c-.02 0-.072.006-.072.006s-.039.013-.06.028c-.016.012-.025.036-.037.036-.01 0-.015-.004-.018-.019L.183-.379l-.002-.07-.003-.05-.006-.024L.17-.638c0-.018-.021-.028-.044-.028-.025 0-.052.013-.052.041v.003l.004.099-.001.084.007.03.005.109.012.034.009.12.01.029v.034c0 .025.006.026.007.043l.001.015c0 .021-.003.043-.003.043s.024.041.058.041C.2.059.209.044.219.029.222.025.222.019.222.014V.002c0-.008.001-.014.009-.015h.001c.01 0 .018.01.024.012L.29.01a.11.11 0 0 0 .033.004.266.266 0 0 0 .031-.002L.406.008l.022-.011s.118-.023.118-.196Zm-.103.015c0 .012-.01.031-.015.041L.41-.127l-.022.032a.077.077 0 0 1-.028.012c-.061 0-.136-.06-.136-.123 0-.06.071-.104.155-.104.061 0 .064.103.064.126Z" style="fill:#424242;fill-rule:nonzero" transform="matrix(17.19749 0 0 17.38949 120.275 103.405)"/><path d="M.491-.231C.491-.289.39-.38.39-.38L.374-.401.337-.416.315-.432.273-.436.261-.437c-.105 0-.203.121-.203.2 0 .044.007.063.027.096l.029.048.03.013s.067.042.155.042c.054 0 .192-.108.192-.193Zm-.103.003.001.007c0 .045-.073.077-.105.077-.048 0-.135-.039-.135-.09 0-.092.103-.109.103-.109l.033.013.039.006.029.033.021.01.008.015.006.038Z" style="fill:#424242;fill-rule:nonzero" transform="matrix(17.19749 0 0 17.38949 129.837 103.405)"/><path d="M.408-.447c0-.028-.035-.058-.057-.06L.309-.511c-.01 0-.012-.008-.012-.016L.3-.56.298-.601.309-.65c0-.029-.016-.045-.044-.045-.053 0-.062.042-.062.064l.001.009-.007.02-.002.018-.006.026.004.048v.001c0 .016-.025.016-.041.017a.343.343 0 0 1-.055-.011s-.022.055-.022.069c0 .024.014.039.034.04l.074.007.006.011-.006.036-.001.061.005.047-.001.022-.011.033.005.091a.178.178 0 0 0-.009.047c0 .02.021.061.021.061l.03-.001.015.003.023-.032.014-.025-.002-.019.006-.029-.006-.064.003-.047L.27-.256l.012-.05.001-.082.019-.001.027-.005.017.002h.003c.015 0 .025-.014.035-.025.009-.009.024-.02.024-.03Z" style="fill:#424242;fill-rule:nonzero" transform="matrix(17.19749 0 0 17.38949 138.435 103.405)"/><path d="M.511-.063.509-.112a.644.644 0 0 0-.032-.177C.443-.376.379-.385.366-.386l-.031-.01-.046.013-.031.007-.014.01C.242-.364.24-.364.237-.364.229-.364.22-.37.22-.377l.002-.048.002-.109.004-.026-.004-.024.004-.02-.002-.024C.223-.649.197-.683.174-.683c-.047 0-.056.068-.056.116 0 .04.006.072.006.102S.122-.407.12-.38l-.008.167.004.02-.005.044.001.049-.005.022v.04c0 .05.014.063.05.063.026 0 .045-.021.047-.046l.008-.117.014-.059.001-.025c.007-.009.022-.029.042-.046a.047.047 0 0 1 .032-.01l.025.002c.032 0 .064.023.072.05l.006.021v.039l.006.027a.858.858 0 0 0-.015.124c0 .023.023.047.045.047.039 0 .071-.048.071-.091v-.004Z" style="fill:#424242;fill-rule:nonzero" transform="matrix(17.19749 0 0 17.38949 144.97 103.405)"/><path d="M.477-.277c0-.116-.057-.184-.145-.184l-.055.005-.024.01s-.028.007-.054.023c-.033.021-.084.078-.084.078S.101-.29.101-.277l-.002.055a.193.193 0 0 0-.008.046c0 .02.016.053.016.053l.056.064.011.019.04.024s.07.042.12.042a.16.16 0 0 0 .034-.01L.379 0l.016-.015-.004-.052-.025-.016-.017-.016-.033-.003-.027-.007C.278-.115.219-.146.193-.181a.021.021 0 0 1-.004-.01c0-.011.015-.019.041-.019.042 0 .108.019.163.019a.086.086 0 0 0 .084-.086ZM.386-.322c0 .018-.002.028-.037.029l-.035.001-.032-.004-.011-.001h-.02c-.01 0-.019 0-.025-.004C.219-.306.218-.315.218-.322c0-.016.01-.038.028-.038l.04.001.024-.006s.017-.007.028-.007c.025 0 .048.031.048.05Z" style="fill:#424242;fill-rule:nonzero" transform="matrix(17.19749 0 0 17.38949 154.292 103.405)"/><path d="M.446-.428c0-.026-.038-.051-.088-.051-.053 0-.076.06-.118.06-.008 0-.012-.008-.014-.016L.223-.446v-.013L.217-.477l.001-.009c0-.018-.03-.041-.049-.041-.033 0-.052.022-.052.047v.004l.004.062.011.055.005.066-.008.045.003.027-.001.034.004.02-.001.057.011.024.009.024c.008.019.025.04.042.04.036 0 .059-.051.059-.08C.255-.12.238-.16.238-.208c0-.022.002-.031.002-.031l.021-.048.004-.024c.005-.029.053-.048.1-.053.039-.004.081-.039.081-.064Z" style="fill:#424242;fill-rule:nonzero" transform="matrix(17.19749 0 0 17.38949 162.942 103.405)"/><path d="M.477-.349c0-.044-.019-.066-.043-.066-.022 0-.047.018-.065.055l-.048.106-.001.012-.013.012-.015.015-.007.001c-.036 0-.043-.043-.072-.067a.438.438 0 0 0-.094-.08L.101-.362c-.019 0-.041.007-.041.063 0 .016.015.041.015.041l.019.027.024.012.026.019c.046.033.083.079.083.111a.142.142 0 0 1-.019.064L.19.016l-.02.02-.035.071L.119.13.102.167a.53.53 0 0 0-.034.088c0 .033.02.046.044.046H.12C.149.3.178.278.181.264.19.236.196.212.211.194L.238.156.25.113C.256.104.298.046.31.002l.008-.023.026-.054.005-.027.025-.044.009-.026.044-.073.012-.035c.006-.009.038-.054.038-.069Z" style="fill:#424242;fill-rule:nonzero" transform="matrix(17.19749 0 0 17.38949 175.84 103.405)"/><path d="M.491-.231C.491-.289.39-.38.39-.38L.374-.401.337-.416.315-.432.273-.436.261-.437c-.105 0-.203.121-.203.2 0 .044.007.063.027.096l.029.048.03.013s.067.042.155.042c.054 0 .192-.108.192-.193Zm-.103.003.001.007c0 .045-.073.077-.105.077-.048 0-.135-.039-.135-.09 0-.092.103-.109.103-.109l.033.013.039.006.029.033.021.01.008.015.006.038Z" style="fill:#424242;fill-rule:nonzero" transform="matrix(17.19749 0 0 17.38949 184.18 103.405)"/><path d="M.444-.305.44-.342S.43-.359.424-.366C.412-.379.409-.392.39-.395L.384-.396c-.029 0-.053.043-.053.052L.33-.26l-.012.038-.03.029s-.007.044-.04.044C.236-.149.226-.153.22-.162L.207-.181l-.012-.01a.065.065 0 0 1-.021-.048l.003-.129c0-.024-.019-.037-.045-.037-.042 0-.053.036-.055.049l-.009.017v.034l-.001.042v.005c0 .108.103.219.182.219h.034l.032-.023.03-.018s.028-.036.05-.082c.023-.052.04-.063.04-.084V-.25L.434-.27l.01-.035Z" style="fill:#424242;fill-rule:nonzero" transform="matrix(17.19749 0 0 17.38949 193.124 103.405)"/><path d="M.237-.011.228-.05.226-.075.22-.088.219-.107S.186-.178.143-.178c-.053 0-.081.054-.081.102 0 .033.002.037.021.049a.148.148 0 0 1 .031.015.029.029 0 0 1 .013.025c0 .033-.039.082-.039.106 0 .037.024.059.063.059.041 0 .055-.06.062-.107.005-.029.024-.082.024-.082Z" style="fill:#424242;fill-rule:nonzero" transform="matrix(17.19749 0 0 17.38949 200.639 103.405)"/><path d="M.546-.199C.546-.235.526-.3.526-.3L.51-.334l-.012-.01-.017-.029L.463-.38C.452-.389.422-.414.373-.414c-.02 0-.072.006-.072.006s-.039.013-.06.028c-.016.012-.025.036-.037.036-.01 0-.015-.004-.018-.019L.183-.379l-.002-.07-.003-.05-.006-.024L.17-.638c0-.018-.021-.028-.044-.028-.025 0-.052.013-.052.041v.003l.004.099-.001.084.007.03.005.109.012.034.009.12.01.029v.034c0 .025.006.026.007.043l.001.015c0 .021-.003.043-.003.043s.024.041.058.041C.2.059.209.044.219.029.222.025.222.019.222.014V.002c0-.008.001-.014.009-.015h.001c.01 0 .018.01.024.012L.29.01a.11.11 0 0 0 .033.004.266.266 0 0 0 .031-.002L.406.008l.022-.011s.118-.023.118-.196Zm-.103.015c0 .012-.01.031-.015.041L.41-.127l-.022.032a.077.077 0 0 1-.028.012c-.061 0-.136-.06-.136-.123 0-.06.071-.104.155-.104.061 0 .064.103.064.126Z" style="fill:#424242;fill-rule:nonzero" transform="matrix(17.19749 0 0 17.38949 133.259 120.794)"/><path d="M.444-.305.44-.342S.43-.359.424-.366C.412-.379.409-.392.39-.395L.384-.396c-.029 0-.053.043-.053.052L.33-.26l-.012.038-.03.029s-.007.044-.04.044C.236-.149.226-.153.22-.162L.207-.181l-.012-.01a.065.065 0 0 1-.021-.048l.003-.129c0-.024-.019-.037-.045-.037-.042 0-.053.036-.055.049l-.009.017v.034l-.001.042v.005c0 .108.103.219.182.219h.034l.032-.023.03-.018s.028-.036.05-.082c.023-.052.04-.063.04-.084V-.25L.434-.27l.01-.035Z" style="fill:#424242;fill-rule:nonzero" transform="matrix(17.19749 0 0 17.38949 143.165 120.794)"/><path d="M.408-.447c0-.028-.035-.058-.057-.06L.309-.511c-.01 0-.012-.008-.012-.016L.3-.56.298-.601.309-.65c0-.029-.016-.045-.044-.045-.053 0-.062.042-.062.064l.001.009-.007.02-.002.018-.006.026.004.048v.001c0 .016-.025.016-.041.017a.343.343 0 0 1-.055-.011s-.022.055-.022.069c0 .024.014.039.034.04l.074.007.006.011-.006.036-.001.061.005.047-.001.022-.011.033.005.091a.178.178 0 0 0-.009.047c0 .02.021.061.021.061l.03-.001.015.003.023-.032.014-.025-.002-.019.006-.029-.006-.064.003-.047L.27-.256l.012-.05.001-.082.019-.001.027-.005.017.002h.003c.015 0 .025-.014.035-.025.009-.009.024-.02.024-.03Z" style="fill:#424242;fill-rule:nonzero" transform="matrix(17.19749 0 0 17.38949 151.024 120.794)"/><path d="M.806-.059C.804-.115.783-.133.728-.133c-.057 0-.082.019-.082.059 0 .025.013.047.045.063a.186.186 0 0 0 .051.006h.011l.043-.006.001-.023a.047.047 0 0 0 .009-.025ZM.513-.063l.001-.008c0-.01-.004-.018-.006-.023L.507-.116.486-.131s-.03-.02-.06-.02c-.039 0-.065.017-.065.05 0 .047.027.08.071.09h.003c.017 0 .058-.006.058-.006l.003-.02a.07.07 0 0 0 .017-.026ZM.205-.084c0-.03-.03-.057-.061-.057-.04 0-.083.032-.083.063 0 .007.011.033.011.033l.014.009.01.014.026.013a.1.1 0 0 0 .015.001c.024 0 .068-.009.068-.076Z" style="fill:#424242;fill-rule:nonzero" transform="matrix(17.19749 0 0 17.38949 157.043 120.794)"/><path d="M82.227 56.432s1.298 6.456 10.307 6.325" style="fill:none;stroke:#424242;stroke-width:1.88px;stroke-miterlimit:1.5"/></svg>