<svg xmlns="http://www.w3.org/2000/svg" xml:space="preserve" style="fill-rule:evenodd;clip-rule:evenodd;stroke-linecap:round;stroke-linejoin:round;stroke-miterlimit:1.5" viewBox="0 0 720 640"><path d="M0 0h720v640H0z" style="fill:none"/><path d="M214.149 388.448c9.995 0 18.111 8.115 18.111 18.111 0 9.995-8.116 18.11-18.111 18.11-9.995 0-18.111-8.115-18.111-18.11 0-9.996 8.116-18.111 18.111-18.111Zm340.931-60.977c6.935 0 12.564 5.63 12.564 12.564s-5.629 12.564-12.564 12.564c-6.934 0-12.563-5.63-12.563-12.564s5.629-12.564 12.563-12.564ZM40.939 183.395c20.663 0 37.438 16.431 37.438 36.67s-16.775 36.67-37.438 36.67c-20.662 0-37.438-16.431-37.438-36.67s16.776-36.67 37.438-36.67Zm592.01-163.076c20.663 0 37.438 16.432 37.438 36.671 0 20.238-16.775 36.67-37.438 36.67-20.663 0-37.438-16.432-37.438-36.67 0-20.239 16.775-36.671 37.438-36.671Zm46.112 185.566c20.662 0 37.438 16.431 37.438 36.67s-16.776 36.67-37.438 36.67c-20.663 0-37.438-16.431-37.438-36.67s16.775-36.67 37.438-36.67Zm-81.723-23.848c6.904 0 12.509 5.49 12.509 12.252 0 6.762-5.605 12.252-12.509 12.252-6.903 0-12.508-5.49-12.508-12.252 0-6.762 5.605-12.252 12.508-12.252Zm80.522 245.109c6.904 0 12.509 5.49 12.509 12.252 0 6.762-5.605 12.252-12.509 12.252-6.903 0-12.508-5.49-12.508-12.252 0-6.762 5.605-12.252 12.508-12.252ZM158.758 259.008c6.904 0 12.509 5.49 12.509 12.252 0 6.762-5.605 12.252-12.509 12.252-6.903 0-12.508-5.49-12.508-12.252 0-6.762 5.605-12.252 12.508-12.252ZM686.292 83.037c2.989 0 5.416 2.377 5.416 5.305s-2.427 5.306-5.416 5.306c-2.99 0-5.417-2.378-5.417-5.306s2.427-5.305 5.417-5.305Zm-44.423 436.757c2.99 0 5.417 2.378 5.417 5.306s-2.427 5.305-5.417 5.305c-2.989 0-5.416-2.377-5.416-5.305s2.427-5.306 5.416-5.306Zm-421.537-24.153c2.989 0 5.416 2.378 5.416 5.306s-2.427 5.305-5.416 5.305c-2.989 0-5.416-2.377-5.416-5.305s2.427-5.306 5.416-5.306ZM62.392 18.068c2.99 0 5.416 2.378 5.416 5.306s-2.426 5.305-5.416 5.305c-2.989 0-5.416-2.377-5.416-5.305s2.427-5.306 5.416-5.306Zm342.484 173.026c2.989 0 5.416 2.377 5.416 5.305s-2.427 5.305-5.416 5.305c-2.989 0-5.416-2.377-5.416-5.305s2.427-5.305 5.416-5.305ZM94.474 249.722c2.99 0 5.417 2.377 5.417 5.305s-2.427 5.305-5.417 5.305c-2.989 0-5.416-2.377-5.416-5.305s2.427-5.305 5.416-5.305Zm-.815-231.383c13.498 0 24.456 10.733 24.456 23.954s-10.958 23.954-24.456 23.954c-13.497 0-24.456-10.733-24.456-23.954s10.959-23.954 24.456-23.954Zm502.363 512.212c13.498 0 24.456 10.733 24.456 23.954s-10.958 23.954-24.456 23.954c-13.497 0-24.455-10.733-24.455-23.954s10.958-23.954 24.455-23.954ZM41.196 484.678c7.826 0 14.179 6.223 14.179 13.888 0 7.666-6.353 13.889-14.179 13.889-7.826 0-14.18-6.223-14.18-13.889 0-7.665 6.354-13.888 14.18-13.888Zm71.612 16.577c19.294 0 34.958 15.343 34.958 34.241s-15.664 34.241-34.958 34.241c-19.294 0-34.958-15.343-34.958-34.241s15.664-34.241 34.958-34.241Zm-13.577-141.72c9.156 0 16.59 7.434 16.59 16.59 0 9.157-7.434 16.591-16.59 16.591-9.157 0-16.591-7.434-16.591-16.591 0-9.156 7.434-16.59 16.591-16.59Zm327.563-158.447c5.242 0 9.497 4.255 9.497 9.497 0 5.241-4.255 9.497-9.497 9.497-5.241 0-9.497-4.256-9.497-9.497 0-5.242 4.256-9.497 9.497-9.497Zm-65.73-186.869c5.242 0 9.497 4.256 9.497 9.497 0 5.242-4.255 9.497-9.497 9.497-5.241 0-9.497-4.255-9.497-9.497 0-5.241 4.256-9.497 9.497-9.497Zm269.401 371.796c8.287 0 15.015 6.728 15.015 15.015s-6.728 15.015-15.015 15.015c-8.288 0-15.016-6.728-15.016-15.015s6.728-15.015 15.016-15.015Zm14.582-260.732c6.92 0 12.538 5.618 12.538 12.538s-5.618 12.538-12.538 12.538-12.538-5.618-12.538-12.538 5.618-12.538 12.538-12.538Zm-43.923 185.456a4.709 4.709 0 0 1 4.706 4.707 4.709 4.709 0 0 1-4.706 4.706 4.709 4.709 0 0 1-4.707-4.706 4.71 4.71 0 0 1 4.707-4.707Zm-363.955-80.267a4.709 4.709 0 0 1 4.706 4.707 4.709 4.709 0 0 1-4.706 4.706 4.709 4.709 0 0 1-4.707-4.706 4.71 4.71 0 0 1 4.707-4.707ZM133.285 344.385a3.935 3.935 0 0 1 3.933 3.934 3.935 3.935 0 0 1-3.933 3.934 3.936 3.936 0 0 1-3.934-3.934 3.936 3.936 0 0 1 3.934-3.934ZM334.481 33.956a3.935 3.935 0 0 1 3.933 3.934 3.935 3.935 0 0 1-3.933 3.934 3.936 3.936 0 0 1-3.934-3.934 3.936 3.936 0 0 1 3.934-3.934Zm147.687 503.828a3.934 3.934 0 1 1-3.934 3.934 3.936 3.936 0 0 1 3.934-3.934ZM81.745 491.872a3.936 3.936 0 0 1 3.934 3.934 3.935 3.935 0 0 1-3.934 3.933 3.935 3.935 0 0 1-3.934-3.933 3.936 3.936 0 0 1 3.934-3.934Zm75.742-315.273c6.286 0 11.389 5.103 11.389 11.388 0 6.286-5.103 11.389-11.389 11.389s-11.389-5.103-11.389-11.389c0-6.285 5.103-11.388 11.389-11.388Z" style="fill:#b6ebfc"/><path d="M419.402 291.485c9.995 0 18.111 8.115 18.111 18.111 0 9.995-8.116 18.11-18.111 18.11-9.995 0-18.111-8.115-18.111-18.11 0-9.996 8.116-18.111 18.111-18.111Zm340.931-60.977c6.935 0 12.564 5.63 12.564 12.564s-5.629 12.564-12.564 12.564c-6.934 0-12.563-5.63-12.563-12.564s5.629-12.564 12.563-12.564ZM246.192 86.432c20.663 0 37.438 16.431 37.438 36.67s-16.775 36.67-37.438 36.67c-20.662 0-37.438-16.431-37.438-36.67s16.776-36.67 37.438-36.67Zm592.01-163.076c20.663 0 37.438 16.432 37.438 36.671 0 20.238-16.775 36.67-37.438 36.67-20.663 0-37.438-16.432-37.438-36.67 0-20.239 16.775-36.671 37.438-36.671Zm46.112 185.566c20.662 0 37.438 16.431 37.438 36.67s-16.776 36.67-37.438 36.67c-20.663 0-37.438-16.431-37.438-36.67s16.775-36.67 37.438-36.67Zm-81.723-23.848c6.904 0 12.509 5.49 12.509 12.252 0 6.762-5.605 12.252-12.509 12.252-6.903 0-12.508-5.49-12.508-12.252 0-6.762 5.605-12.252 12.508-12.252Zm80.522 245.109c6.904 0 12.509 5.49 12.509 12.252 0 6.762-5.605 12.252-12.509 12.252-6.903 0-12.508-5.49-12.508-12.252 0-6.762 5.605-12.252 12.508-12.252ZM364.011 162.045c6.904 0 12.509 5.49 12.509 12.252 0 6.762-5.605 12.252-12.509 12.252-6.903 0-12.508-5.49-12.508-12.252 0-6.762 5.605-12.252 12.508-12.252ZM891.545-13.926c2.989 0 5.416 2.377 5.416 5.305s-2.427 5.306-5.416 5.306c-2.99 0-5.417-2.378-5.417-5.306s2.427-5.305 5.417-5.305Zm-44.423 436.757c2.99 0 5.417 2.378 5.417 5.306s-2.427 5.305-5.417 5.305c-2.989 0-5.416-2.377-5.416-5.305s2.427-5.306 5.416-5.306Zm-421.537-24.153c2.989 0 5.416 2.378 5.416 5.306s-2.427 5.305-5.416 5.305c-2.989 0-5.416-2.377-5.416-5.305s2.427-5.306 5.416-5.306ZM267.645-78.895c2.99 0 5.416 2.378 5.416 5.306s-2.426 5.305-5.416 5.305c-2.989 0-5.416-2.377-5.416-5.305s2.427-5.306 5.416-5.306ZM610.129 94.131c2.989 0 5.416 2.377 5.416 5.305s-2.427 5.305-5.416 5.305c-2.989 0-5.416-2.377-5.416-5.305s2.427-5.305 5.416-5.305Zm-310.402 58.628c2.99 0 5.417 2.377 5.417 5.305s-2.427 5.305-5.417 5.305c-2.989 0-5.416-2.377-5.416-5.305s2.427-5.305 5.416-5.305Zm-.815-231.383c13.498 0 24.456 10.733 24.456 23.954s-10.958 23.954-24.456 23.954c-13.497 0-24.456-10.733-24.456-23.954s10.959-23.954 24.456-23.954Zm502.363 512.212c13.498 0 24.456 10.733 24.456 23.954s-10.958 23.954-24.456 23.954c-13.497 0-24.455-10.733-24.455-23.954s10.958-23.954 24.455-23.954Zm-554.826-45.873c7.826 0 14.179 6.223 14.179 13.888 0 7.666-6.353 13.889-14.179 13.889-7.826 0-14.18-6.223-14.18-13.889 0-7.665 6.354-13.888 14.18-13.888Zm71.612 16.577c19.294 0 34.958 15.343 34.958 34.241s-15.664 34.241-34.958 34.241c-19.294 0-34.958-15.343-34.958-34.241s15.664-34.241 34.958-34.241Zm-13.577-141.72c9.156 0 16.59 7.434 16.59 16.59 0 9.157-7.434 16.591-16.59 16.591-9.157 0-16.591-7.434-16.591-16.591 0-9.156 7.434-16.59 16.591-16.59Zm327.563-158.447c5.242 0 9.497 4.255 9.497 9.497 0 5.241-4.255 9.497-9.497 9.497-5.241 0-9.497-4.256-9.497-9.497 0-5.242 4.256-9.497 9.497-9.497Zm-65.73-186.869c5.242 0 9.497 4.256 9.497 9.497 0 5.242-4.255 9.497-9.497 9.497-5.241 0-9.497-4.255-9.497-9.497 0-5.241 4.256-9.497 9.497-9.497Zm269.401 371.796c8.287 0 15.015 6.728 15.015 15.015s-6.728 15.015-15.015 15.015c-8.288 0-15.016-6.728-15.016-15.015s6.728-15.015 15.016-15.015ZM850.3 28.32c6.92 0 12.538 5.618 12.538 12.538S857.22 53.396 850.3 53.396s-12.538-5.618-12.538-12.538S843.38 28.32 850.3 28.32Zm-43.923 185.456a4.709 4.709 0 0 1 4.706 4.707 4.709 4.709 0 0 1-4.706 4.706 4.709 4.709 0 0 1-4.707-4.706 4.71 4.71 0 0 1 4.707-4.707Zm-363.955-80.267a4.709 4.709 0 0 1 4.706 4.707 4.709 4.709 0 0 1-4.706 4.706 4.709 4.709 0 0 1-4.707-4.706 4.71 4.71 0 0 1 4.707-4.707ZM338.538 247.422a3.935 3.935 0 0 1 3.933 3.934 3.935 3.935 0 0 1-3.933 3.934 3.936 3.936 0 0 1-3.934-3.934 3.936 3.936 0 0 1 3.934-3.934ZM539.734-63.007a3.935 3.935 0 0 1 3.933 3.934 3.935 3.935 0 0 1-3.933 3.934 3.936 3.936 0 0 1-3.934-3.934 3.936 3.936 0 0 1 3.934-3.934Zm147.687 503.828a3.934 3.934 0 1 1-3.934 3.934 3.936 3.936 0 0 1 3.934-3.934Zm-400.423-45.912a3.936 3.936 0 0 1 3.934 3.934 3.935 3.935 0 0 1-3.934 3.933 3.935 3.935 0 0 1-3.934-3.933 3.936 3.936 0 0 1 3.934-3.934ZM362.74 79.636c6.286 0 11.389 5.103 11.389 11.388 0 6.286-5.103 11.389-11.389 11.389s-11.389-5.103-11.389-11.389c0-6.285 5.103-11.388 11.389-11.388ZM392.138 566.04c51.008 1.101 126.764-.542 127.043 5.197.492 10.1-51.868 2.877-52.201 6.77-.414 4.856 19.117 6.1 20.119 11.615 1.396 7.688-53.222 6.671-77.042 7.523-14.17.507-45.649-3.017-61.117 1.989-13.174 4.264 7.511 5.068 7.316 11.871-.172 5.977-12.666 9.402-22.413 8.935-10.541-.505-19.808-6.728-30.282-5.886-7.908.636-9.739 7.624-27.159 5.522-14.922-1.8 6.047-15.562-6.454-16.908-2.266-.244-27.688-2.086-76.31 4.488-5.298.716-25.844-.768-28.848-6.218-4.558-8.269 9.689-12.591 15.612-12.474 81.401 1.613 112.308-.444 112.946-5.318 1.187-9.071-18.606-3.313-16.352-15.431 1.577-8.486 82.956-2.371 115.142-1.675Zm-5.572 41.17c13.796-.755 18.931 3.599 18.766 5.391-.683 7.409-32.059 7.214-33.143.34-.56-3.552 5.039-5.219 14.377-5.731Zm80.645-4.49c6.166.383 8.087 6.67-2.621 7.176-12.998.615-17.948-.182-17.294-4.807.413-2.917 12.732-2.815 19.915-2.369Zm75.892-32.95c9.231.075 13.983 3.582 10.309 5.909-4.814 3.048-19.021 2.274-23.005-.186-3.303-2.039.671-5.822 12.696-5.723Zm-275.897 3.947c-.313 3.447-14.034 3.36-16.955 3.95-2.552.515-20.864.015-21.834-3.95-.86-3.518 12.039-3.496 21.114-3.949 7.927-.396 17.82 2.344 17.675 3.949Zm-14.959 50.901c-4.32.699-20.828 1.506-21.217-2.298-.391-3.826 7.015-4.249 14.261-4.193 11.986.094 12.546 5.586 6.956 6.491Zm47.123 7.144c9.406.166 11.294 6.51 1.055 6.797-17.224.481-16.01-2.864-15.241-4.59.783-1.757 12.077-2.245 14.186-2.207Zm-165.116-37.293c-.471-5.16 23.324-5.53 23.305-.796-.028 6.787-22.867 5.594-23.305.796Z" style="fill:#b6ebfc"/><path d="M352.105 579.94c4.545-.112 9.385.048 13.179.277 8.427.509 11.054 8.852-3.584 9.524-14.94.686-22.102.047-23.471-3.822-23.143.792-31.96-.286-30.788-6.392.744-3.872 22.934-3.737 35.874-3.144 4.596.21 7.883 1.762 8.79 3.557Zm69.332-1.784c8.428.354 15.673 6.461-2.24 6.844-22.189.475-28.799-.861-27.904-5.135.564-2.697 20.325-2.122 30.144-1.709Zm43.893 8.965c3.842.234 5.039 4.079-1.633 4.389-8.099.376-11.183-.112-10.776-2.94.258-1.785 7.933-1.722 12.409-1.449Zm-175.178 20.48c3.818.335 4.63 5.836-2.073 6.279-8.137.538-11.172-.159-10.481-4.206.436-2.553 8.105-2.463 12.554-2.073Zm158.434-22.242c1.004.134 1.316 2.323-.427 2.5-2.117.214-2.923-.064-2.817-1.674.068-1.017 2.074-.981 3.244-.826Zm-71.037.081c1.004.134 1.317 2.323-.427 2.499-2.117.214-2.923-.063-2.816-1.674.067-1.016 2.073-.98 3.243-.825Zm-77.581 22.646c1.004.133 1.317 2.323-.427 2.499-2.116.214-2.922-.063-2.816-1.674.068-1.016 2.074-.98 3.243-.825Z" style="fill:#70d1ef"/><path d="M388.406 480.955c2.811 16.918 3.11 33.708.973 50.373l7.864.298c1.853-16.628 1.676-33.799-.553-51.519l-8.284.848ZM333.488 475.419c-1.912 18.139-2.309 35.406-.146 51.198l8.289-.702c-2.025-14.686-1.575-32.221.254-51.345l-8.397.849Z" style="fill:#ffe4b4;stroke:#000;stroke-width:3px"/><path d="m327.795 515.904.08 7.447 17.798-.386-.625-6.442-17.253-.619ZM386.176 516.963l.036 5.99 18.595.947-.824-7.366-17.807.429Z" style="fill:#cbcbcb;stroke:#000;stroke-width:3px"/><path d="M374.25 231.533c.885.119 1.789.247 2.713.383 6.606.97 9.621 3.624 9.619 7.556-.002 3.932-3.965 7.122-8.844 7.118-14.597-2.347-28.606-1.797-42.336-.026-4.879-.003-8.838-3.198-8.835-7.13.002-3.932 3.782-7.872 8.661-7.869 1.635-.212 3.218-.403 4.764-.572l.009-14.456c.006-9.477 7.686-17.167 17.14-17.161 9.454.006 17.124 7.705 17.118 17.183l-.009 14.974Z" style="fill:#a583e2"/><clipPath id="a"><path d="M374.25 231.533c.885.119 1.789.247 2.713.383 6.606.97 9.621 3.624 9.619 7.556-.002 3.932-3.965 7.122-8.844 7.118-14.597-2.347-28.606-1.797-42.336-.026-4.879-.003-8.838-3.198-8.835-7.13.002-3.932 3.782-7.872 8.661-7.869 1.635-.212 3.218-.403 4.764-.572l.009-14.456c.006-9.477 7.686-17.167 17.14-17.161 9.454.006 17.124 7.705 17.118 17.183l-.009 14.974Z"/></clipPath><g clip-path="url(#a)"><path d="m375.264 222.983.001 8.69c-12.934-2.414-23.603-3.108-36.391-.559l-.088-8.131c11.248-4.878 26.593-4.375 36.478 0Z" style="fill:#fff;stroke:#000;stroke-width:3px"/></g><path d="M374.25 231.533c.885.119 1.789.247 2.713.383 6.606.97 9.621 3.624 9.619 7.556-.002 3.932-3.965 7.122-8.844 7.118-14.597-2.347-28.606-1.797-42.336-.026-4.879-.003-8.838-3.198-8.835-7.13.002-3.932 3.782-7.872 8.661-7.869 1.635-.212 3.218-.403 4.764-.572l.009-14.456c.006-9.477 7.686-17.167 17.14-17.161 9.454.006 17.124 7.705 17.118 17.183l-.009 14.974Z" style="fill:none;stroke:#000;stroke-width:3px"/><path d="M485.366 383.826c-2.863-46.624 47.476-73.006 65.727-75.374 10.726-1.391 22.252 4.118 23.923 21.422 2.168 22.451-26.416 24.692-25.426 47.238.909 20.72 27.475 15.115 29.521 43.589 1.722 23.98-12.2 29.828-21.798 30.778-48.779 4.83-69.678-30.702-71.947-67.653Z" style="fill:#eef27a"/><clipPath id="b"><path d="M485.366 383.826c-2.863-46.624 47.476-73.006 65.727-75.374 10.726-1.391 22.252 4.118 23.923 21.422 2.168 22.451-26.416 24.692-25.426 47.238.909 20.72 27.475 15.115 29.521 43.589 1.722 23.98-12.2 29.828-21.798 30.778-48.779 4.83-69.678-30.702-71.947-67.653Z"/></clipPath><g clip-path="url(#b)"><path d="M518.775 304.285c4.524-3.264 14.353-5.448 21.073 3.612 6.661 8.982 2.238 18.758-3.955 23.342-9.974 7.382-18.307-.35-22.227-6.382-5.587-8.598.584-17.309 5.109-20.572Zm40.171 116.78c5.996-4.325 19.02-7.219 27.924 4.787 8.827 11.901 2.966 24.856-5.24 30.929-13.217 9.782-24.259-.463-29.453-8.456-7.404-11.393.774-22.936 6.769-27.26Zm-50.336 7.965c2.332-1.683 7.399-2.809 10.863 1.862 3.433 4.63 1.153 9.67-2.039 12.032-5.142 3.806-9.437-.18-11.458-3.289-2.88-4.432.301-8.923 2.634-10.605Zm31.932-60.044c2.333-1.682 7.4-2.808 10.863 1.863 3.434 4.63 1.154 9.669-2.038 12.032-5.142 3.805-9.437-.18-11.458-3.29-2.88-4.432.301-8.922 2.633-10.605Zm19.047-40.02c1.271-.916 4.032-1.53 5.919 1.015 1.871 2.522.629 5.268-1.111 6.556-2.801 2.073-5.141-.099-6.242-1.793-1.57-2.415.164-4.861 1.434-5.778Zm-8.496 75.065c1.271-.916 4.031-1.53 5.918 1.015 1.871 2.523.629 5.268-1.11 6.556-2.802 2.073-5.142-.098-6.243-1.793-1.569-2.414.164-4.861 1.435-5.778Zm-20.563-30.224c.439-.317 1.393-.529 2.046.35.646.872.217 1.821-.384 2.266-.968.716-1.777-.034-2.158-.619-.542-.835.057-1.68.496-1.997Zm16.898-29.121c.439-.317 1.393-.529 2.045.351.646.871.217 1.82-.384 2.265-.968.716-1.777-.034-2.157-.619-.543-.835.056-1.68.496-1.997Z" style="fill:#c8cc45"/><path d="M501.128 413.1s8.025 14.174 35.44 20.304c34.426 7.697 39.97-7.366 44.716-11.295 0 0 3.71 16.401-9.638 26.757-14.157 10.985-40.628 5.315-53.272-1.081-31.107-15.736-17.246-34.685-17.246-34.685Z" style="fill-opacity:.06"/></g><path d="M485.366 383.826c-2.863-46.624 47.476-73.006 65.727-75.374 10.726-1.391 22.252 4.118 23.923 21.422 2.168 22.451-26.416 24.692-25.426 47.238.909 20.72 27.475 15.115 29.521 43.589 1.722 23.98-12.2 29.828-21.798 30.778-48.779 4.83-69.678-30.702-71.947-67.653Z" style="fill:none;stroke:#000;stroke-width:3px"/><path d="m314.695 461.367.579 26.251 41.167.984.219-12.023 11.334.431.676 12.292 45.052-2.332-2.338-30.235-96.689 4.632Z" style="fill:#8d97da"/><clipPath id="c"><path d="m314.695 461.367.579 26.251 41.167.984.219-12.023 11.334.431.676 12.292 45.052-2.332-2.338-30.235-96.689 4.632Z"/></clipPath><g clip-path="url(#c)"><path d="m310.466 459.589.082 14.865s112.096.128 111.309.034c-.788-.094-1.377-21.181-1.377-21.181l-110.014 6.282Z" style="fill-opacity:.22"/></g><path d="m314.695 461.367.579 26.251 41.167.984.219-12.023 11.334.431.676 12.292 45.052-2.332-2.338-30.235-96.689 4.632Z" style="fill:none;stroke:#000;stroke-width:3px"/><path d="M496.004 354.193c-2.114-30.795-30.862-103.511-138.5-113.934C223.992 227.33 207.45 359.876 202.686 391.748c-3.81 25.485 1.296 78.007 165.671 74.371 140.828-3.115 130.168-39.043 132.861-58.284" style="fill:#eef27a"/><clipPath id="d"><path d="M496.004 354.193c-2.114-30.795-30.862-103.511-138.5-113.934C223.992 227.33 207.45 359.876 202.686 391.748c-3.81 25.485 1.296 78.007 165.671 74.371 140.828-3.115 130.168-39.043 132.861-58.284"/></clipPath><g clip-path="url(#d)"><path d="M323.556 257.379c5.575-.2 14.961 3.445 15.515 14.711.549 11.169-8.56 16.841-16.256 17.211-12.394.597-15.027-10.46-14.936-17.654.131-10.253 10.102-14.067 15.677-14.268Zm-70.049 43.938c5.576-.201 14.961 3.444 15.515 14.71.55 11.169-8.559 16.841-16.255 17.211-12.395.597-15.028-10.46-14.936-17.654.13-10.253 10.101-14.067 15.676-14.267Zm-29.98 106.559c7.388-.265 19.825 4.564 20.559 19.493.728 14.8-11.342 22.316-21.54 22.807-16.424.791-19.913-13.862-19.792-23.394.173-13.586 13.386-18.641 20.773-18.906Zm122.498 40.906c7.705-.231 20.677 3.974 21.442 16.973.759 12.886-11.83 19.43-22.466 19.857-17.129.689-20.769-12.069-20.642-20.368.18-11.83 13.96-16.231 21.666-16.462Zm136.188-24.793c6.951-.246 18.654 4.236 19.345 18.094.684 13.738-10.673 20.714-20.268 21.17-15.454.735-18.737-12.866-18.623-21.714.163-12.612 12.595-17.304 19.546-17.55Zm-106.63-151.132c2.874-.103 7.712 1.775 7.998 7.583.283 5.758-4.413 8.681-8.38 8.872-6.389.308-7.747-5.392-7.7-9.1.068-5.286 5.208-7.252 8.082-7.355Zm88.283 42.882c2.874-.103 7.713 1.775 7.998 7.583.283 5.758-4.412 8.681-8.38 8.873-6.389.307-7.746-5.393-7.699-9.101.067-5.286 5.207-7.252 8.081-7.355Zm-118.452-18.915c1.566-.056 4.202.967 4.358 4.131.154 3.137-2.405 4.73-4.566 4.834-3.481.168-4.221-2.938-4.195-4.958.037-2.88 2.837-3.951 4.403-4.007Zm101.563 118.183c1.566-.056 4.202.968 4.358 4.132.154 3.137-2.404 4.73-4.566 4.834-3.481.168-4.22-2.938-4.195-4.958.037-2.88 2.837-3.951 4.403-4.008Zm-201.576-28.075c1.082-.039 2.904.668 3.011 2.855.107 2.168-1.661 3.269-3.155 3.341-2.406.116-2.917-2.03-2.899-3.427.025-1.99 1.96-2.73 3.043-2.769Zm125.215 48.406c1.083-.039 2.904.669 3.012 2.856.107 2.168-1.662 3.268-3.155 3.34-2.406.116-2.918-2.03-2.9-3.426.026-1.991 1.961-2.731 3.043-2.77Zm82.247-121.153c.541-.019 1.452.334 1.506 1.428.053 1.084-.831 1.634-1.578 1.67-1.203.058-1.458-1.015-1.449-1.713.012-.995.98-1.365 1.521-1.385Zm-92.919-9.939c.542-.019 1.453.334 1.506 1.428.054 1.084-.83 1.634-1.577 1.67-1.203.058-1.459-1.015-1.45-1.713.013-.995.98-1.365 1.521-1.385Zm-121.257 53.609c.541-.02 1.452.334 1.505 1.427.054 1.084-.83 1.635-1.577 1.671-1.203.058-1.459-1.015-1.45-1.714.013-.995.981-1.365 1.522-1.384Zm71.483 95.84c.541-.02 1.452.334 1.506 1.427.053 1.084-.831 1.635-1.578 1.671-1.203.058-1.458-1.016-1.449-1.714.012-.995.98-1.365 1.521-1.384Zm8.952-8.494c1.082-.039 2.904.668 3.011 2.855.107 2.168-1.661 3.269-3.155 3.341-2.406.116-2.917-2.03-2.899-3.427.025-1.99 1.96-2.731 3.043-2.769Z" style="fill:#c8cc45"/><path d="M476.814 366.08c-5.424 1.311-9.635 3.418-10.97 11.215-1.336 7.797 3.639 12.869 11.181 13.255 7.541.385 13.748-3.369 14.624-9.574.876-6.206-9.41-16.207-14.835-14.896Z" style="fill:none"/><path d="M466.279 351.627c5.575-.2 14.961 3.444 15.515 14.71.549 11.169-8.559 16.841-16.255 17.212-12.395.596-15.028-10.461-14.936-17.655.13-10.253 10.101-14.067 15.676-14.267Zm-70.048 43.937c5.575-.2 14.961 3.444 15.515 14.711.549 11.168-8.56 16.84-16.256 17.211-12.394.597-15.027-10.461-14.936-17.654.131-10.254 10.102-14.068 15.677-14.268Zm-34.873-159.57c2.874-.103 7.712 1.776 7.998 7.583.283 5.758-4.412 8.682-8.38 8.873-6.389.307-7.746-5.393-7.699-9.101.067-5.285 5.207-7.252 8.081-7.355Zm53.341 74.199c2.874-.104 7.713 1.775 7.998 7.583.283 5.757-4.412 8.681-8.379 8.872-6.39.308-7.747-5.392-7.7-9.101.067-5.285 5.207-7.251 8.081-7.354Zm73.438 80.878c1.566-.056 4.202.967 4.358 4.132.154 3.137-2.404 4.73-4.566 4.834-3.481.167-4.22-2.938-4.195-4.959.037-2.879 2.838-3.951 4.403-4.007Zm-69.846 67.821c1.566-.057 4.202.967 4.358 4.131.154 3.137-2.404 4.73-4.566 4.834-3.481.168-4.221-2.938-4.195-4.958.037-2.88 2.837-3.951 4.403-4.007Zm-200.525-77.465c1.082-.039 2.904.668 3.011 2.855.107 2.168-1.661 3.269-3.155 3.341-2.406.116-2.917-2.03-2.899-3.427.025-1.99 1.96-2.73 3.043-2.769Zm185.93-72.788c.541-.02 1.452.334 1.506 1.427.054 1.084-.831 1.635-1.577 1.671-1.203.058-1.459-1.015-1.45-1.714.013-.995.98-1.365 1.521-1.384Zm93.455 72.342c.541-.019 1.452.334 1.506 1.428.053 1.084-.831 1.634-1.578 1.67-1.203.058-1.458-1.015-1.45-1.713.013-.995.981-1.365 1.522-1.385ZM381.41 452.102c.541-.019 1.452.334 1.506 1.428.053 1.084-.831 1.634-1.578 1.67-1.203.058-1.458-1.015-1.449-1.713.012-.995.98-1.366 1.521-1.385Z" style="fill:#c8cc45"/><path d="M209.384 369.705s7.809 51.644 47.789 66.564c39.98 14.92 102.728 17.988 146.918 15.671 25.46-1.335 83.588-15.721 97.401-34.51 0 0 1.886 23.041-33.779 39.883-21.406 10.109-59.569 15.452-118.057 14.127-53.909-1.221-111.567-11.911-132.151-35.56-22.208-25.515-8.121-66.175-8.121-66.175Z" style="fill-opacity:.06"/><path d="M235.77 290.581c1.277 3.303 77.163 23.277 66.491-45.88 0 0-50.255-6.716-66.491 45.88ZM473.432 299.327c-1.277 3.303-73.387 26.42-77.977-50.214 0 0 61.741-2.382 77.977 50.214Z" style="fill-opacity:.09"/></g><path d="M496.004 354.193c-2.114-30.795-30.862-103.511-138.5-113.934C223.992 227.33 207.45 359.876 202.686 391.748c-3.81 25.485 1.296 78.007 165.671 74.371 140.828-3.115 130.168-39.043 132.861-58.284" style="fill:none;stroke:#000;stroke-width:3px"/><path d="M351.536 319.868c-37.956.816-60.019 5.449-77.259 13.12-19.713 8.771-21.914 26.593-21.914 44.766-.002 28.174 5.142 45.877 99.173 45.877 21.605 0 37.863-1.108 49.992-3.649 40.857-8.562 40.167-26.466 38.571-44.057-1.537-16.953 2.466-45.198-40.437-51.74-11.828-1.804-28.829-4.732-48.126-4.317Z" style="fill:#99ae16"/><clipPath id="e"><path d="M351.536 319.868c-37.956.816-60.019 5.449-77.259 13.12-19.713 8.771-21.914 26.593-21.914 44.766-.002 28.174 5.142 45.877 99.173 45.877 21.605 0 37.863-1.108 49.992-3.649 40.857-8.562 40.167-26.466 38.571-44.057-1.537-16.953 2.466-45.198-40.437-51.74-11.828-1.804-28.829-4.732-48.126-4.317Z"/></clipPath><g clip-path="url(#e)"><path d="M349.107 350.312c-65.364-.217-74.611 3.767-74.611 25.049 0 17.696 3.369 20.514 74.611 20.514 63.245 0 65.106-2.99 65.106-20.514 0-22.524-6.903-24.857-65.106-25.049Z" style="fill:#3e4615"/><clipPath id="f"><path d="M349.107 350.312c-65.364-.217-74.611 3.767-74.611 25.049 0 17.696 3.369 20.514 74.611 20.514 63.245 0 65.106-2.99 65.106-20.514 0-22.524-6.903-24.857-65.106-25.049Z"/></clipPath><g clip-path="url(#f)"><path d="M311.613 361.338c24.171-.274 105.835-9.663 112.29 28.083-29.451 11.109-135.636 7.964-148.311 3.575 0 0 11.717-31.382 36.021-31.658Z" style="fill:#8dbeda;stroke:#000;stroke-width:3px"/><path d="M379.183 389.215c6.77 14.02 14.143 27.621 14.143 27.621-19.485 3.961-45.631 4.503-76.617 2.56 0 0-7.503-21.883-8.607-33.338-1.943-20.165 9.072-34.83 29.382-34.153 41.343 1.379 34.709 22.838 41.699 37.31Z" style="fill:#ffe4b4;stroke:#000;stroke-width:3px"/><path d="M344.22 382.71c-6.712-.268-14.59-3.991-14.718 1.817-.122 5.536 7.05 6.499 14.137 6.683 7.316.191 14.13-1.736 14.051-6.663-.105-6.558-6.737-1.569-13.47-1.837Z" style="fill:#fff"/><clipPath id="g"><path d="M344.22 382.71c-6.712-.268-14.59-3.991-14.718 1.817-.122 5.536 7.05 6.499 14.137 6.683 7.316.191 14.13-1.736 14.051-6.663-.105-6.558-6.737-1.569-13.47-1.837Z"/></clipPath><g clip-path="url(#g)"><path d="m336.328 380.676.006 10.112M343.665 382.202l.004 8.582M351.431 380.668l.005 10.112" style="fill:none;stroke:#000;stroke-width:2px"/></g><path d="M344.22 382.71c-6.712-.268-14.59-3.991-14.718 1.817-.122 5.536 7.05 6.499 14.137 6.683 7.316.191 14.13-1.736 14.051-6.663-.105-6.558-6.737-1.569-13.47-1.837Z" style="fill:none;stroke:#000;stroke-width:3px"/><path d="M364.922 359.465s-22.924 14.973-48.418 4.065c-6.248 9.558-7.051 23.505-3.292 32.345l-13.458-.417s-10.204-53.848 42.495-54.487c40.94-.496 46.706 28.485 43.32 54.869l-9.829.035c.323-17.098-5.98-31.327-10.818-36.41Z" style="fill:#ff7f24"/><clipPath id="h"><path d="M364.922 359.465s-22.924 14.973-48.418 4.065c-6.248 9.558-7.051 23.505-3.292 32.345l-13.458-.417s-10.204-53.848 42.495-54.487c40.94-.496 46.706 28.485 43.32 54.869l-9.829.035c.323-17.098-5.98-31.327-10.818-36.41Z"/></clipPath><g clip-path="url(#h)"><path d="M304.15 356.329s56.277-3.978 78.1-.945l-1.661-13.389-76.091.049-.348 14.285Z" style="fill-opacity:.09"/></g><path d="M364.922 359.465s-22.924 14.973-48.418 4.065c-6.248 9.558-7.051 23.505-3.292 32.345l-13.458-.417s-10.204-53.848 42.495-54.487c40.94-.496 46.706 28.485 43.32 54.869l-9.829.035c.323-17.098-5.98-31.327-10.818-36.41Z" style="fill:none;stroke:#000;stroke-width:3px"/><ellipse cx="350.521" cy="369.554" rx="8.098" ry="7.794" style="fill:#fff"/><clipPath id="i"><ellipse cx="350.521" cy="369.554" rx="8.098" ry="7.794"/></clipPath><g clip-path="url(#i)"><ellipse cx="348.061" cy="369.685" rx="1.798" ry="1.786"/></g><ellipse cx="350.521" cy="369.554" rx="8.098" ry="7.794" style="fill:none;stroke:#000;stroke-width:3px"/><ellipse cx="334.963" cy="370.252" rx="7.061" ry="6.795" style="fill:#fff"/><clipPath id="j"><ellipse cx="334.963" cy="370.252" rx="7.061" ry="6.795"/></clipPath><g clip-path="url(#j)"><ellipse cx="336.788" cy="370.128" rx="1.688" ry="1.529"/></g><ellipse cx="334.963" cy="370.252" rx="7.061" ry="6.795" style="fill:none;stroke:#000;stroke-width:3px"/></g><path d="M349.107 350.312c-65.364-.217-74.611 3.767-74.611 25.049 0 17.696 3.369 20.514 74.611 20.514 63.245 0 65.106-2.99 65.106-20.514 0-22.524-6.903-24.857-65.106-25.049Z" style="fill:none;stroke:#000;stroke-width:3px"/><path d="M251.543 390.696s20.545 23.006 85.617 24.904c73.413 2.142 89.398-12.352 102.923-19.912 0 0 6.145 30.078-72.224 31.554-77.562 1.46-116.191-6.114-116.316-36.546Z" style="fill-opacity:.06"/><path d="M288.526 335.896c6.464-2.426 18.548-4.342 24.956-4.919M319.904 330.445c.149.006-.299-.001-.448.005M328.605 329.642c.022.014-1.223-.023-1.246.007M280.235 338.848c.058.119.139.18.251.245M384.128 329.726c11.751.86 26.72 5.237 30.627 6.811M419.507 339.386c.097.003.22.256.229.334M378.078 329.405c-.269-.144-.768-.074-1.075-.142" style="fill:none;stroke:#e0f26f;stroke-width:3px"/><path d="M369.475 387.496c.095-.02-.177-.08-.27-.107M363.641 385.457a2.18 2.18 0 0 1-.039.05M368.999 382.099c-.013.017.069.075.055.092M364.071 379.83c.033-.026.009-.009-.015.006M317.812 381.203c-.009-.009.079-.048.115-.058M322.655 384.604c.057-.101.037-.232.094-.336M317.481 387.866c.025-.104.032-.204.038-.312" style="fill:none;stroke:#eac27c;stroke-width:3px"/><path d="M327.266 370.148h-28.848M387.634 369.511H358.79" style="fill:none;stroke:#000;stroke-width:3px;stroke-linejoin:miter"/></g><path d="M351.536 319.868c-37.956.816-60.019 5.449-77.259 13.12-19.713 8.771-21.914 26.593-21.914 44.766-.002 28.174 5.142 45.877 99.173 45.877 21.605 0 37.863-1.108 49.992-3.649 40.857-8.562 40.167-26.466 38.571-44.057-1.537-16.953 2.466-45.198-40.437-51.74-11.828-1.804-28.829-4.732-48.126-4.317Z" style="fill:none;stroke:#000;stroke-width:3px"/><path d="M315.682 525.237a2 2 0 0 1 1.919-1.845l33.428-1.236a2 2 0 0 1 2.071 1.904c.978 20.462 2.839 37.971 5.025 54.39a2.001 2.001 0 0 1-1.982 2.265h-37.817a2 2 0 0 1-1.977-1.698c-2-13.554-2.43-30.969-.667-53.78Z" style="fill:#bc6634"/><clipPath id="k"><path d="M315.682 525.237a2 2 0 0 1 1.919-1.845l33.428-1.236a2 2 0 0 1 2.071 1.904c.978 20.462 2.839 37.971 5.025 54.39a2.001 2.001 0 0 1-1.982 2.265h-37.817a2 2 0 0 1-1.977-1.698c-2-13.554-2.43-30.969-.667-53.78Z"/></clipPath><g clip-path="url(#k)"><path d="M316.084 528.826c2.71-.066 9.321-.191 9.233 5.291-.14 8.836-8.863 7.126-9.852 7.185" style="fill:#dba07d;stroke:#000;stroke-width:3px"/><path d="M314.185 575.947s.783-6.575 6.051-4.612 5.963 7.361 10.517 4.234c4.553-3.128 9.824-11.686 18.61-8.161 8.786 3.526 8.295 8.893 16.843 5.988 8.548-2.906 10.824-8.343 16.336-4.387 5.511 3.956 8.506 6.933 14.319 3.705 5.814-3.227 16.092-5.369 20.547-2.229 4.455 3.139 9.535 9.749 9.535 9.749l.09 7.727-112.864.258.016-12.272Z" style="fill-opacity:.1"/></g><path d="M315.682 525.237a2 2 0 0 1 1.919-1.845l33.428-1.236a2 2 0 0 1 2.071 1.904c.978 20.462 2.839 37.971 5.025 54.39a2.001 2.001 0 0 1-1.982 2.265h-37.817a2 2 0 0 1-1.977-1.698c-2-13.554-2.43-30.969-.667-53.78Z" style="fill:none;stroke:#000;stroke-width:3px"/><path d="M414.097 524.999a2 2 0 0 0-1.901-1.685l-33.565-1.241a2 2 0 0 0-2.072 1.906c-.909 19.672-1.995 37.398-4.03 54.497a2 2 0 0 0 1.986 2.239h40.708a2 2 0 0 0 1.995-1.848c1.129-15.673.085-33.633-3.121-53.868Z" style="fill:#bc6634"/><clipPath id="l"><path d="M414.097 524.999a2 2 0 0 0-1.901-1.685l-33.565-1.241a2 2 0 0 0-2.072 1.906c-.909 19.672-1.995 37.398-4.03 54.497a2 2 0 0 0 1.986 2.239h40.708a2 2 0 0 0 1.995-1.848c1.129-15.673.085-33.633-3.121-53.868Z"/></clipPath><g clip-path="url(#l)"><path d="M413.527 530.281c-3.032-.516-8.666.859-8.105 6.949.714 7.755 8.346 6.207 9.813 4.556" style="fill:#dba07d;stroke:#000;stroke-width:3px"/><path d="M314.185 575.947s.783-6.575 6.051-4.612 5.963 7.361 10.517 4.234c4.553-3.128 9.824-11.686 18.61-8.161 8.786 3.526 8.295 8.893 16.843 5.988 8.548-2.906 10.824-8.343 16.336-4.387 5.511 3.956 8.506 6.933 14.319 3.705 5.814-3.227 16.092-5.369 20.547-2.229 4.455 3.139 9.535 9.749 9.535 9.749l.09 7.727-112.864.258.016-12.272Z" style="fill-opacity:.1"/></g><path d="M414.097 524.999a2 2 0 0 0-1.901-1.685l-33.565-1.241a2 2 0 0 0-2.072 1.906c-.909 19.672-1.995 37.398-4.03 54.497a2 2 0 0 0 1.986 2.239h40.708a2 2 0 0 0 1.995-1.848c1.129-15.673.085-33.633-3.121-53.868Z" style="fill:none;stroke:#000;stroke-width:3px"/><path d="M394.665 570.138c-1.993-6.745-8.24-10.652-15.503-10.578-15.115.155-12.726 21.155-12.726 21.155h32.566" style="fill:#bc6634"/><clipPath id="m"><path d="M394.665 570.138c-1.993-6.745-8.24-10.652-15.503-10.578-15.115.155-12.726 21.155-12.726 21.155h32.566"/></clipPath><g clip-path="url(#m)"><path d="M314.185 575.947s.783-6.575 6.051-4.612 5.963 7.361 10.517 4.234c4.553-3.128 9.824-11.686 18.61-8.161 8.786 3.526 8.295 8.893 16.843 5.988 8.548-2.906 10.824-8.343 16.336-4.387 5.511 3.956 8.506 6.933 14.319 3.705 5.814-3.227 16.092-5.369 20.547-2.229 4.455 3.139 9.535 9.749 9.535 9.749l.09 7.727-112.864.258.016-12.272Z" style="fill-opacity:.1"/></g><path d="M394.665 570.138c-1.993-6.745-8.24-10.652-15.503-10.578-15.115.155-12.726 21.155-12.726 21.155h32.566" style="fill:none;stroke:#000;stroke-width:3px"/><path d="M266.607 433.001s-.596 38.645-.856 55.868c-.082 5.398-.633 16.38 3.935 15.889 3.504-.377 3.392-8.76 3.392-8.76s.277 9.62 4.37 9.612c3.615-.008 3.376-9.39 3.376-9.39s-.219 7.791 4.01 8.038c4.151.242 2.881-12.097 2.644-20.16-.462-15.755-2.317-52.543-2.317-52.543" style="fill:#ffe4b4;stroke:#000;stroke-width:3px"/><path d="M258.084 437.1c1.265-3.468 17.669-10.686 34.034-2.833" style="fill:none;stroke:#000;stroke-width:3px"/><path d="M450.454 435.267s2.333 40.332 2.999 59.188c.191 5.395 1.106 16.355-3.474 15.996-3.514-.275-3.645-8.658-3.645-8.658s.002 9.624-4.089 9.734c-3.614.097-3.646-9.289-3.646-9.289s.443 7.782-3.776 8.151c-4.142.362-3.23-12.008-3.227-20.074.007-15.762.307-56.572.307-56.572" style="fill:#ffe4b4"/><clipPath id="n"><path d="M450.454 435.267s2.333 40.332 2.999 59.188c.191 5.395 1.106 16.355-3.474 15.996-3.514-.275-3.645-8.658-3.645-8.658s.002 9.624-4.089 9.734c-3.614.097-3.646-9.289-3.646-9.289s.443 7.782-3.776 8.151c-4.142.362-3.23-12.008-3.227-20.074.007-15.762.307-56.572.307-56.572"/></clipPath><g clip-path="url(#n)"><path d="m432.273 483.42 20.421.219.602 5.497-21.326.414.303-6.13Z"/><path d="M443.155 482.108c2.39-.069 4.384 1.742 4.45 4.042.067 2.299-1.819 4.223-4.209 4.292-2.39.069-4.384-1.742-4.45-4.042-.067-2.3 1.819-4.223 4.209-4.292Z" style="fill:#fff;stroke:#000;stroke-width:3px"/></g><path d="M450.454 435.267s2.333 40.332 2.999 59.188c.191 5.395 1.106 16.355-3.474 15.996-3.514-.275-3.645-8.658-3.645-8.658s.002 9.624-4.089 9.734c-3.614.097-3.646-9.289-3.646-9.289s.443 7.782-3.776 8.151c-4.142.362-3.23-12.008-3.227-20.074.007-15.762.307-56.572.307-56.572" style="fill:none;stroke:#000;stroke-width:3px"/><path d="M424.238 434.637c5.871-3.277 21.655-5.372 33.041 4.054" style="fill:none;stroke:#000;stroke-width:3px"/><path d="M436.853 216.996c-13.57.487-37.519 3.925-38.156 37.653-.165 8.733 6.26 45.697 42.205 42.97 9.962-.756 35.051-11.782 33.715-41.892-1.218-27.429-24.194-39.218-37.764-38.731Z" style="fill:#fff"/><clipPath id="o"><path d="M436.853 216.996c-13.57.487-37.519 3.925-38.156 37.653-.165 8.733 6.26 45.697 42.205 42.97 9.962-.756 35.051-11.782 33.715-41.892-1.218-27.429-24.194-39.218-37.764-38.731Z"/></clipPath><g clip-path="url(#o)"><path d="M395.994 244.692s26.697 45.871 82.554 28.189c0 0-6.86 38.686-56.801 27.221-31.095-7.139-26.873-42.99-25.753-55.41Z" style="fill-opacity:.1"/><path d="M398.694 252.067s17.58 40.139 67.686 32.846c0 0-18.407 22.729-50.28 12.479-23.874-7.677-17.406-45.325-17.406-45.325Z" style="fill:#99ae16;stroke:#000;stroke-width:3px"/><path d="M455.333 231.453c-2.78.1-7.687.804-7.817 7.715-.034 1.789 1.282 9.363 8.647 8.804 2.041-.155 7.182-2.414 6.908-8.583-.25-5.62-4.957-8.036-7.738-7.936Z"/></g><path d="M436.853 216.996c-13.57.487-37.519 3.925-38.156 37.653-.165 8.733 6.26 45.697 42.205 42.97 9.962-.756 35.051-11.782 33.715-41.892-1.218-27.429-24.194-39.218-37.764-38.731Z" style="fill:none;stroke:#000;stroke-width:3px"/><path d="M341.136 571.39c1.212-6.26 4.913-11.246 14.813-11.805 15.092-.854 13.435 21.13 13.435 21.13h-32.258" style="fill:#bc6634"/><clipPath id="p"><path d="M341.136 571.39c1.212-6.26 4.913-11.246 14.813-11.805 15.092-.854 13.435 21.13 13.435 21.13h-32.258"/></clipPath><g clip-path="url(#p)"><path d="M314.185 575.947s.783-6.575 6.051-4.612 5.963 7.361 10.517 4.234c4.553-3.128 9.824-11.686 18.61-8.161 8.786 3.526 8.295 8.893 16.843 5.988 8.548-2.906 10.824-8.343 16.336-4.387 5.511 3.956 8.506 6.933 14.319 3.705 5.814-3.227 16.092-5.369 20.547-2.229 4.455 3.139 9.535 9.749 9.535 9.749l.09 7.727-112.864.258.016-12.272Z" style="fill-opacity:.1"/></g><path d="M341.136 571.39c1.212-6.26 4.913-11.246 14.813-11.805 15.092-.854 13.435 21.13 13.435 21.13h-32.258M348.489 529.799l10.092.045" style="fill:none;stroke:#000;stroke-width:3px"/><path d="M358.487 526.542c-1.105.04-3.081.796-3.107 2.828-.018 1.425.504 3.616 2.96 3.498 1.525-.073 3.33-1.197 3.221-3.411-.11-2.232-1.97-2.954-3.074-2.915ZM347.948 526.542c-1.104.04-3.08.796-3.106 2.828-.018 1.425.504 3.616 2.96 3.498 1.525-.073 3.33-1.197 3.221-3.411-.11-2.232-1.97-2.954-3.075-2.915Z"/><path d="m348.201 539.65 10.421.213" style="fill:none;stroke:#000;stroke-width:3px"/><path d="M358.768 536.456c-1.105.04-3.08.795-3.106 2.827-.018 1.426.503 3.617 2.96 3.499 1.525-.074 3.33-1.198 3.221-3.411-.11-2.233-1.97-2.955-3.075-2.915ZM348.083 536.456c-1.105.04-3.081.795-3.107 2.827-.018 1.426.504 3.617 2.96 3.499 1.525-.074 3.33-1.198 3.221-3.411-.11-2.233-1.97-2.955-3.074-2.915Z"/><path d="m348.19 549.64 10.443-.184" style="fill:none;stroke:#000;stroke-width:3px"/><path d="M358.647 546.292c-1.105.039-3.081.795-3.107 2.827-.018 1.426.504 3.617 2.96 3.498 1.525-.073 3.33-1.197 3.221-3.41-.109-2.233-1.969-2.955-3.074-2.915ZM347.948 546.715c-1.104.04-3.08.796-3.106 2.828-.018 1.425.504 3.616 2.96 3.498 1.525-.074 3.33-1.197 3.221-3.411-.11-2.232-1.97-2.954-3.075-2.915Z"/><path d="m372.896 530.243 12.247.519" style="fill:none;stroke:#000;stroke-width:3px"/><path d="M385.327 527.213c-1.105.04-3.08.796-3.106 2.828-.018 1.425.503 3.616 2.96 3.498 1.525-.073 3.33-1.197 3.221-3.411-.11-2.232-1.97-2.954-3.075-2.915ZM372.166 527.213c-1.105.04-3.081.796-3.107 2.828-.018 1.425.504 3.616 2.96 3.498 1.525-.073 3.33-1.197 3.221-3.411-.11-2.232-1.97-2.954-3.074-2.915Z"/><path d="m372.74 540.678 12.652.088" style="fill:none;stroke:#000;stroke-width:3px"/><path d="M385.327 537.516c-1.105.039-3.08.795-3.106 2.827-.018 1.426.503 3.617 2.96 3.498 1.525-.073 3.33-1.197 3.221-3.41-.11-2.233-1.97-2.955-3.075-2.915ZM372.166 537.516c-1.105.039-3.081.795-3.107 2.827-.018 1.426.504 3.617 2.96 3.498 1.525-.073 3.33-1.197 3.221-3.41-.11-2.233-1.97-2.955-3.074-2.915Z"/><path d="m372.414 552.795 11.077-.218" style="fill:none;stroke:#000;stroke-width:3px"/><path d="M384.096 549.531c-1.105.04-3.081.795-3.107 2.827-.018 1.426.504 3.617 2.96 3.499 1.525-.074 3.33-1.198 3.221-3.411-.11-2.233-1.97-2.955-3.074-2.915ZM372.159 549.531c-1.105.04-3.081.795-3.107 2.827-.018 1.426.504 3.617 2.96 3.499 1.525-.074 3.33-1.198 3.221-3.411-.11-2.233-1.97-2.955-3.074-2.915Z"/><path d="M299.963 260.782c1.541-9.589-1.474-33.988-26.889-35.289-8.957-.458-31.21 9.989-32.8 34.7-1.235 19.205 19.13 25.363 24.707 25.742 18.582 1.263 32.198-7.835 34.982-25.153Z" style="fill:#fff"/><clipPath id="q"><path d="M299.963 260.782c1.541-9.589-1.474-33.988-26.889-35.289-8.957-.458-31.21 9.989-32.8 34.7-1.235 19.205 19.13 25.363 24.707 25.742 18.582 1.263 32.198-7.835 34.982-25.153Z"/></clipPath><g clip-path="url(#q)"><path d="M233.817 267.521s31.135 13.809 68.188-22.381c0 0 14.602 33.327-20.133 44.463-23.891 7.659-49.174-9.662-48.055-22.082Z" style="fill-opacity:.1"/><path d="M244.852 275.908c21.927 6.501 42.057-4.559 55.414-25.898 0 0 10.931 23.053-15.196 35.965-27.454 13.566-40.218-10.067-40.218-10.067Z" style="fill:#99ae16;stroke:#000;stroke-width:3px"/><path d="M257.917 237.398c-2.318.098-6.457 1.789-6.491 6.282-.024 3.153 1.094 7.994 6.248 7.708 3.2-.177 6.977-2.68 6.726-7.573-.253-4.936-4.164-6.515-6.483-6.417Z"/></g><path d="M299.963 260.782c1.541-9.589-1.474-33.988-26.889-35.289-8.957-.458-31.21 9.989-32.8 34.7-1.235 19.205 19.13 25.363 24.707 25.742 18.582 1.263 32.198-7.835 34.982-25.153Z" style="fill:none;stroke:#000;stroke-width:3px"/><path d="M293.918 234.714c-.157-.928 2.079-2.81 3.16-4.709m3.344-4.364c.028.005.023.109.014.146m-16.973 1.124c.948-.275 1.684-7.061 2.027-8.78m-18.357 7.154c.933.031-3.935-10.127-4.026-9.279m-10.871 18.259c1.16.975-5.394-7.588-7.365-8.488m-2.038 20.974c-.147-.182-4.485-2.42-6.227-2.967m-3.174-.871c-.111-.033-.202-.164-.272-.251m6.123 13.925c-.313-.345-9.338-1.895-9.113-1.617m9.777 12.115c-1.7.903-4.441 1.057-6.322 1.083m9.224 7.768c-1.345.823-3.01 2.422-3.912 2.931" style="fill:none;stroke:#000;stroke-width:3px"/><path d="M357.988 204.903c-4 .084-7.76 1.266-10.554 5.113M345.608 213.808c-.068.01-.173.131-.235.17" style="fill:none;stroke:#d0b5e5;stroke-width:3px"/><path d="M401.2 221.902c-.447-.048 4.847 5.122 6.691 5.623m8.893-15.34c-.132-.241 2.151 6.241 3.258 7.23m16.097-11.201c-.503 1.999-.003 5.427.643 7.359m14.587-6.268c-.428 2.546-2.69 7.404-2.119 7.914m15.275.038c-.855 1.721-3.389 5.086-3.854 6.796m8.167 7.208c.535.812 6.605-4.69 6.197-3.96m-1.358 15.339c.781.277 5.681-2.804 5.485-2.509m-3.248 17.001c-.026-.049 5.464-1.384 5.136-1.017m6.697-.968c.093-.055.181-.117.287-.138m-13.409 16.369c-1.807.038 3.811 1.024 3.922.616m5.197 1.242c.006-.059.01-.109.064-.14m-89.178-35.474s4.875 2.991 6.059 3.313" style="fill:none;stroke:#000;stroke-width:3px"/><path d="M506.344 369.291c2.581.442 5.895-.481 8.008-2.508m-5.855 13.14c3.472.149 5.891.066 8.296-.172m-8.327 10.873c1.906-.018 4.872.819 7.84 2.256m-9.52 8.241c-.003-.049 6.363.642 7.694 4.129m-11.824-45.417c3.308-.401 5.467-2.153 6.681-5.217" style="fill:none;stroke:#c8cc45;stroke-width:3px"/><path d="M413.676 523.543c-.272-5.356 5.2-10.614 7.944-8.113 5.587 5.091-1.549 9.89-7.944 8.113ZM316.749 523.143c-.596-13.037-10.619-7.298-8.271-1.406 1.087 2.726 7.349 1.936 8.271 1.406Z" style="fill:none;stroke:#000;stroke-width:3px"/></svg>