<svg xmlns="http://www.w3.org/2000/svg" viewBox="0 0 32 32" >
	<defs>
		<style>g { display: none; } g:target { display: inline; }</style>
		<path id="archive" d="M3.971 12.592a6 6 0 0 1 3.042-5.22l6.029-3.417a5.999 5.999 0 0 1 5.916 0l6.029 3.417a6 6 0 0 1 3.042 5.22v6.673a6 6 0 0 1-3.042 5.22l-6.029 3.416a5.999 5.999 0 0 1-5.916 0l-6.029-3.416a6 6 0 0 1-3.042-5.22v-6.673Zm2.363-1.666a3.99 3.99 0 0 0-.363 1.666v6.673c0 1.44.774 2.77 2.028 3.48l6.029 3.416c.371.21.766.357 1.172.44V16.25a4.77 4.77 0 0 1-1.497-.522l-2.748-1.511v1.265a.8.8 0 0 1-1.6 0v-2.145l-1.763-.969a2.784 2.784 0 0 1-1.258-1.442ZM16.8 26.601c.406-.083.801-.23 1.172-.44l6.029-3.416a3.999 3.999 0 0 0 2.028-3.48v-6.673a3.99 3.99 0 0 0-.363-1.666 2.784 2.784 0 0 1-1.258 1.442l-6.111 3.36a4.77 4.77 0 0 1-1.497.522v10.351Zm6.993-17.607-2.489-1.411-9.496 5.277 2.666 1.466c.95.523 2.102.523 3.052 0l6.111-3.36a1.185 1.185 0 0 0 .156-1.972Zm-4.12-2.335-1.701-.964a4 4 0 0 0-3.944 0L8.207 8.994a1.182 1.182 0 0 0 .156 1.972l1.79.984 9.52-5.291Z"/>
		<path id="back" d="M19.298 7.288a1 1 0 0 1 1.404 1.424l-7.288 7.19 7.298 7.396a1 1 0 0 1-1.424 1.404l-8-8.107a1 1 0 0 1 .01-1.414l8-7.893Z"/>
		<path id="book" d="M27.5 11.8v8.4c0 4.029-3.271 7.3-7.3 7.3h-8.4a7.303 7.303 0 0 1-7.3-7.3v-8.4c0-4.029 3.271-7.3 7.3-7.3h8.4c4.029 0 7.3 3.271 7.3 7.3ZM10.25 6.731A5.304 5.304 0 0 0 6.5 11.8v8.4c0 2.925 2.375 5.3 5.3 5.3h8.4c2.925 0 5.3-2.375 5.3-5.3v-8.4c0-2.925-2.375-5.3-5.3-5.3h-2.45v7.68a.5.5 0 0 1-.729.445l-2.792-1.437a.5.5 0 0 0-.458 0l-2.792 1.437a.498.498 0 0 1-.729-.445V6.731Z"/>
		<path id="bookmark" d="m16 21.623-7.422 4.913s-.77.514-1.538.07c-.839-.485-.79-1.321-.79-1.321V8.215a3 3 0 0 1 3-3h13.5a3 3 0 0 1 3 3v17.07s-.014.945-.79 1.321c-.879.426-1.538-.07-1.538-.07L16 21.623Zm-7.75 2.731 6.922-4.582s.363-.249.828-.249c.465 0 .828.249.828.249l6.922 4.582V8.215a1 1 0 0 0-1-1H9.25a1.002 1.002 0 0 0-1 1v16.139Z"/>
		<path id="calendar" d="M21.974 6.802a6.643 6.643 0 0 1 5.525 6.544v7.516a6.64 6.64 0 0 1-6.637 6.637h-9.724a6.64 6.64 0 0 1-6.637-6.637v-7.516a6.643 6.643 0 0 1 5.525-6.544V5.499a1 1 0 0 1 2 0v1.21h7.948v-1.21a1 1 0 0 1 2 0v1.303ZM10.026 8.844a4.64 4.64 0 0 0-3.525 4.502v7.516a4.64 4.64 0 0 0 4.637 4.637h9.724a4.64 4.64 0 0 0 4.637-4.637v-7.516a4.64 4.64 0 0 0-3.525-4.502V9.92a1 1 0 0 1-2 0V8.709h-7.948V9.92a1 1 0 0 1-2 0V8.844Zm1 9.671a1.659 1.659 0 1 1-.002 3.318 1.659 1.659 0 0 1 .002-3.318ZM16 13.374a1.659 1.659 0 1 1-.002 3.318A1.659 1.659 0 0 1 16 13.374Zm-4.974 0a1.659 1.659 0 1 1-.002 3.318 1.659 1.659 0 0 1 .002-3.318Zm9.948 0a1.659 1.659 0 1 1-.002 3.318 1.659 1.659 0 0 1 .002-3.318ZM16 18.515a1.659 1.659 0 1 1-.002 3.318A1.659 1.659 0 0 1 16 18.515Z"/>
		<path id="clipboard" d="M23.055 7.564a6.434 6.434 0 0 1 4.445 6.115v7.237a6.43 6.43 0 0 1-6.428 6.428H10.928A6.43 6.43 0 0 1 4.5 20.916v-7.237a6.434 6.434 0 0 1 4.445-6.115s.341-.497 1.154-.845c.524-.224 1.14-.233 1.14-.233a4.818 4.818 0 0 1 4.46-2.957 4.817 4.817 0 0 1 4.456 2.95s.882-.118 1.746.24c.798.33 1.154.845 1.154.845ZM9.991 9.351c-.014.077-.022 2.205-.022 2.205 0 .724.601 1.311 1.34 1.311h9.382c.739 0 1.34-.587 1.34-1.311 0 0-.008-2.128-.022-2.205a1.334 1.334 0 0 0-1.318-1.072h-1.977c0-.361-.066-.707-.188-1.027a3.015 3.015 0 0 0-2.827-1.923c-1.295 0-2.401.8-2.827 1.923-.122.32-.189.666-.189 1.027h-1.374c-.656 0-1.203.462-1.318 1.072Zm5.821-2.58a1.313 1.313 0 1 1-.002 2.626 1.313 1.313 0 0 1 .002-2.626Zm-7.643 3.446A4.419 4.419 0 0 0 6.5 13.679v7.237a4.43 4.43 0 0 0 4.428 4.428h10.144a4.43 4.43 0 0 0 4.428-4.428v-7.237a4.419 4.419 0 0 0-1.669-3.462v1.339s.057 1.305-.934 2.214c-1.164 1.067-2.206.897-2.206.897h-9.382s-1.093.115-2.206-.897c-.936-.851-.934-2.214-.934-2.214v-1.339Z"/>
		<path id="close" d="m14.586 16-5.293-5.293a1 1 0 0 1 1.414-1.414L16 14.586l5.293-5.293a1 1 0 0 1 1.414 1.414L17.414 16l5.293 5.293a1 1 0 0 1-1.414 1.414L16 17.414l-5.293 5.293a1 1 0 0 1-1.414-1.414L14.586 16Z"/>
		<path id="contents" d="M13.518 9.894a1 1 0 0 1 0-2h11.844a1 1 0 0 1 0 2H13.518Zm-5.38-2.5a1.5 1.5 0 1 1-.001 3.001 1.5 1.5 0 0 1 .001-3.001ZM13.518 17a1 1 0 0 1 0-2h11.844a1 1 0 0 1 0 2H13.518Zm-5.38-2.5a1.5 1.5 0 1 1-.001 3.001 1.5 1.5 0 0 1 .001-3.001Zm5.38 9.606a1 1 0 0 1 0-2h11.844a1 1 0 0 1 0 2H13.518Zm-5.38-2.5a1.5 1.5 0 1 1-.001 3.001 1.5 1.5 0 0 1 .001-3.001Z"/>
		<path id="crossword" d="M27.5 11.8v8.4c0 4.029-3.271 7.3-7.3 7.3h-8.4a7.303 7.303 0 0 1-7.3-7.3v-8.4c0-4.029 3.271-7.3 7.3-7.3h8.4c4.029 0 7.3 3.271 7.3 7.3ZM11.9 6.5c-2.909-.011-5.427 2.244-5.4 5.4h5.4V6.5Zm13.6 5.4c.071-2.775-2.111-5.384-5.4-5.4v5.4h5.4Zm0 7v-5.8h-5.4v5.8h5.4Zm-12.4 6.6h5.8v-5.4h-5.8v5.4Zm-6.6-5.4c.036 2.963 2.069 5.225 5.4 5.4v-5.4H6.5Zm0-7v5.8h5.4v-5.8H6.5Z"/>
		<path id="d6" d="M4.349 12.938a6 6 0 0 1 3.042-5.22l5.651-3.202a5.999 5.999 0 0 1 5.916 0l5.651 3.202a6 6 0 0 1 3.042 5.22v6.244a6 6 0 0 1-3.042 5.22l-5.651 3.202a5.999 5.999 0 0 1-5.916 0l-5.651-3.202a6 6 0 0 1-3.042-5.22v-6.244Zm2.554-2.032a4.01 4.01 0 0 0-.554 2.032v6.244a4 4 0 0 0 2.028 3.48l5.651 3.202c.431.245.897.403 1.372.475V15.784a4.438 4.438 0 0 1-1.535-.508l-5.902-3.245a2.52 2.52 0 0 1-1.06-1.125ZM16.6 26.339c.475-.072.941-.23 1.372-.475l5.651-3.202a4 4 0 0 0 2.028-3.48v-6.244a4.01 4.01 0 0 0-.554-2.032 2.52 2.52 0 0 1-1.06 1.125l-5.902 3.245a4.438 4.438 0 0 1-1.535.508v10.555Zm7.54-16.532a4 4 0 0 0-.517-.349l-5.651-3.202a4 4 0 0 0-3.944 0L8.377 9.458a4 4 0 0 0-.517.349v.033c.005.475.265.911.681 1.139l5.902 3.246c.97.533 2.144.533 3.114 0l5.902-3.246c.416-.228.676-.664.681-1.139v-.033Zm-5.168-.31c.509-.295 1.399-.258 1.987.082.588.34.652.853.143 1.147-.51.295-1.399.258-1.988-.082-.588-.34-.652-.853-.142-1.147Zm-4.35-2.512c.509-.294 1.399-.257 1.987.082.588.34.652.854.143 1.148-.51.294-1.399.257-1.988-.082-.588-.34-.652-.854-.142-1.148Zm-3.724 2.15c.51-.294 1.399-.257 1.988.082.588.34.652.854.142 1.148-.509.294-1.399.257-1.987-.083-.588-.339-.652-.853-.143-1.147Zm4.35 2.511c.51-.294 1.399-.257 1.988.083.588.339.652.853.142 1.147-.509.294-1.399.257-1.987-.082-.588-.34-.652-.854-.143-1.148Zm-.313-2.33c.509-.294 1.399-.258 1.987.082.589.34.653.853.143 1.148-.509.294-1.399.257-1.987-.083-.589-.339-.653-.853-.143-1.147Zm-4.142 8.371c.553.32 1.001 1.13 1.001 1.809 0 .68-.448.972-1.001.653-.553-.319-1.002-1.129-1.002-1.809 0-.68.449-.972 1.002-.653Zm12.587 1.498c.553-.319 1.001-.027 1.001.653s-.448 1.49-1.001 1.809c-.553.319-1.002.027-1.002-.653 0-.679.449-1.489 1.002-1.809Zm-2.249-1.498c.553-.319 1.001-.027 1.001.653s-.448 1.49-1.001 1.809c-.554.319-1.002.027-1.002-.653 0-.679.448-1.489 1.002-1.809Zm-2.25-1.498c.553-.319 1.002-.027 1.002.653s-.449 1.49-1.002 1.809c-.553.319-1.001.027-1.001-.653 0-.679.448-1.489 1.001-1.809Z"/>
		<path id="d20" d="M17.429 28.228a2.9 2.9 0 0 1-2.822-.002l-8.603-4.799a2.902 2.902 0 0 1-1.487-2.555l.076-9.97a2.9 2.9 0 0 1 1.508-2.523l8.528-4.662a2.9 2.9 0 0 1 2.778-.002l8.652 4.712a2.901 2.901 0 0 1 1.513 2.526l.071 9.87a2.899 2.899 0 0 1-1.491 2.556l-8.723 4.849ZM15.627 5.234a1.171 1.171 0 0 0-.135.062l-5.108 2.793 5.243-1.36V5.234Zm-9.256 8.475-.054 7.177a1 1 0 0 0 .008.145l1.791-.973-1.745-6.349Zm19.472 7.116-.05-6.939-1.734 6.001 1.784.938Zm-.351-10.584L17.145 7.94l6.172 10.911 2.387-8.258a1.1 1.1 0 0 0-.212-.352Zm-6.07 14.82 5.856-3.255c.044-.025.086-.052.126-.082l-1.83-.962-4.152 4.299ZM6.508 10.433l2.359 8.586L15.14 7.888l-8.307 2.155a1.111 1.111 0 0 0-.325.39Zm16.107 9.208L16.128 8.173l-6.54 11.604 13.027-.136Zm-9.402-2.295s.625-.662.711-.76c.087-.098.394-.425.391-.825 0-.088-.008-.283-.247-.35-.298-.085-.53.028-.602.04-.225.04-.259-.025-.318-.073-.063-.052-.147-.267.027-.448.043-.044.384-.327 1.005-.325.949.001 1.171.465 1.224.583.052.118.151.424-.014.839-.233.586-1.303 1.487-1.303 1.487h.907s.086-.506.38-.477c.249.024.257.188.26.293l.006.57c0 .072-.017.221-.087.293a.39.39 0 0 1-.293.114h-1.754c-.17 0-.301-.045-.393-.136a.466.466 0 0 1-.139-.347c0-.094.009-.247.239-.478Zm2.677-.814c0-.304.033-1.908 1.666-1.938 1.597-.03 1.58 1.532 1.58 1.851 0 .3-.044 1.922-1.667 1.922s-1.579-1.52-1.579-1.835Zm1.14-.055c0 .214.013 1.119.494 1.119.48 0 .472-.883.472-1.097 0-.217-.013-1.134-.494-1.134s-.472.895-.472 1.112Zm4.877-8.262-5.28-2.876V6.76l5.28 1.455ZM6.892 21.861l6.042 3.371-4.304-4.315-1.738.944Zm9.546 4.85 5.859-6.067-12.397.13 5.997 6.013c.183.02.369-.005.541-.076Z"/>
		<path id="down" d="M23.288 11.298a1 1 0 0 1 1.424 1.404l-7.893 8a1 1 0 0 1-1.414.01l-8.107-8a1 1 0 0 1 1.404-1.424l7.396 7.298 7.19-7.288Z"/>
		<path id="external" d="m24.176 9.086-5.662 5.662a1 1 0 0 1-1.414-1.414L22.933 7.5h-4.717a1 1 0 0 1 0-2h6.96a1 1 0 0 1 1 1v6.711a1 1 0 0 1-2 0V9.086Zm-9.824-1.818a1 1 0 0 1 0 2h-2.358a4.171 4.171 0 0 0-4.17 4.17v6.893a4.171 4.171 0 0 0 4.17 4.169h6.892a4.171 4.171 0 0 0 4.17-4.169v-2.359a1.001 1.001 0 0 1 2 0v2.359a6.172 6.172 0 0 1-6.17 6.169h-6.892a6.172 6.172 0 0 1-6.17-6.169v-6.893a6.173 6.173 0 0 1 6.17-6.17h2.358Z"/>
		<path id="guy" d="M28.405 16.224a1.893 1.893 0 0 0 2.707-1.707 1.892 1.892 0 0 0-3.725-.468l-.539.228c-.143-1.797-.703-5.684-2.184-8.655-1.232-2.471-3.104-4.286-5.712-4.256-1.731.021-2.701.551-3.221 1.214-.565.718-.678 1.685-.439 2.743.346 1.535 1.47 3.312 1.923 4.278.598 1.276.701 1.8.658 1.813-.472.146-2.776.154-3.205-.004-.223-1.472-.897-5.084-2.408-7.45-.986-1.545-2.324-2.569-3.998-2.552-1.655.017-2.646.526-3.223 1.219-.598.719-.797 1.704-.665 2.842.2 1.735 1.2 3.901 1.854 5.622.165.432.119.986.027 1.612-.056.387-.137.795-.228 1.218 0 0-1.424-.525-1.476-.536a1.893 1.893 0 0 0-3.663.665 1.892 1.892 0 0 0 2.903 1.598c.026.012 1.717.641 1.717.641-.034.173-.066.347-.095.521-.355 2.091-.323 4.181.878 5.819.468.638 1.125 1.222 2.035 1.706-1.125.46-3.888 1.773-3.14 3.315.707 1.459 4.731 2.672 5.788 1.833.796-.632 1.369-2.873 1.603-3.939.512.064 1.059.111 1.642.141 3.349.174 5.817-.249 7.637-.999.613.92 1.94 2.763 2.9 3.061 1.289.399 4.601-2.188 4.732-3.804.136-1.682-2.818-1.925-4.069-1.952 1.251-1.713 1.535-3.686 1.556-5.162l1.43-.605Zm-12.06-2.688c1.13-.008 2.437-.023 3.185-.725.383-.36.371-1.055.371-1.055.016-.487-.115-1.391-.877-3.008-.34-.721-1.093-1.919-1.545-3.104-.166-.435-.497-1.413-.159-1.849.256-.33.809-.419 1.655-.429 1.835-.021 3.032 1.41 3.899 3.148 1.501 3.011 1.951 7.056 2.008 8.368.033.748.703 4.019-1.436 6.366-1.46 1.602-4.187 2.696-9.123 2.44-3.347-.173-5.255-.888-6.249-2.028-.668-.767-.865-1.711-.865-2.703 0-1.164.27-2.393.533-3.556.251-1.11.498-2.166.568-3.073.057-.742-.005-1.401-.213-1.948-.6-1.578-1.553-3.55-1.737-5.141-.061-.526-.06-1 .216-1.332.298-.358.853-.49 1.707-.499.615-.006 1.127.282 1.567.713.553.542.995 1.297 1.362 2.114 1.201 2.682 1.558 6.047 1.558 6.047a.998.998 0 0 0 .597.812c.694.3 1.853.45 2.978.442Zm4.433 1.849a1.02 1.02 0 1 0 .002 2.038 1.02 1.02 0 0 0-.002-2.038Zm-8.931-.985a1.018 1.018 0 1 0 0 2.037 1.018 1.018 0 0 0 0-2.037Zm7.555 5.775c.492-.25.719-.868.438-1.345-.345-.584-.843-.608-1.32-.45-.646.214-1.069.272-2.545.208-1.634-.072-2.309-.517-2.309-.517a1 1 0 0 0-1.131 1.65s.95.707 3.309.862c2.539.168 3.558-.408 3.558-.408Z"/>
		<path id="home" d="M27.499 26.21v.003s.003.498-.346.864c-.364.382-.85.385-.85.385h-.01c-1.264.042-6.949.069-10.274-1.751-1.178.686-2.725 1.127-4.292 1.387-2.591.43-5.217.389-6.02.363h-.008s-.509-.013-.851-.383c-.371-.403-.348-.866-.348-.866l-.001-11.399a3.004 3.004 0 0 1 1.126-2.342l9.594-7.675s.327-.274.78-.274c.454 0 .781.274.781.274l9.594 7.675a3 3 0 0 1 1.125 2.342V26.21Zm-9.48-1.763c2.503.966 5.865 1.05 7.481 1.033l-.001-10.667a.999.999 0 0 0-.375-.78l-9.125-7.3-9.124 7.3a1.003 1.003 0 0 0-.376.78L6.5 25.476c1.105.007 3.012-.037 4.9-.351.906-.15 1.811-.357 2.605-.661-1.272-.873-2.481-1.932-3.062-2.974-1.341-2.275-1.124-4.545.223-5.682 1.172-.99 3.32-1.204 4.833.099 1.514-1.303 3.662-1.089 4.834-.099 1.347 1.137 1.564 3.407.223 5.682-.578 1.035-1.774 2.087-3.037 2.957Zm-2.88-6.482c-.674-1.138-2.009-1.198-2.683-.629-.307.259-.43.661-.43 1.115 0 .62.258 1.46.66 2.058.759 1.126 2.011 2.09 3.314 2.865 1.302-.775 2.567-1.74 3.327-2.891.392-.593.646-1.412.646-2.032 0-.454-.123-.856-.43-1.115-.674-.569-2.009-.509-2.683.629a1 1 0 0 1-1.721 0Z"/>
		<path id="link" d="M18.327 22.25a1 1 0 0 1 0-2h2.757c2.429 0 4.416-1.896 4.416-4.25s-1.987-4.25-4.416-4.25h-2.757a1 1 0 0 1 0-2h2.757c3.55 0 6.416 2.809 6.416 6.25s-2.866 6.25-6.416 6.25h-2.757Zm-4.654-12.5a1 1 0 0 1 0 2h-2.757C8.487 11.75 6.5 13.646 6.5 16s1.987 4.25 4.416 4.25h2.757a1 1 0 0 1 0 2h-2.757C7.366 22.25 4.5 19.441 4.5 16s2.866-6.25 6.416-6.25h2.757ZM13.065 17a1 1 0 0 1 0-2h6.632a1.001 1.001 0 0 1 0 2h-6.632Z"/>
		<path id="location" d="M15.415 27.561s-3.33-2.399-5.994-5.678c-1.868-2.299-3.376-5.03-3.376-7.678 0-5.494 4.461-9.955 9.955-9.955s9.955 4.461 9.955 9.955c0 2.648-1.508 5.379-3.376 7.678-2.664 3.279-5.994 5.678-5.994 5.678a1 1 0 0 1-1.17 0ZM16 25.494c1.02-.801 3.192-2.614 5.027-4.872 1.571-1.933 2.928-4.19 2.928-6.417A7.959 7.959 0 0 0 16 6.25a7.959 7.959 0 0 0-7.955 7.955c0 2.227 1.357 4.484 2.928 6.417 1.835 2.258 4.007 4.071 5.027 4.872Zm0-15.508a4.03 4.03 0 0 1 4.029 4.029A4.03 4.03 0 0 1 16 18.043a4.03 4.03 0 0 1-4.029-4.028A4.03 4.03 0 0 1 16 9.986Zm0 1.8a2.23 2.23 0 1 0 .001 4.455A2.23 2.23 0 0 0 16 11.786Z"/>
		<path id="mail" d="M28.674 11.9v8.2a7.154 7.154 0 0 1-7.15 7.15H10.476a7.154 7.154 0 0 1-7.15-7.15v-8.2a7.154 7.154 0 0 1 7.15-7.15h11.048a7.154 7.154 0 0 1 7.15 7.15Zm-23.1-1.582a5.14 5.14 0 0 0-.248 1.582v8.2c0 .433.054.853.155 1.254l5.735-6.736-5.642-4.3Zm20.13-1.425a5.144 5.144 0 0 0-4.18-2.143H10.476c-1.71 0-3.226.835-4.163 2.12l8.369 6.378c.643.49 1.548.501 2.203.027l8.819-6.382Zm.8 12.523c.111-.42.17-.861.17-1.316v-8.2c0-.544-.085-1.068-.241-1.56l-5.75 4.161 5.821 6.915ZM6.203 22.974a5.15 5.15 0 0 0 4.273 2.276h11.048c1.757 0 3.31-.882 4.24-2.228l-6.38-7.581-1.561 1.13a3.47 3.47 0 0 1-4.111-.05l-1.221-.931-6.288 7.384Z"/>
		<path id="meeple" d="M11.468 9.115c.069-2.729 2.107-4.865 4.53-4.865 2.412 0 4.444 2.119 4.528 4.831 1.246.337 3.445 1.05 5.032 2.174 1.38.977 2.289 2.269 2.184 3.798-.064.924-.606 1.609-1.532 2.043-.745.349-1.798.52-2.93.568.912 1.47 2.086 3.514 2.722 5.094.706 1.755.888 2.826.931 3.413 0 0 .055.623-.403 1.112-.479.51-1.08.466-1.081.466l-7.082.001-2.37-3.742-2.371 3.742H6.545s-.675-.005-1.082-.467c-.509-.577-.404-1.103-.403-1.112l.001-.01c.042-.578.224-1.649.93-3.403.636-1.579 1.809-3.621 2.722-5.094-1.13-.049-2.182-.221-2.925-.569-.925-.434-1.466-1.118-1.53-2.042-.104-1.519.795-2.802 2.169-3.773 1.577-1.115 3.768-1.824 5.041-2.165Zm-.593 8.87c-.878 1.365-2.316 3.749-3.028 5.52-.404 1.003-.611 1.732-.712 2.245h5.39l2.216-3.498s.395-.689 1.256-.691a1.465 1.465 0 0 1 1.255.691l2.216 3.498h5.391c-.101-.512-.309-1.241-.712-2.245-.713-1.771-2.151-4.155-3.027-5.518 0 0-.492-.654-.067-1.529.392-.808 1.322-.78 1.323-.78.972.012 1.926-.065 2.659-.269.535-.15.704-.385.711-.493.059-.849-.577-1.486-1.344-2.029-1.498-1.061-3.63-1.681-4.65-1.941 0 0-.511-.078-.893-.585-.373-.495-.33-1.075-.33-1.104 0-1.627-1.097-3.007-2.531-3.007-1.435 0-2.532 1.38-2.532 3.007 0 .037.056.651-.326 1.134-.378.477-.896.588-.896.588l-.002.001c-1.051.266-3.173.882-4.66 1.933-.759.536-1.386 1.164-1.328 2.003.007.108.082.289.709.492.723.234 1.684.281 2.655.27 0 0 .925-.032 1.322.78.45.92-.064 1.524-.065 1.527Z"/>
		<path id="memo" d="M24.673 8.504a6.417 6.417 0 0 1 2.868 5.347v7.228A6.424 6.424 0 0 1 21.12 27.5H10.88a6.424 6.424 0 0 1-6.421-6.421v-7.228a6.42 6.42 0 0 1 3.185-5.545C7.746 6.285 9.341 4.7 11.262 4.7c.938 0 1.8.379 2.447 1.002A3.52 3.52 0 0 1 16.156 4.7c.938 0 1.799.379 2.447 1.002A3.52 3.52 0 0 1 21.049 4.7c1.983 0 3.62 1.69 3.624 3.804ZM9.419 7.598c.47-.11.959-.168 1.461-.168h1.8a3.91 3.91 0 0 1 .119-.356c-.369-.472-.917-.774-1.537-.774-.828 0-1.527.537-1.843 1.298Zm3.683 1.832H10.88a4.423 4.423 0 0 0-4.421 4.421v7.228A4.423 4.423 0 0 0 10.88 25.5h10.24a4.423 4.423 0 0 0 4.421-4.421v-7.228a4.413 4.413 0 0 0-1.448-3.271 3.704 3.704 0 0 1-1.609 1.432 1.46 1.46 0 1 1-1.006-1.338 2.026 2.026 0 0 0 1.257-.939 4.397 4.397 0 0 0-1.615-.305h-1.447c-.274 1.167-1.059 2.116-2.084 2.582a1.46 1.46 0 1 1-1.005-1.338c.634-.149 1.152-.621 1.412-1.244h-3.217c-.272 1.157-1.047 2.101-2.059 2.571l.001.06a1.46 1.46 0 1 1-1.016-1.391c.627-.152 1.139-.622 1.397-1.24Zm4.591-2.356c-.369-.472-.917-.774-1.537-.774-.621 0-1.169.302-1.538.774.045.116.085.235.119.356h2.837a3.91 3.91 0 0 1 .119-.356Zm5.235.615C22.631 6.88 21.909 6.3 21.049 6.3c-.62 0-1.168.302-1.537.774.045.116.085.235.119.356h1.489a6.43 6.43 0 0 1 1.808.259Z"/>
		<path id="next" d="M11.298 8.712a1 1 0 0 1 1.404-1.424l8 7.893a1 1 0 0 1 .01 1.414l-8 8.107a1 1 0 0 1-1.424-1.404l7.298-7.396-7.288-7.19Z"/>
		<path id="note" d="M27.501 11.8v8.4c0 4.029-3.271 7.3-7.3 7.3h-8.4a7.303 7.303 0 0 1-7.3-7.3v-8.4c0-4.029 3.271-7.3 7.3-7.3h8.4c4.029 0 7.3 3.271 7.3 7.3Zm-9.016 13.686 1.716.014c2.925 0 5.3-2.375 5.3-5.3v-8.4c0-2.925-2.375-5.3-5.3-5.3h-8.4a5.302 5.302 0 0 0-5.3 5.3v5.749c.009.115.099.696.896.467l2.068-.739c1.16-.414 2.445.15 2.904 1.275l1.81 4.429c1.047 2.172 1.788 2.409 4.306 2.505ZM6.501 19.612v.588c0 2.925 2.374 5.3 5.3 5.3h2.251l-7.551-5.888Z"/>
		<path id="pencil" d="M25.007 16.244c.313.313.513.721.57 1.159l.981 7.627s.135.69-.427 1.252c-.552.552-1.252.427-1.252.427l-7.63-.981a2.001 2.001 0 0 1-1.159-.569l-9.785-9.78a4.002 4.002 0 0 1 0-5.658l3.26-3.259a4.001 4.001 0 0 1 5.656 0l9.786 9.782Zm-9.11-6.277-1.523-1.523-6.089 6.086 1.524 1.523 6.088-6.086Zm7.15 7.146-6.301-6.298-6.089 6.086 6.302 6.298 6.088-6.086Zm1.156 5.285-.541-4.202-5.62 5.618 4.204.54 1.957-1.956Z"/>
		<path id="shop" d="M21.008 8.655a7.999 7.999 0 0 1 6.362 8.701l-.546 5.04a6 6 0 0 1-5.965 5.354h-9.718a6 6 0 0 1-5.965-5.354l-.546-5.04a7.997 7.997 0 0 1 6.363-8.701 5.01 5.01 0 0 1 5.005-4.805h.004a5.01 5.01 0 0 1 5.006 4.805Zm-10.02 2.056a6 6 0 0 0-4.37 6.43l.546 5.04a4 4 0 0 0 3.977 3.569h9.718a4 4 0 0 0 3.977-3.569l.546-5.04a6.002 6.002 0 0 0-4.37-6.43v1.733a1.725 1.725 0 1 1-1.8 0v-1.949h-6.424v1.949a1.726 1.726 0 1 1-1.8 0v-1.733Zm8.203-2.216a3.21 3.21 0 0 0-3.189-2.845h-.004a3.21 3.21 0 0 0-3.189 2.845h6.382Z"/>
		<path id="up" d="M8.712 20.702a1 1 0 0 1-1.424-1.404l7.893-8a1 1 0 0 1 1.414-.01l8.107 8a1 1 0 0 1-1.404 1.424l-7.396-7.298-7.19 7.288Z"/>
		<path id="work" d="M22.293 8.684a6.2 6.2 0 0 1 5.9 6.19v6.929A6.2 6.2 0 0 1 21.996 28H10.448a6.2 6.2 0 0 1-6.197-6.197s.043 0 0-6.929c-.017-2.651 1.959-6.197 6.389-6.197V6.148c0-1.184.964-2.148 2.155-2.148h7.343c1.191 0 2.155.964 2.155 2.148v2.536Zm-9.653-.007h7.653V6.498a.5.5 0 0 0-.501-.5L13.179 6a.538.538 0 0 0-.539.538v2.139Zm13.553 8.53v-2.333a4.2 4.2 0 0 0-4.197-4.197H10.448a4.199 4.199 0 0 0-4.197 4.197v2.333c.565 1.494 2.261 2.064 4.197 2.064h5.019V18.05a1 1 0 0 1 2 0v1.221h4.529c1.936 0 3.631-.57 4.197-2.064ZM6.251 19.753v2.05A4.199 4.199 0 0 0 10.448 26h11.548a4.2 4.2 0 0 0 4.197-4.197v-2.05c-1.075.761-2.549 1.118-4.197 1.118h-4.529v.932a1.001 1.001 0 0 1-2 0v-.932h-5.019c-1.648 0-3.123-.357-4.197-1.118Z"/>
	</defs>
</svg>