<svg xmlns="http://www.w3.org/2000/svg" viewBox="0 0 32 32" >
    <defs>
        <style>g { display: none; } g:target { display: inline; }</style>
        <path id="bluesky" d="M15.999 11.588c1.26-1.781 2.902-3.698 4.463-4.874.937-.706 2.134-1.315 3.189-1.512.612-.114 1.634-.117 2.344.242C27.332 6.123 28 7.389 28 9.169c0 .669-.405 5.617-.629 6.422-.392 1.406-1.156 2.441-2.141 3.152.228.377.386.77.479 1.167.326 1.385-.072 3.038-1.608 4.619-2.342 2.412-4.326 2.608-5.771 2.165-.909-.279-1.697-.864-2.33-1.627-.633.763-1.421 1.348-2.33 1.627-1.445.443-3.429.247-5.771-2.165-1.536-1.581-1.934-3.233-1.608-4.619a4.03 4.03 0 0 1 .478-1.166c-.984-.712-1.747-1.747-2.14-3.153C4.405 14.786 4 9.838 4 9.169c0-1.78.72-3.144 2.005-3.725.824-.372 1.732-.356 2.344-.242 1.056.197 2.252.806 3.19 1.512 1.558 1.174 3.198 3.088 4.46 4.874Zm.265 9.732c.639 1.925 2.511 5.822 6.403 1.816 1.869-1.925 1.438-3.849-1.157-4.819a.189.189 0 0 1 .064-.361c1.74-.138 3.335-.985 3.87-2.903.206-.736.556-5.271.556-5.884 0-3.068-2.681-2.104-4.335-.858-2.096 1.579-4.337 4.641-5.399 6.59a.299.299 0 0 1-.533 0c-1.061-1.949-3.302-5.011-5.398-6.59C8.681 7.065 6 6.101 6 9.169c0 .613.35 5.148.556 5.884.535 1.918 2.13 2.765 3.869 2.909a.183.183 0 0 1 .064.351c-2.594.974-3.025 2.898-1.156 4.823 3.892 4.006 5.764.109 6.404-1.816a.278.278 0 0 1 .527 0Z"/>
        <path id="facebook" d="M16 4.25c6.485 0 11.75 5.265 11.75 11.75S22.485 27.75 16 27.75 4.25 22.485 4.25 16 9.515 4.25 16 4.25Zm.521 21.486c5.139-.271 9.229-4.529 9.229-9.736 0-5.381-4.369-9.75-9.75-9.75S6.25 10.619 6.25 16c0 4.878 3.59 8.925 8.271 9.638v-7.195h-1.596a1.001 1.001 0 0 1 0-2h1.596v-2.366c.06-1.518.572-2.588 1.362-3.218.807-.644 1.956-.886 3.429-.525a1 1 0 0 1-.475 1.942c-.727-.178-1.308-.171-1.706.146-.413.329-.578.926-.61 1.714v2.307h1.878a1 1 0 0 1 0 2h-1.878v7.293Z"/>
        <path id="instagram" d="M27.5 11.8v8.4c0 4.029-3.271 7.3-7.3 7.3h-8.4a7.303 7.303 0 0 1-7.3-7.3v-8.4c0-4.029 3.271-7.3 7.3-7.3h8.4c4.029 0 7.3 3.271 7.3 7.3Zm-2 0c0-2.925-2.375-5.3-5.3-5.3h-8.4a5.303 5.303 0 0 0-5.3 5.3v8.4c0 2.925 2.375 5.3 5.3 5.3h8.4c2.925 0 5.3-2.375 5.3-5.3v-8.4Zm-1.844-2.009a1.531 1.531 0 1 1-3.063.001 1.531 1.531 0 0 1 3.063-.001Zm-1.852 6.125a5.814 5.814 0 0 1-5.812 5.812 5.815 5.815 0 0 1-5.813-5.812 5.816 5.816 0 0 1 5.813-5.813 5.815 5.815 0 0 1 5.812 5.813Zm-2 0a3.815 3.815 0 0 0-3.812-3.813 3.815 3.815 0 0 0-3.813 3.813 3.814 3.814 0 0 0 7.625 0Z"/>
        <path id="kickstarter" d="M16.001 6.211c2.391-2.29 6.237-2.272 8.605.054a5.983 5.983 0 0 1 0 8.557l-1.202 1.181 1.201 1.174.001.001a5.983 5.983 0 0 1 0 8.557c-2.368 2.326-6.214 2.344-8.605.054a6.148 6.148 0 0 1-4.277 1.711c-3.39 0-6.13-2.71-6.13-6.038V10.538c0-3.329 2.74-6.038 6.13-6.038 1.67 0 3.173.652 4.277 1.711Zm-8.407 4.327v10.924c0 2.234 1.855 4.038 4.13 4.038a4.152 4.152 0 0 0 3.403-1.747 1.001 1.001 0 0 1 1.517-.136l.703.691c1.614 1.586 4.244 1.586 5.858 0a3.988 3.988 0 0 0 .001-5.702l-1.93-1.886a.997.997 0 0 1-.002-1.429l1.931-1.896a3.988 3.988 0 0 0 0-5.703c-1.614-1.586-4.244-1.586-5.858 0l-.703.69a.999.999 0 0 1-1.517-.135A4.15 4.15 0 0 0 11.724 6.5c-2.275 0-4.13 1.804-4.13 4.038Z"/>
        <path id="patreon" d="M26.89 11.708c.005 3.643-2.371 6.408-5.882 7.27-1.533.377-2.805.689-3.772 1.976-.763 1.015-1.255 2.582-1.98 3.885-.931 1.671-2.195 2.937-4.31 2.911-2.248-.029-3.725-1.546-4.605-3.695-1.125-2.751-1.251-6.556-1.229-8.478.047-4.098 1.387-8.163 5.392-10.039 3.211-1.503 7.644-1.668 11.006-.588 2.926.94 5.376 3.58 5.38 6.758Zm-2 .002c-.003-2.312-1.862-4.172-3.992-4.856-2.915-.936-6.761-.809-9.545.495C8.092 8.876 7.15 12.264 7.112 15.6c-.02 1.744.059 5.201 1.08 7.698.552 1.349 1.368 2.434 2.779 2.452 1.285.016 1.972-.869 2.538-1.884.77-1.384 1.318-3.036 2.128-4.114 1.271-1.692 2.879-2.221 4.894-2.716 2.584-.635 4.363-2.644 4.359-5.326Z"/>
        <path id="pictoplasma" d="M16 4.5c6.485 0 11.75 5.265 11.75 11.75S22.485 28 16 28 4.25 22.735 4.25 16.25 9.515 4.5 16 4.5Zm0 2c-5.381 0-9.75 4.369-9.75 9.75S10.619 26 16 26s9.75-4.369 9.75-9.75S21.381 6.5 16 6.5Zm-6.108 9.218a1.345 1.345 0 0 1 0 2.688 1.344 1.344 0 0 1 0-2.688Zm12.187 0a1.345 1.345 0 1 1-1.344 1.344c0-.741.602-1.344 1.344-1.344Zm-8.695 4.451a1 1 0 0 1 .967-1.751c1.084.599 2.169.589 3.254-.002a1 1 0 0 1 .957 1.756c-1.726.941-3.452.95-5.178-.003Z"/>
        <path id="pinterest" d="M13.958 25.536c.659.14 1.342.214 2.042.214 5.381 0 9.75-4.369 9.75-9.75S21.381 6.25 16 6.25 6.25 10.619 6.25 16a9.732 9.732 0 0 0 3.402 7.398 1.001 1.001 0 0 1-1.304 1.517A11.728 11.728 0 0 1 4.25 16C4.25 9.515 9.515 4.25 16 4.25S27.75 9.515 27.75 16 22.485 27.75 16 27.75c-1.108 0-2.174-.126-3.248-.391-.752-.185-1.057-.692-.955-1.235.431-2.295 1.175-4.733 1.802-6.83-.649-1.579-.618-3.441-.029-4.5.444-.801 1.145-1.304 2.152-1.013.945.274.924 1.053.924 1.053.019.626-.159 1.576-.467 2.731a57.69 57.69 0 0 1-.438 1.539c.439.694 1.119 1.197 2.076 1.06.665-.095 1.208-.536 1.624-1.17.507-.775.822-1.824.919-3.022.177-2.186-1.303-3.817-3.796-4.115-1.659-.199-3.624.618-4.457 2.24-.965 1.88-.26 3.315.429 4.416a1 1 0 0 1-1.695 1.062c-.996-1.592-1.908-3.675-.513-6.391 1.214-2.365 4.055-3.603 6.474-3.313 3.726.446 5.796 2.993 5.551 6.263-.258 3.461-1.998 5.688-4.253 6.01-1.227.176-2.241-.162-3.029-.799-.399 1.351-.803 2.784-1.113 4.191Z"/>
        <path id="threads" d="M21.336 17.237c-.234 1.775-1.087 4.644-4.754 4.886-2.591.171-4.725-1.455-4.809-3.638-.14-2.271 1.811-4.32 5.486-4.198a12.14 12.14 0 0 1 2.08.179c-.104-.45-.176-2.678-3.016-2.72-.899-.014-1.672.267-2.229.821a1.001 1.001 0 0 1-1.412-1.417c.922-.918 2.184-1.415 3.686-1.404h.011c1.434.044 2.46.446 3.202 1.036 1.248.992 1.718 2.414 1.812 4.262 1.472.611 2.702 1.622 3.359 3.122l.001.003c.757 1.764.843 4.648-1.458 6.962-1.71 1.888-4.694 2.765-7.633 2.599-2.934-.167-5.778-1.373-7.23-3.419-1.566-1.835-2.401-5.066-2.401-8.314 0-3.259.842-6.503 2.412-8.326 1.753-2.221 4.38-3.397 7.837-3.421h.005c4.814.015 8.131 2.29 9.625 6.442a1 1 0 0 1-1.882.677c-1.198-3.328-3.887-5.106-7.744-5.119-2.755.02-4.75.876-6.293 2.688-1.303 1.531-1.96 4.313-1.96 7.059 0 2.746.657 5.433 1.979 7.081 1.377 1.718 3.454 2.524 5.766 2.655 2.316.131 4.423-.395 6.045-1.954 1.628-1.566 1.626-3.629 1.096-4.818-.343-.768-.898-1.317-1.581-1.724Zm-1.935-.74a10.736 10.736 0 0 0-2.165-.21h-.017c-2.151-.075-3.535.756-3.448 2.094v.016c.04 1.159 1.31 1.822 2.687 1.729h.007c2.411-.051 2.821-2.208 2.935-3.606l.001-.023Z"/>
        <path id="twitter" d="m14.586 18.828-7.679 7.679a1 1 0 0 1-1.414-1.414l7.679-7.679-6.695-6.695a3 3 0 0 1 4.242-4.242l6.695 6.695 7.679-7.679a1 1 0 0 1 1.414 1.414l-7.679 7.679 6.695 6.695a3 3 0 0 1-4.242 4.242l-6.695-6.695ZM7.891 9.305l14.804 14.804a1 1 0 0 0 1.414-1.414L9.305 7.891a1 1 0 0 0-1.414 1.414Z"/>
        <path id="youtube" d="M26.366 9.41c.856 3.222.806 9.877.023 13.149a.54.54 0 0 1-.011.043c-.407 1.419-1.585 2.54-3.107 2.924l-.02.004c-3.392.783-11.309.69-14.505.004l-.032-.008c-1.522-.379-2.698-1.502-3.109-2.921l-.007-.024C4.79 19.51 4.842 12.45 5.577 9.446a.532.532 0 0 1 .01-.038c.407-1.419 1.585-2.54 3.107-2.924l.053-.012c4.523-.88 12.819-.566 14.543.006 1.503.388 2.662 1.504 3.07 2.911l.006.021Zm-1.93.525-.002-.006c-.223-.747-.863-1.32-1.667-1.521a1.061 1.061 0 0 1-.096-.029c-1.504-.542-9.272-.766-13.522.054-.788.21-1.415.772-1.639 1.526-.669 2.797-.721 9.265.022 12.111.224.74.856 1.309 1.658 1.514 3.017.639 10.413.731 13.61-.002.794-.206 1.429-.771 1.654-1.527.714-3.038.768-9.147-.018-12.12Zm-4.714 7.763-5.106 2.564a1.9 1.9 0 0 1-2.752-1.697v-5.13a1.9 1.9 0 0 1 2.752-1.697l5.106 2.564a1.901 1.901 0 0 1 0 3.396Zm-.808-1.609a.099.099 0 0 0 .055-.089.099.099 0 0 0-.055-.089l-5.106-2.565a.099.099 0 0 0-.144.089v5.13a.099.099 0 0 0 .144.089l5.106-2.565Z"/>
    </defs>
</svg>
