<svg xmlns="http://www.w3.org/2000/svg" xml:space="preserve" style="fill-rule:evenodd;clip-rule:evenodd;stroke-linecap:round;stroke-linejoin:round;stroke-miterlimit:1.5" viewBox="0 0 160 160"><path d="M0 0h160v160H0z" style="fill:#ced926"/><path d="m47.72 115.878 3.336 1.697s-.123-1.149 1.229-.794.141 1.689.141 1.689 2.1-.216 1.532 1.276c-.568 1.492-2.092-.047-2.092-.047s.066 1.656-1.328 1.13c-1.395-.525-.046-1.839-.046-1.839l-3.606-1.942M36.171 151.603c.082.45 2.246 5.637 2.432 5.99 2.931.467 7.477-2.719 7.711-3.723.048-.206.593-1.715-.956-2.348-1.239-.507-2.137-.056-3.945.606-.957-1.446-1.611-2.504-1.747-2.724" style="fill:#87e8e9;stroke:#000;stroke-width:.59px"/><path d="M46.617 141.67c-2.41 13.371-31.192 19.586-32.767-10.927-3.088-59.84 30.959-61.382 41.999-46.613 1.886 2.524 9.512 19.949-.866 28.085-4.522 3.546-11.351 5.77-10.471 18.731.2 2.953 3.098 5.215 2.105 10.724Z" style="fill:#87e8e9"/><clipPath id="a"><path d="M46.617 141.67c-2.41 13.371-31.192 19.586-32.767-10.927-3.088-59.84 30.959-61.382 41.999-46.613 1.886 2.524 9.512 19.949-.866 28.085-4.522 3.546-11.351 5.77-10.471 18.731.2 2.953 3.098 5.215 2.105 10.724Z"/></clipPath><g clip-path="url(#a)"><path d="M52.777 83.33c3.511 3.544 4.25.473 3.921-.943-1.695-7.3-17.817-13.66-27.495-9.48-1.913.826-5.658-1.075-8.759 8.78-.1.319-.989 3.143.926 4.073 3.304 1.602 7.801-2.897 8.066-3.111-.114.27-1.25 2.968 1.052 3.51 1.753.413 3.418-3.176 3.588-3.541 1.08 5.562 5.727 4.428 6.372.045.156.333 1.409 3.007 3.579 2.889 1.153-.063 2.049-3.162 2.14-3.475.362.398 6.984 7.666 6.61 1.253Z" style="fill:#b2a8fb;stroke:#000;stroke-width:.59px;stroke-miterlimit:3"/><path d="M23.022 119.015c-2.859 4.793-11.411 7.704-13.858 2.041-2.297-5.317 2.428-10.849 8.036-11.286 5.512-.429 7.334 6.711 5.822 9.245Zm6.97 14.501c-1.6 1.935-8.486-.154-4.721-6.155 1.834-2.922 9.108.849 4.721 6.155Zm11.439-.358c-3.37-2.534.195-8.939 4.818-6.346 4.517 2.535.067 10.018-4.818 6.346ZM33.65 140.8c-.97 1.487-4.708-.534-3.392-2.495 1.353-2.015 4.887.202 3.392 2.495Zm-13.463 5.325c-6.294 6.528-11.215-1.482-5.678-6.076 3.399-2.821 10.061 1.532 5.678 6.076Zm14.372-29.458c-1.468.796-5.197-1.743-1.809-4.522 1.433-1.175 5.413 2.566 1.809 4.522Zm-9.889-14.465c-1.528 1.359-3.444-.509-1.883-2.45 1.155-1.435 3.962.6 1.883 2.45Zm20.707 44.038c-.242.308-.042 1.124-1.45 2.507-.182.179-1.196 1.175-3.194.065-2.107-1.171-.876-9.85 4.644-2.572Z" style="fill:#3cc4d3;stroke:#000;stroke-width:.59px;stroke-miterlimit:3"/></g><path d="M46.617 141.67c-2.41 13.371-31.192 19.586-32.767-10.927-3.088-59.84 30.959-61.382 41.999-46.613 1.886 2.524 9.512 19.949-.866 28.085-4.522 3.546-11.351 5.77-10.471 18.731.2 2.953 3.098 5.215 2.105 10.724Z" style="fill:none;stroke:#000;stroke-width:.59px;stroke-miterlimit:3"/><path d="M32.868 90.172c-1.4.974-1.511 1.037-3.095.434" style="fill:none;stroke:#000;stroke-width:.59px;stroke-miterlimit:3"/><path d="M45.679 93.601c-4.577 1.238-6.163-4.937-3.138-6.071 4.353-1.632 6.502 5.16 3.138 6.071Z" style="fill:#fff;stroke:#000;stroke-width:.59px"/><path d="M51.761 94.085c-4.341 1.16-5.845-4.622-2.976-5.684 4.128-1.528 6.166 4.832 2.976 5.684Z" style="fill:#fff;stroke:#000;stroke-width:.59px"/><path d="M49.781 92.062c-.589-.186-.973-.983-.013-1.27.501-.15.888.37.916.746.035.479-.541.639-.903.524ZM44.762 91.382c-.589-.186-.973-.984-.013-1.271.501-.15.888.37.916.746.035.48-.541.639-.903.525Z"/><path d="M49.088 101.331c.005.426.046 4.412-2.608 4.653-1.38.126-3.065-1.1-1.954-5.176" style="fill:#ff8b8b;stroke:#000;stroke-width:.59px;stroke-miterlimit:3"/><path d="M55.87 99.245c-4.892 4.034-21.128 1.771-24.098-8.226" style="fill:none;stroke:#000;stroke-width:.59px;stroke-miterlimit:3"/><path d="M46.812 101.184c.002.012.168.557-.188 1.79" style="fill:none;stroke:#000;stroke-width:.59px;stroke-miterlimit:3"/><path d="M23.808 149.111c-.339.306-3.616 4.873-3.819 5.217 1.142 2.738 6.242 4.933 7.219 4.604.2-.067 1.77-.395 1.495-2.047-.219-1.319-1.074-1.847-2.587-3.038.727-1.574 1.284-2.686 1.399-2.917M42.823 118.016l2.888 2.38s.129-1.148 1.372-.508c1.244.64-.229 1.679-.229 1.679s2.098.245 1.22 1.578c-.878 1.333-2.032-.499-2.032-.499s-.295 1.63-1.542.815c-1.247-.816.354-1.806.354-1.806l-3.099-2.677" style="fill:#87e8e9;stroke:#000;stroke-width:.59px"/><path d="m33.512 78.076-.225-2.551s-11.632 1.309-11.259 3.715c.283 1.829 11.484-1.164 11.484-1.164Z" style="fill:#6468bd;stroke:#000;stroke-width:.59px"/><path d="M33.046 78.237c4.59-.699 4.59-.487 9.225-1.004.19-.022 1.29-.351 2.605-.249.626-5.755-2.252-13.729-8.875-13.188-6.664.545-3.351 12.711-2.955 14.441Z" style="fill:#6468bd"/><clipPath id="b"><path d="M33.046 78.237c4.59-.699 4.59-.487 9.225-1.004.19-.022 1.29-.351 2.605-.249.626-5.755-2.252-13.729-8.875-13.188-6.664.545-3.351 12.711-2.955 14.441Z"/></clipPath><g clip-path="url(#b)"><path d="M46.345 71.22c-.928-2.397-1.217-3.306-2.673-4.02-3.354-1.646-2.519 2.039-5.563 2.59-2.034.368-3.87-3.274-7.337-3.436-2.621-.122-2.298 2.921-2.042 6.016 3.56-1.689 5.639 4.059 10.305 2.741 1.627-.46 3.14-2.673 4.119-3.314.9-.589 1.208-.323 3.191-.577Z" style="fill:#daea1a;stroke:#000;stroke-width:.59px"/></g><path d="M33.046 78.237c4.59-.699 4.59-.487 9.225-1.004.19-.022 1.29-.351 2.605-.249.626-5.755-2.252-13.729-8.875-13.188-6.664.545-3.351 12.711-2.955 14.441Z" style="fill:none;stroke:#000;stroke-width:.59px"/><path d="M35.763 61.028c-1.342 1.179-1.178 2.874 2.151 2.763 1.161-.039 1.338-1.41.883-2.243-.485-.89-1.898-1.518-3.034-.52Z" style="fill:#eaa11a;stroke:#000;stroke-width:.59px"/><path d="M56.082 98.079c-.014-.031-.46 1.269.54 2.547" style="fill:none;stroke:#000;stroke-width:.59px;stroke-miterlimit:3"/></svg>