<svg xmlns="http://www.w3.org/2000/svg" xml:space="preserve" style="fill-rule:evenodd;clip-rule:evenodd;stroke-linecap:round;stroke-linejoin:round;stroke-miterlimit:1.5" viewBox="0 0 160 160"><path d="M0 0h160v160H0z" style="fill:#26d9b9"/><path d="m47.72 115.878 3.336 1.697s-.123-1.149 1.229-.794.141 1.689.141 1.689 2.1-.216 1.532 1.276c-.568 1.492-2.092-.047-2.092-.047s.066 1.656-1.328 1.13c-1.395-.525-.046-1.839-.046-1.839l-3.606-1.942M36.171 151.603c.082.45 2.246 5.637 2.432 5.99 2.931.467 7.477-2.719 7.711-3.723.048-.206.593-1.715-.956-2.348-1.239-.507-2.137-.056-3.945.606-.957-1.446-1.611-2.504-1.747-2.724" style="fill:#87e8e9;stroke:#000;stroke-width:.59px"/><path d="M46.617 141.67c-2.41 13.371-31.192 19.586-32.767-10.927-3.088-59.84 30.959-61.382 41.999-46.613 1.886 2.524 9.512 19.949-.866 28.085-4.522 3.546-11.351 5.77-10.471 18.731.2 2.953 3.098 5.215 2.105 10.724Z" style="fill:#87e8e9"/><clipPath id="a"><path d="M46.617 141.67c-2.41 13.371-31.192 19.586-32.767-10.927-3.088-59.84 30.959-61.382 41.999-46.613 1.886 2.524 9.512 19.949-.866 28.085-4.522 3.546-11.351 5.77-10.471 18.731.2 2.953 3.098 5.215 2.105 10.724Z"/></clipPath><g clip-path="url(#a)"><path d="M52.777 83.33c3.511 3.544 4.25.473 3.921-.943-1.695-7.3-17.817-13.66-27.495-9.48-1.913.826-5.658-1.075-8.759 8.78-.1.319-.989 3.143.926 4.073 3.304 1.602 7.801-2.897 8.066-3.111-.114.27-1.25 2.968 1.052 3.51 1.753.413 3.418-3.176 3.588-3.541 1.08 5.562 5.727 4.428 6.372.045.156.333 1.409 3.007 3.579 2.889 1.153-.063 2.049-3.162 2.14-3.475.362.398 6.984 7.666 6.61 1.253Z" style="fill:#b2a8fb;stroke:#000;stroke-width:.59px;stroke-miterlimit:3"/><path d="M23.022 119.015c-2.859 4.793-11.411 7.704-13.858 2.041-2.297-5.317 2.428-10.849 8.036-11.286 5.512-.429 7.334 6.711 5.822 9.245Zm6.97 14.501c-1.6 1.935-8.486-.154-4.721-6.155 1.834-2.922 9.108.849 4.721 6.155Zm11.439-.358c-3.37-2.534.195-8.939 4.818-6.346 4.517 2.535.067 10.018-4.818 6.346ZM33.65 140.8c-.97 1.487-4.708-.534-3.392-2.495 1.353-2.015 4.887.202 3.392 2.495Zm-13.463 5.325c-6.294 6.528-11.215-1.482-5.678-6.076 3.399-2.821 10.061 1.532 5.678 6.076Zm14.372-29.458c-1.468.796-5.197-1.743-1.809-4.522 1.433-1.175 5.413 2.566 1.809 4.522Zm-9.889-14.465c-1.528 1.359-3.444-.509-1.883-2.45 1.155-1.435 3.962.6 1.883 2.45Zm20.707 44.038c-.242.308-.042 1.124-1.45 2.507-.182.179-1.196 1.175-3.194.065-2.107-1.171-.876-9.85 4.644-2.572Z" style="fill:#3cc4d3;stroke:#000;stroke-width:.59px;stroke-miterlimit:3"/></g><path d="M46.617 141.67c-2.41 13.371-31.192 19.586-32.767-10.927-3.088-59.84 30.959-61.382 41.999-46.613 1.886 2.524 9.512 19.949-.866 28.085-4.522 3.546-11.351 5.77-10.471 18.731.2 2.953 3.098 5.215 2.105 10.724Z" style="fill:none;stroke:#000;stroke-width:.59px;stroke-miterlimit:3"/><path d="M32.868 90.172c-1.4.974-1.511 1.037-3.095.434" style="fill:none;stroke:#000;stroke-width:.59px;stroke-miterlimit:3"/><path d="M45.679 93.601c-4.577 1.238-6.163-4.937-3.138-6.071 4.353-1.632 6.502 5.16 3.138 6.071Z" style="fill:#fff;stroke:#000;stroke-width:.59px"/><path d="M51.761 94.085c-4.341 1.16-5.845-4.622-2.976-5.684 4.128-1.528 6.166 4.832 2.976 5.684Z" style="fill:#fff;stroke:#000;stroke-width:.59px"/><path d="M49.781 92.062c-.589-.186-.973-.983-.013-1.27.501-.15.888.37.916.746.035.479-.541.639-.903.524ZM44.762 91.382c-.589-.186-.973-.984-.013-1.271.501-.15.888.37.916.746.035.48-.541.639-.903.525Z"/><path d="M49.088 101.331c.005.426.046 4.412-2.608 4.653-1.38.126-3.065-1.1-1.954-5.176" style="fill:#ff8b8b;stroke:#000;stroke-width:.59px;stroke-miterlimit:3"/><path d="M55.87 99.245c-4.892 4.034-21.128 1.771-24.098-8.226" style="fill:none;stroke:#000;stroke-width:.59px;stroke-miterlimit:3"/><path d="M46.812 101.184c.002.012.168.557-.188 1.79" style="fill:none;stroke:#000;stroke-width:.59px;stroke-miterlimit:3"/><path d="M23.808 149.111c-.339.306-3.616 4.873-3.819 5.217 1.142 2.738 6.242 4.933 7.219 4.604.2-.067 1.77-.395 1.495-2.047-.219-1.319-1.074-1.847-2.587-3.038.727-1.574 1.284-2.686 1.399-2.917M42.823 118.016l2.888 2.38s.129-1.148 1.372-.508c1.244.64-.229 1.679-.229 1.679s2.098.245 1.22 1.578c-.878 1.333-2.032-.499-2.032-.499s-.295 1.63-1.542.815c-1.247-.816.354-1.806.354-1.806l-3.099-2.677" style="fill:#87e8e9;stroke:#000;stroke-width:.59px"/><path d="m33.512 78.076-.225-2.551s-11.632 1.309-11.259 3.715c.283 1.829 11.484-1.164 11.484-1.164Z" style="fill:#6468bd;stroke:#000;stroke-width:.59px"/><path d="M33.046 78.237c4.59-.699 4.59-.487 9.225-1.004.19-.022 1.29-.351 2.605-.249.626-5.755-2.252-13.729-8.875-13.188-6.664.545-3.351 12.711-2.955 14.441Z" style="fill:#6468bd"/><clipPath id="b"><path d="M33.046 78.237c4.59-.699 4.59-.487 9.225-1.004.19-.022 1.29-.351 2.605-.249.626-5.755-2.252-13.729-8.875-13.188-6.664.545-3.351 12.711-2.955 14.441Z"/></clipPath><g clip-path="url(#b)"><path d="M46.345 71.22c-.928-2.397-1.217-3.306-2.673-4.02-3.354-1.646-2.519 2.039-5.563 2.59-2.034.368-3.87-3.274-7.337-3.436-2.621-.122-2.298 2.921-2.042 6.016 3.56-1.689 5.639 4.059 10.305 2.741 1.627-.46 3.14-2.673 4.119-3.314.9-.589 1.208-.323 3.191-.577Z" style="fill:#daea1a;stroke:#000;stroke-width:.59px"/></g><path d="M33.046 78.237c4.59-.699 4.59-.487 9.225-1.004.19-.022 1.29-.351 2.605-.249.626-5.755-2.252-13.729-8.875-13.188-6.664.545-3.351 12.711-2.955 14.441Z" style="fill:none;stroke:#000;stroke-width:.59px"/><path d="M35.763 61.028c-1.342 1.179-1.178 2.874 2.151 2.763 1.161-.039 1.338-1.41.883-2.243-.485-.89-1.898-1.518-3.034-.52Z" style="fill:#eaa11a;stroke:#000;stroke-width:.59px"/><path d="M56.082 98.079c-.014-.031-.46 1.269.54 2.547" style="fill:none;stroke:#000;stroke-width:.59px;stroke-miterlimit:3"/><path d="M41.591 39.262c-.039-.07-.549-.535.035-1.664-.911-.209-9.307-2.136-8.644 7.869.319 4.814 5.281 3.836 7.114 3.713.189-1.349.161-1.331.156-2.701-1.496.747-5.827.327-5.239-3.848.479-3.402 2.383-3.738 6.578-3.369ZM60.112 39.252c.039-.07.549-.535-.035-1.664.911-.209 9.307-2.136 8.644 7.869-.319 4.814-5.281 3.836-7.114 3.713-.189-1.349-.161-1.331-.156-2.7 1.496.746 5.827.326 5.239-3.849-.479-3.402-2.383-3.738-6.578-3.369Z" style="fill:#6994da;fill-rule:nonzero;stroke:#000;stroke-width:.54px;stroke-miterlimit:3"/><path d="M40.606 55.332c7.233 5.679 18.634 3.101 20.131 1.132 4.677-6.155.534-24.449-2.164-25.822-.732-.372-12.848-3.275-15.247 1.438-2.774 5.448-5.624 20.972-2.72 23.252Z" style="fill:#6994da;fill-rule:nonzero;stroke:#000;stroke-width:.54px;stroke-miterlimit:3"/><path d="M47.932 29.801c-.517.227.548 4.149-5.159 4.089" style="fill:none;fill-rule:nonzero;stroke:#000;stroke-width:.54px;stroke-miterlimit:3"/><path d="M42.081 35.915c.342.353 3.629.183 5.051-1.033 1.869-1.601 2.195-4.808 2.241-5.263" style="fill:none;fill-rule:nonzero;stroke:#000;stroke-width:.54px;stroke-miterlimit:3"/><path d="M50.937 29.551c-1.013 3.629.527 7.988-9.676 9.371" style="fill:none;fill-rule:nonzero;stroke:#000;stroke-width:.54px;stroke-miterlimit:3"/><path d="M52.435 29.855c.163-.035-.58 4.457-.644 4.842-.184 1.113-.811 4.902-11.587 8.035" style="fill:none;fill-rule:nonzero;stroke:#000;stroke-width:.54px;stroke-miterlimit:3"/><path d="M47.675 45.45c4.162 1.121 5.604-4.469 2.853-5.496-3.958-1.477-5.912 4.672-2.853 5.496Z" style="fill:#fff;stroke:#000;stroke-width:.54px"/><path d="M53.48 44.947c4.161 1.127 5.604-4.489 2.853-5.52-3.958-1.484-5.913 4.693-2.853 5.52Z" style="fill:#fff;stroke:#000;stroke-width:.54px"/><path d="M52.467 48.005c2.872-.041 1.994-4.713 1.028-4.843-3.648-.493-3.362 2.57-3.373 2.805-.054 1.23.208 2.069 2.345 2.038Z" style="fill:#6ebeaa;fill-rule:nonzero;stroke:#000;stroke-width:.54px;stroke-miterlimit:3"/><path d="M49.715 43.297c.536-.169.885-.894.012-1.155-.456-.137-.807.336-.833.678-.032.436.492.581.821.477ZM54.558 42.816c.536-.169.886-.894.013-1.155-.456-.136-.808.336-.833.678-.033.436.491.581.82.477Z"/><path d="M45.977 49.132c1.186.725 1.36 2.036.239 3.432" style="fill:none;fill-rule:nonzero;stroke:#000;stroke-width:.54px;stroke-miterlimit:3"/><path d="M47.145 50.559c10.062-.124 10.06-.048 10.931-.132" style="fill:none;fill-rule:nonzero;stroke:#000;stroke-width:.54px;stroke-miterlimit:3"/><path d="M59.63 48.933c-2.77 1.618-.805 2.908-.219 2.98" style="fill:none;fill-rule:nonzero;stroke:#000;stroke-width:.54px;stroke-miterlimit:3"/><path d="M42.504 28.01c19.824 6.492 33.859-.712 30.068-9.879-.709-1.713-4.281-5.392-12.304-5.945-12.535-.864-19.993-3.003-23.107 2.24-2.829 4.764-3.256 10.769 5.343 13.584Z" style="fill:#19a1c3;fill-rule:nonzero;stroke:#000;stroke-width:.54px;stroke-miterlimit:3"/><path d="M57.576 22.123c2.784-4.258 3.914-1.364 3.918 1.382.001.739-.246 5.063-.086 7.948.131 2.354-17.992.529-18.151-1.826 0 0-.032-8.922 3.232-11.63 2.892-2.399 3.521.682 3.778 3.061 1.855-4.611 4.424-3.867 3.76.024.137-.197 1.327-3.578 2.821-3.171 1.236.337.69 3.968.728 4.212Z" style="fill:#afc319;fill-rule:nonzero;stroke:#000;stroke-width:.54px;stroke-miterlimit:3"/><path d="M49.725 28.762c2.49-.278 4.819-3.448 1.379-5.601-1.796-1.123-3.845.816-4.347 2.451-.64 2.087 1.439 3.321 2.968 3.15Z" style="fill:#fff;stroke:#000;stroke-width:.54px"/><path d="M51.683 26.216c.56-.041 1.067-.667.278-1.122-.413-.237-.864.142-.967.468-.132.418.345.679.689.654Z"/><path d="M53.775 29.279c3.791 2.054 6.487-3.079 4.048-4.716-3.511-2.355-6.834 3.206-4.048 4.716Z" style="fill:#fff;stroke:#000;stroke-width:.54px"/><path d="M54.551 27.087c.561-.042 1.068-.667.278-1.122-.412-.237-.863.142-.966.468-.132.418.344.679.688.654Z"/></svg>