<svg xmlns="http://www.w3.org/2000/svg" xml:space="preserve" style="fill-rule:evenodd;clip-rule:evenodd;stroke-linecap:round;stroke-linejoin:round;stroke-miterlimit:1.5" viewBox="0 0 160 160"><path d="M0 0h160v160H0z" style="fill:#40bf7c"/><clipPath id="a"><path d="M0 0h160v160H0z"/></clipPath><g clip-path="url(#a)"><path d="M124.725 36.203c-.058-.097-4.864-5.251-3.804-8.962.139-.488 1.191.756 5.055-3.827 4.297-5.097 6.845-8.718 16.415-6.166 1.742.465 2.078 2.069.651 2.264-4.529.617-5.781 1.264-8.683 8.257-3.017 7.271-9.442 8.354-9.634 8.434Z" style="fill:#fffadc;stroke:#000;stroke-width:.7px"/><path d="m2.009 60.841 9.707-3.758 2.073 7.851 10.582-1.912-2.259 8.789 10.289 1.082-4.68 8.858 9.546 1.512-6.619 9.251 10.588 2.784-6.87 8.196 10.046.868-3.636 10.222s-7.06-.902-13.913-32.222C23.581 67.365 2.009 60.841 2.009 60.841Z" style="fill:#f4ce3b;stroke:#000;stroke-width:.7px"/><path d="M48.302 117.686c-21.231-5.658-10.923-42.868-37.279-54.553-1.046-.464-12.327-5.466-13.691-4.11-.028.028.532-.267.206.446-.186.408 14.354 8.744 19.126 19.986 2.665 6.279 2.37 10.76 3.931 25.52 3.042 28.769 21.076 30.76 25.827 31.52M82.627 149.763c.097.533 2.666 6.691 2.887 7.11 3.478.554 8.875-3.228 9.152-4.419.057-.245.705-2.036-1.135-2.788-1.47-.601-2.535-.066-4.682.719a120.82 120.82 0 0 1-2.073-3.233M108.42 138.232c2.261 3.927 5.463.807 3.637-2.878-1.629-3.289-5.592-1.321-8.304-.737-1.467.316-5.08 2.595-3.94 6.393.704 2.347 3.983 3.397 4.541-.407.116-.792.075-.785.119-1.244.085.272.826 2.639 2.528 2.374 2.143-.334 1.422-3.378 1.419-3.501Z" style="fill:#ff6421;stroke:#000;stroke-width:.7px"/><path d="M94.336 107.72c-.04 2.853 7.058 28.74 7.359 27.648 2.281-.032 4.489-.641 6.55-2.107.115.927-3.174-12.068-7.194-27.301M116.882 21.876l.267-3.028s13.807 1.553 13.365 4.409c-.337 2.171-13.632-1.381-13.632-1.381Z" style="fill:#88bd64;stroke:#000;stroke-width:.7px"/><path d="M80.136 77.822c.592-1.215-3.482-10.154-8.418-12.202-7.175-2.977-9.89 1.119-23.339-1.885 2.119 2.177 4.104 4.197 3.921 6.324-.139 1.622-4.383 3.297-4.591 3.399.811.153 5.034.482 5.09 2.796.043 1.761-4.365 4.43-4.827 4.709.482.025 5.41-.831 5.044 1.606-.291 1.941-4.979 6.319-4.979 6.319s15.074-8.972 20.639-10.557c3.114-.887 6.793-.691 9.251 2.19l2.209-2.699Z" style="fill:#ff6421"/><clipPath id="b"><path d="M80.136 77.822c.592-1.215-3.482-10.154-8.418-12.202-7.175-2.977-9.89 1.119-23.339-1.885 2.119 2.177 4.104 4.197 3.921 6.324-.139 1.622-4.383 3.297-4.591 3.399.811.153 5.034.482 5.09 2.796.043 1.761-4.365 4.43-4.827 4.709.482.025 5.41-.831 5.044 1.606-.291 1.941-4.979 6.319-4.979 6.319s15.074-8.972 20.639-10.557c3.114-.887 6.793-.691 9.251 2.19l2.209-2.699Z"/></clipPath><g clip-path="url(#b)"><path d="M48.631 73.385c2.874-.09 14.984-4.599 20.669-4.171 6.044.455 9.728 7.686 10.316 9.341" style="fill:none;stroke:#000;stroke-width:.7px"/><path d="M48.608 80.766c10.27-3.414 21.273-11.651 30.203-1.076" style="fill:none;stroke:#000;stroke-width:.7px"/></g><path d="M80.136 77.822c.592-1.215-3.482-10.154-8.418-12.202-7.175-2.977-9.89 1.119-23.339-1.885 2.119 2.177 4.104 4.197 3.921 6.324-.139 1.622-4.383 3.297-4.591 3.399.811.153 5.034.482 5.09 2.796.043 1.761-4.365 4.43-4.827 4.709.482.025 5.41-.831 5.044 1.606-.291 1.941-4.979 6.319-4.979 6.319s15.074-8.972 20.639-10.557c3.114-.887 6.793-.691 9.251 2.19l2.209-2.699Z" style="fill:none;stroke:#000;stroke-width:.7px"/><path d="M97.437 80.592c.375-1.298 9.39-5.202 14.425-3.413 7.32 2.6 6.59 7.46 18.584 14.244-3.031.195-5.858.363-7.148 2.065-.984 1.297 1.043 5.384 1.129 5.599-.704-.429-4.059-3.016-5.651-1.336-1.212 1.279.27 6.213.425 6.73-.374-.304-3.457-4.243-4.819-2.189-1.085 1.636-.539 8.027-.539 8.027s-5.175-16.762-8.243-21.668c-1.716-2.746-4.577-5.066-8.333-4.575l.17-3.484Z" style="fill:#ff6421"/><clipPath id="c"><path d="M97.437 80.592c.375-1.298 9.39-5.202 14.425-3.413 7.32 2.6 6.59 7.46 18.584 14.244-3.031.195-5.858.363-7.148 2.065-.984 1.297 1.043 5.384 1.129 5.599-.704-.429-4.059-3.016-5.651-1.336-1.212 1.279.27 6.213.425 6.73-.374-.304-3.457-4.243-4.819-2.189-1.085 1.636-.539 8.027-.539 8.027s-5.175-16.762-8.243-21.668c-1.716-2.746-4.577-5.066-8.333-4.575l.17-3.484Z"/></clipPath><g clip-path="url(#c)"><path d="M123.793 98.415c-2.073-1.993-8.039-13.456-12.545-16.948-4.791-3.713-12.371-.816-13.917.018" style="fill:none;stroke:#000;stroke-width:.7px"/><path d="M118.862 103.909c-5.334-9.417-7.978-22.905-21.694-21.042" style="fill:none;stroke:#000;stroke-width:.7px"/></g><path d="M97.437 80.592c.375-1.298 9.39-5.202 14.425-3.413 7.32 2.6 6.59 7.46 18.584 14.244-3.031.195-5.858.363-7.148 2.065-.984 1.297 1.043 5.384 1.129 5.599-.704-.429-4.059-3.016-5.651-1.336-1.212 1.279.27 6.213.425 6.73-.374-.304-3.457-4.243-4.819-2.189-1.085 1.636-.539 8.027-.539 8.027s-5.175-16.762-8.243-21.668c-1.716-2.746-4.577-5.066-8.333-4.575l.17-3.484Z" style="fill:none;stroke:#000;stroke-width:.7px"/><path d="M99.694 77.69c4.532-11.4 16.246-18.58 22.292-28.378 1.188-1.926 2.157-3.953 2.81-6.133.607-2.028.94-4.188.921-6.522-.007-.9-.067-1.827-.184-2.781-2.141-17.504-34.7-25.756-37.566 15.8-3.455 50.105-53.112 47.422-48.493 81.523 3.115 23 36.289 25.53 50.942 15.09 8.109-5.778 10.789-13.36 11.73-26.003 1.324-17.783-6.68-31.961-2.452-42.596Z" style="fill:#ff6421"/><clipPath id="d"><path d="M99.694 77.69c4.532-11.4 16.246-18.58 22.292-28.378 1.188-1.926 2.157-3.953 2.81-6.133.607-2.028.94-4.188.921-6.522-.007-.9-.067-1.827-.184-2.781-2.141-17.504-34.7-25.756-37.566 15.8-3.455 50.105-53.112 47.422-48.493 81.523 3.115 23 36.289 25.53 50.942 15.09 8.109-5.778 10.789-13.36 11.73-26.003 1.324-17.783-6.68-31.961-2.452-42.596Z"/></clipPath><g clip-path="url(#d)"><path d="M29.763 128.542c.527-2.905.719-14.287 16.513-31.033 12.54-13.296 33.852-21.908 32.401-25.001 6.199 2.913 23.714 4.935 29.455 5.025-.314 2.502.025 22.15 1.126 28.98 2.797 17.344 5.758 23.515-1.062 32.766-24.826-15.115-64.166-6.775-78.433-10.737Z" style="fill:#88bd64;stroke:#000;stroke-width:.7px"/></g><path d="M99.694 77.69c4.532-11.4 16.246-18.58 22.292-28.378 1.188-1.926 2.157-3.953 2.81-6.133.607-2.028.94-4.188.921-6.522-.007-.9-.067-1.827-.184-2.781-2.141-17.504-34.7-25.756-37.566 15.8-3.455 50.105-53.112 47.422-48.493 81.523 3.115 23 36.289 25.53 50.942 15.09 8.109-5.778 10.789-13.36 11.73-26.003 1.324-17.783-6.68-31.961-2.452-42.596Z" style="fill:none;stroke:#000;stroke-width:.7px"/><path d="M123.437 36.908c3.213-.452 4.938-3.792 8.782-1.844 2.914 1.477.911 13.507-12.603 16.409" style="fill:#ff6421;fill-rule:nonzero;stroke:#000;stroke-width:.7px;stroke-miterlimit:3"/><path d="M52.653 146.572c-.414.351-4.472 5.647-4.725 6.047 1.253 3.292 7.221 6.086 8.392 5.732.241-.072 2.116-.403 1.851-2.373-.211-1.574-1.206-2.231-2.956-3.701.921-1.84 1.623-3.138 1.769-3.408" style="fill:#ff6421;stroke:#000;stroke-width:.7px"/><path d="M108.2 37.337c3.08-1.102 5.087-5.828.07-7.529-2.619-.888-4.64 2.191-4.786 4.419-.186 2.843 2.826 3.786 4.716 3.11Z" style="fill:#fff;stroke:#000;stroke-width:.7px"/><path d="M109.923 33.514c.699-.22 1.155-1.167.016-1.508-.595-.178-1.054.439-1.087.885-.043.57.641.759 1.071.623Z"/><path d="M113.501 36.777c5.432 1.47 7.315-5.86 3.725-7.207-5.167-1.937-7.718 6.126-3.725 7.207Z" style="fill:#fff;stroke:#000;stroke-width:.7px"/><path d="M113.828 33.759c.7-.221 1.156-1.168.016-1.508-.595-.178-1.054.439-1.087.885-.042.569.642.758 1.071.623Z"/><path d="M117.435 22.067c-5.449-.83-5.448-.578-10.95-1.193-.226-.025-1.531-.415-3.092-.295-.743-6.831 2.673-16.296 10.535-15.653 7.91.647 3.977 15.087 3.507 17.141Z" style="fill:#88bd64"/><clipPath id="e"><path d="M117.435 22.067c-5.449-.83-5.448-.578-10.95-1.193-.226-.025-1.531-.415-3.092-.295-.743-6.831 2.673-16.296 10.535-15.653 7.91.647 3.977 15.087 3.507 17.141Z"/></clipPath><g clip-path="url(#e)"><path d="M101.649 13.738c1.101-2.845 1.445-3.925 3.173-4.772 3.982-1.954 2.99 2.419 6.604 3.074 2.413.437 4.593-3.886 8.709-4.078 3.11-.146 2.727 3.467 2.424 7.141-4.227-2.006-6.695 4.817-12.233 3.253-1.932-.546-3.727-3.172-4.889-3.933-1.068-.699-1.434-.384-3.788-.685Z" style="fill:#afc319;stroke:#000;stroke-width:.7px"/></g><path d="M117.435 22.067c-5.449-.83-5.448-.578-10.95-1.193-.226-.025-1.531-.415-3.092-.295-.743-6.831 2.673-16.296 10.535-15.653 7.91.647 3.977 15.087 3.507 17.141Z" style="fill:none;stroke:#000;stroke-width:.7px"/><path d="M114.211 1.64c1.592 1.4 1.398 3.411-2.554 3.279-1.378-.046-1.588-1.673-1.049-2.662.577-1.057 2.254-1.802 3.603-.617Z" style="fill:#88bd64;stroke:#000;stroke-width:.7px"/><path d="M95.624 36.794c1.76.093 2.767-1.315 3.172-1.771" style="fill:none;stroke:#000;stroke-width:.7px"/><path d="m101.02 39.666-.053 5.366 3.644-3.871-3.591-1.495Z" style="fill:#fff;stroke:#000;stroke-width:.7px"/><path d="M125.361 38.91c-7.697 5.966-21.741 4.038-28.302-2.302" style="fill:none;stroke:#000;stroke-width:.7px"/><path d="M93.861 34.649c.058-.096 4.864-5.25 3.804-8.962-.139-.488-1.191.756-5.055-3.827-4.297-5.097-6.845-8.718-16.415-6.165-1.742.464-2.078 2.069-.651 2.263 4.529.618 5.781 1.264 8.683 8.258 3.017 7.27 9.442 8.354 9.634 8.433Z" style="fill:#fffadc;stroke:#000;stroke-width:.7px"/><path d="M111.857 40.694c3.749-.054 2.603-6.152 1.342-6.322-4.762-.643-4.389 3.355-4.403 3.661-.07 1.606.271 2.701 3.061 2.661Z" style="fill:#6ebeaa;fill-rule:nonzero;stroke:#000;stroke-width:.7px;stroke-miterlimit:3"/><path d="M115.873 124.875c2.041-1.724 6.706-2.11 5.086-4.979a4.645 4.645 0 0 0-.298-.458c-1.209-1.66-3.645-.064-4.322.53-.206-.667-1.958-3.924-4.136-1.277-1.783 2.167 2.16 4.267 3.67 6.184Z" style="fill:#e5562d;fill-rule:nonzero;stroke:#000;stroke-width:.7px;stroke-miterlimit:3"/><path d="M82.818 103.524c1.406-.591-4.701-6.075.318-6.797 3.209-.461 1.197 5.989 2.7 6.385 1.503.395 4.68-4.074 6.321-4.012 2.109.081 2.585 2.533 1.562 3.455-2.373 2.138-8.982 2.383-4.086 4.688 4.019 1.892 2.447 5.277-.5 5.954-3.303.758-2.066-5.937-3.966-5.732-1.9.204-5.011 7.307-7.604 4.827-4.047-3.869 4.628-4.619 4.033-6.367-.297-.873-9.471.429-7.207-4.768 2.153-4.943 7.546 2.738 8.429 2.367Z" style="fill:#e5ef5a;fill-rule:nonzero;stroke:#000;stroke-width:.7px;stroke-miterlimit:3"/><path d="M71.091 147.279c-3.755-1.845-5.321-3.338-6.607-13.152-.096-.73-.227-7.132 1.508-9.276.749-.925 2.858-3.531 14.624-2.725.235.016 18.01 3.192 20.064 4.359 6.258 3.556 6.302 16.257 4.194 18.888-7.324 9.137-30.654 3.443-33.783 1.906Z" style="fill:#6596d7;fill-rule:nonzero;stroke:#000;stroke-width:.7px;stroke-miterlimit:3"/><path d="M77.956 145.424c-4.427-2.205-6.387-4.343-7.468-13.023-.729-5.864 3.994-6.933 4.656-7.082 1.254-.284 4.305-.974 16.039 1.065 2.986.519 3.48.708 8.219 2.224 3.113.996 10.259 16.12-2.992 19.586-3.584.938-13.985-.543-18.454-2.77Z" style="fill:#97d6e6;fill-rule:nonzero;stroke:#000;stroke-width:.7px;stroke-miterlimit:3"/><path d="M93.779 135.852c-2.329-4.578 3.289-5.863 5.32-3.321 3.755 4.699-3.6 6.699-5.32 3.321ZM78.042 137.971c-9.498-2.109-1.316-15.684 4.711-7.227 3.21 4.505-2.737 7.665-4.711 7.227Z" style="fill:#fff;fill-rule:nonzero;stroke:#000;stroke-width:.7px;stroke-miterlimit:3"/><path d="M95.123 139.967c-2.796-1.777-10.052-4.418-11.314.417M96.392 139.481c-.356-.101-1.225.453-1.358.572-1.166 1.042-.85 2.262-.849 2.323" style="fill:none;fill-rule:nonzero;stroke:#000;stroke-width:.7px;stroke-miterlimit:3"/><path d="M82.007 140.141c.987-.574 3.347.735 3.099 2.829" style="fill:none;fill-rule:nonzero;stroke:#000;stroke-width:.7px;stroke-miterlimit:3"/><path d="M79.69 134.355c-2.117-.839-.601-3.209 1.07-2.766 1.741.461 1.173 3.654-1.07 2.766ZM96.374 135.6c-1.41.104-2.526-2.291-.066-2.234 1.175.028 1.496 2.128.066 2.234Z" style="fill-rule:nonzero"/><path d="M84.182 135.135c-3.039-3.165 1.206-10.884 5.055-10.354 3 .413 4.803 7.03 4.392 9.001-.783 3.757-8.577 2.26-9.447 1.353Z" style="fill:#eeb1bd;fill-rule:nonzero;stroke:#000;stroke-width:.7px;stroke-miterlimit:3"/><path d="M90.751 133.581c-.122-1.499 1.383-1.483 1.636-.358.45 2.004-1.533 1.615-1.636.358ZM84.628 133.356c-.469-2.237 1.568-1.891 1.898-.927.667 1.941-1.642 2.144-1.898.927Z" style="fill-rule:nonzero"/><path d="M101.467 34.984c-3.524-1.197-4.916-7.001-9.021-2.132-2.418 2.868-3.17 10.736 5.084 15.826" style="fill:#ff6421;fill-rule:nonzero;stroke:#000;stroke-width:.7px;stroke-miterlimit:3"/><path d="M101.111 46.571c8.528 4.932 23.072 3.365 25.818-3.897.033-.086 1.359-3.947-1.62-4.402-1.785-.273-6.993 4.552-13.559 4.36-8.47-.248-12.941-10.061-15.87-3.686-1.843 4.013 3.928 6.872 5.231 7.625Z" style="fill:#fff;fill-rule:nonzero"/><clipPath id="f"><path d="M101.111 46.571c8.528 4.932 23.072 3.365 25.818-3.897.033-.086 1.359-3.947-1.62-4.402-1.785-.273-6.993 4.552-13.559 4.36-8.47-.248-12.941-10.061-15.87-3.686-1.843 4.013 3.928 6.872 5.231 7.625Z" clip-rule="nonzero"/></clipPath><g clip-path="url(#f)"><path d="m100.67 38.179.141-.214c-1.061 1.671-1.409 3.272-3.588 6.76M104.677 40.45c-1.568 3.349-1.545 3.335-2.961 6.753M108.662 42.288c-.127.575-.908 4.116-1.404 7.228M113.535 42.545c.073.562-.124.556.651 7.054M117.94 41.173c.007 1.121.48 2.729 2.165 7.309M122.561 39.529c1.075 2.125.95 2.155 3.249 5.786" style="fill:none;fill-rule:nonzero;stroke:#000;stroke-width:.7px;stroke-miterlimit:3"/></g><path d="M101.111 46.571c8.528 4.932 23.072 3.365 25.818-3.897.033-.086 1.359-3.947-1.62-4.402-1.785-.273-6.993 4.552-13.559 4.36-8.47-.248-12.941-10.061-15.87-3.686-1.843 4.013 3.928 6.872 5.231 7.625Z" style="fill:none;fill-rule:nonzero;stroke:#000;stroke-width:.7px;stroke-miterlimit:3"/><path d="M114.111 39.307c.287.176 3.395 1.431 2.87 4.045-.773 3.846-11.001 3.83-10.736-.745.131-2.256 2.508-3.673 2.508-3.673l.025-1.154c-3.671-.739-10.088 11.074 2.382 10.717 13.963-.399 6.614-11.05 3.274-10.637 0 0-.055.771-.323 1.447Z" style="fill:#afc319;fill-rule:nonzero;stroke:#000;stroke-width:.7px;stroke-miterlimit:3"/><path d="M96.311 151.282c1.603.344-1.495 4.13 1.779 6.877 2.976 2.496 7.708-1.388 6.075-3.743-2.046-2.95-1.908-3.706.676-6.016 4.74-4.236-4.993-11.613-6.938-3.414-.923 3.886-2.515 1.888-7.401 1.339-5.186-.582-12.968-1.146-12.63-4.185.53-4.772-8.653-6.165-9.428-.171-.477 3.696 6.028 3.926 2.886 6.698-.648.573-3.966 2.34-1.884 5.685 2.458 3.951 7.176 2.672 8.256-1.956.537-2.304-.025-3.135 2.346-3.435.104-.013 13.587 1.747 16.263 2.321Z" style="fill:#fff;fill-rule:nonzero;stroke:#000;stroke-width:.7px;stroke-miterlimit:3"/><path d="M65.919 144.302c1.761 4.175 5.322 1.472 3.963-2.41-1.213-3.464-5.388-1.997-8.151-1.751-1.495.133-5.36 1.952-4.695 5.861.411 2.415 3.536 3.86 4.557.153.212-.771.17-.769.27-1.219.051.28.496 2.72 2.218 2.666 2.167-.068 1.826-3.178 1.838-3.3Z" style="fill:#ff6421;stroke:#000;stroke-width:.7px"/><path d="M55.716 112.561c-.391 2.826 3.475 29.389 3.909 28.342 2.267.248 4.533-.086 6.759-1.287 0 .934-1.669-12.366-3.788-27.978" style="fill:#88bd64;stroke:#000;stroke-width:.7px"/><path d="m47.72 115.878 3.336 1.697s-.123-1.149 1.229-.794.141 1.689.141 1.689 2.1-.216 1.532 1.276c-.568 1.492-2.092-.047-2.092-.047s.066 1.656-1.328 1.13c-1.395-.525-.046-1.839-.046-1.839l-3.606-1.942M36.171 151.603c.082.45 2.246 5.637 2.432 5.99 2.931.467 7.477-2.719 7.711-3.723.048-.206.593-1.715-.956-2.348-1.239-.507-2.137-.056-3.945.606-.957-1.446-1.611-2.504-1.747-2.724" style="fill:#87e8e9;stroke:#000;stroke-width:.59px"/><path d="M46.617 141.67c-2.41 13.371-31.192 19.586-32.767-10.927-3.088-59.84 30.959-61.382 41.999-46.613 1.886 2.524 9.512 19.949-.866 28.085-4.522 3.546-11.351 5.77-10.471 18.731.2 2.953 3.098 5.215 2.105 10.724Z" style="fill:#87e8e9"/><clipPath id="g"><path d="M46.617 141.67c-2.41 13.371-31.192 19.586-32.767-10.927-3.088-59.84 30.959-61.382 41.999-46.613 1.886 2.524 9.512 19.949-.866 28.085-4.522 3.546-11.351 5.77-10.471 18.731.2 2.953 3.098 5.215 2.105 10.724Z"/></clipPath><g clip-path="url(#g)"><path d="M52.777 83.33c3.511 3.544 4.25.473 3.921-.943-1.695-7.3-17.817-13.66-27.495-9.48-1.913.826-5.658-1.075-8.759 8.78-.1.319-.989 3.143.926 4.073 3.304 1.602 7.801-2.897 8.066-3.111-.114.27-1.25 2.968 1.052 3.51 1.753.413 3.418-3.176 3.588-3.541 1.08 5.562 5.727 4.428 6.372.045.156.333 1.409 3.007 3.579 2.889 1.153-.063 2.049-3.162 2.14-3.475.362.398 6.984 7.666 6.61 1.253Z" style="fill:#b2a8fb;stroke:#000;stroke-width:.59px;stroke-miterlimit:3"/><path d="M23.022 119.015c-2.859 4.793-11.411 7.704-13.858 2.041-2.297-5.317 2.428-10.849 8.036-11.286 5.512-.429 7.334 6.711 5.822 9.245Zm6.97 14.501c-1.6 1.935-8.486-.154-4.721-6.155 1.834-2.922 9.108.849 4.721 6.155Zm11.439-.358c-3.37-2.534.195-8.939 4.818-6.346 4.517 2.535.067 10.018-4.818 6.346ZM33.65 140.8c-.97 1.487-4.708-.534-3.392-2.495 1.353-2.015 4.887.202 3.392 2.495Zm-13.463 5.325c-6.294 6.528-11.215-1.482-5.678-6.076 3.399-2.821 10.061 1.532 5.678 6.076Zm14.372-29.458c-1.468.796-5.197-1.743-1.809-4.522 1.433-1.175 5.413 2.566 1.809 4.522Zm-9.889-14.465c-1.528 1.359-3.444-.509-1.883-2.45 1.155-1.435 3.962.6 1.883 2.45Zm20.707 44.038c-.242.308-.042 1.124-1.45 2.507-.182.179-1.196 1.175-3.194.065-2.107-1.171-.876-9.85 4.644-2.572Z" style="fill:#3cc4d3;stroke:#000;stroke-width:.59px;stroke-miterlimit:3"/></g><path d="M46.617 141.67c-2.41 13.371-31.192 19.586-32.767-10.927-3.088-59.84 30.959-61.382 41.999-46.613 1.886 2.524 9.512 19.949-.866 28.085-4.522 3.546-11.351 5.77-10.471 18.731.2 2.953 3.098 5.215 2.105 10.724Z" style="fill:none;stroke:#000;stroke-width:.59px;stroke-miterlimit:3"/><path d="M32.868 90.172c-1.4.974-1.511 1.037-3.095.434" style="fill:none;stroke:#000;stroke-width:.59px;stroke-miterlimit:3"/><path d="M45.679 93.601c-4.577 1.238-6.163-4.937-3.138-6.071 4.353-1.632 6.502 5.16 3.138 6.071Z" style="fill:#fff;stroke:#000;stroke-width:.59px"/><path d="M51.761 94.085c-4.341 1.16-5.845-4.622-2.976-5.684 4.128-1.528 6.166 4.832 2.976 5.684Z" style="fill:#fff;stroke:#000;stroke-width:.59px"/><path d="M49.781 92.062c-.589-.186-.973-.983-.013-1.27.501-.15.888.37.916.746.035.479-.541.639-.903.524ZM44.762 91.382c-.589-.186-.973-.984-.013-1.271.501-.15.888.37.916.746.035.48-.541.639-.903.525Z"/><path d="M49.088 101.331c.005.426.046 4.412-2.608 4.653-1.38.126-3.065-1.1-1.954-5.176" style="fill:#ff8b8b;stroke:#000;stroke-width:.59px;stroke-miterlimit:3"/><path d="M55.87 99.245c-4.892 4.034-21.128 1.771-24.098-8.226" style="fill:none;stroke:#000;stroke-width:.59px;stroke-miterlimit:3"/><path d="M46.812 101.184c.002.012.168.557-.188 1.79" style="fill:none;stroke:#000;stroke-width:.59px;stroke-miterlimit:3"/><path d="M23.808 149.111c-.339.306-3.616 4.873-3.819 5.217 1.142 2.738 6.242 4.933 7.219 4.604.2-.067 1.77-.395 1.495-2.047-.219-1.319-1.074-1.847-2.587-3.038.727-1.574 1.284-2.686 1.399-2.917M42.823 118.016l2.888 2.38s.129-1.148 1.372-.508c1.244.64-.229 1.679-.229 1.679s2.098.245 1.22 1.578c-.878 1.333-2.032-.499-2.032-.499s-.295 1.63-1.542.815c-1.247-.816.354-1.806.354-1.806l-3.099-2.677" style="fill:#87e8e9;stroke:#000;stroke-width:.59px"/><path d="m33.512 78.076-.225-2.551s-11.632 1.309-11.259 3.715c.283 1.829 11.484-1.164 11.484-1.164Z" style="fill:#6468bd;stroke:#000;stroke-width:.59px"/><path d="M33.046 78.237c4.59-.699 4.59-.487 9.225-1.004.19-.022 1.29-.351 2.605-.249.626-5.755-2.252-13.729-8.875-13.188-6.664.545-3.351 12.711-2.955 14.441Z" style="fill:#6468bd"/><clipPath id="h"><path d="M33.046 78.237c4.59-.699 4.59-.487 9.225-1.004.19-.022 1.29-.351 2.605-.249.626-5.755-2.252-13.729-8.875-13.188-6.664.545-3.351 12.711-2.955 14.441Z"/></clipPath><g clip-path="url(#h)"><path d="M46.345 71.22c-.928-2.397-1.217-3.306-2.673-4.02-3.354-1.646-2.519 2.039-5.563 2.59-2.034.368-3.87-3.274-7.337-3.436-2.621-.122-2.298 2.921-2.042 6.016 3.56-1.689 5.639 4.059 10.305 2.741 1.627-.46 3.14-2.673 4.119-3.314.9-.589 1.208-.323 3.191-.577Z" style="fill:#daea1a;stroke:#000;stroke-width:.59px"/></g><path d="M33.046 78.237c4.59-.699 4.59-.487 9.225-1.004.19-.022 1.29-.351 2.605-.249.626-5.755-2.252-13.729-8.875-13.188-6.664.545-3.351 12.711-2.955 14.441Z" style="fill:none;stroke:#000;stroke-width:.59px"/><path d="M35.763 61.028c-1.342 1.179-1.178 2.874 2.151 2.763 1.161-.039 1.338-1.41.883-2.243-.485-.89-1.898-1.518-3.034-.52Z" style="fill:#eaa11a;stroke:#000;stroke-width:.59px"/><path d="M56.082 98.079c-.014-.031-.46 1.269.54 2.547" style="fill:none;stroke:#000;stroke-width:.59px;stroke-miterlimit:3"/><path d="M41.591 39.262c-.039-.07-.549-.535.035-1.664-.911-.209-9.307-2.136-8.644 7.869.319 4.814 5.281 3.836 7.114 3.713.189-1.349.161-1.331.156-2.701-1.496.747-5.827.327-5.239-3.848.479-3.402 2.383-3.738 6.578-3.369ZM60.112 39.252c.039-.07.549-.535-.035-1.664.911-.209 9.307-2.136 8.644 7.869-.319 4.814-5.281 3.836-7.114 3.713-.189-1.349-.161-1.331-.156-2.7 1.496.746 5.827.326 5.239-3.849-.479-3.402-2.383-3.738-6.578-3.369Z" style="fill:#6994da;fill-rule:nonzero;stroke:#000;stroke-width:.54px;stroke-miterlimit:3"/><path d="M40.606 55.332c7.233 5.679 18.634 3.101 20.131 1.132 4.677-6.155.534-24.449-2.164-25.822-.732-.372-12.848-3.275-15.247 1.438-2.774 5.448-5.624 20.972-2.72 23.252Z" style="fill:#6994da;fill-rule:nonzero;stroke:#000;stroke-width:.54px;stroke-miterlimit:3"/><path d="M47.932 29.801c-.517.227.548 4.149-5.159 4.089" style="fill:none;fill-rule:nonzero;stroke:#000;stroke-width:.54px;stroke-miterlimit:3"/><path d="M42.081 35.915c.342.353 3.629.183 5.051-1.033 1.869-1.601 2.195-4.808 2.241-5.263" style="fill:none;fill-rule:nonzero;stroke:#000;stroke-width:.54px;stroke-miterlimit:3"/><path d="M50.937 29.551c-1.013 3.629.527 7.988-9.676 9.371" style="fill:none;fill-rule:nonzero;stroke:#000;stroke-width:.54px;stroke-miterlimit:3"/><path d="M52.435 29.855c.163-.035-.58 4.457-.644 4.842-.184 1.113-.811 4.902-11.587 8.035" style="fill:none;fill-rule:nonzero;stroke:#000;stroke-width:.54px;stroke-miterlimit:3"/><path d="M47.675 45.45c4.162 1.121 5.604-4.469 2.853-5.496-3.958-1.477-5.912 4.672-2.853 5.496Z" style="fill:#fff;stroke:#000;stroke-width:.54px"/><path d="M53.48 44.947c4.161 1.127 5.604-4.489 2.853-5.52-3.958-1.484-5.913 4.693-2.853 5.52Z" style="fill:#fff;stroke:#000;stroke-width:.54px"/><path d="M52.467 48.005c2.872-.041 1.994-4.713 1.028-4.843-3.648-.493-3.362 2.57-3.373 2.805-.054 1.23.208 2.069 2.345 2.038Z" style="fill:#6ebeaa;fill-rule:nonzero;stroke:#000;stroke-width:.54px;stroke-miterlimit:3"/><path d="M49.715 43.297c.536-.169.885-.894.012-1.155-.456-.137-.807.336-.833.678-.032.436.492.581.821.477ZM54.558 42.816c.536-.169.886-.894.013-1.155-.456-.136-.808.336-.833.678-.033.436.491.581.82.477Z"/><path d="M45.977 49.132c1.186.725 1.36 2.036.239 3.432" style="fill:none;fill-rule:nonzero;stroke:#000;stroke-width:.54px;stroke-miterlimit:3"/><path d="M47.145 50.559c10.062-.124 10.06-.048 10.931-.132" style="fill:none;fill-rule:nonzero;stroke:#000;stroke-width:.54px;stroke-miterlimit:3"/><path d="M59.63 48.933c-2.77 1.618-.805 2.908-.219 2.98" style="fill:none;fill-rule:nonzero;stroke:#000;stroke-width:.54px;stroke-miterlimit:3"/><path d="M42.504 28.01c19.824 6.492 33.859-.712 30.068-9.879-.709-1.713-4.281-5.392-12.304-5.945-12.535-.864-19.993-3.003-23.107 2.24-2.829 4.764-3.256 10.769 5.343 13.584Z" style="fill:#19a1c3;fill-rule:nonzero;stroke:#000;stroke-width:.54px;stroke-miterlimit:3"/><path d="M57.576 22.123c2.784-4.258 3.914-1.364 3.918 1.382.001.739-.246 5.063-.086 7.948.131 2.354-17.992.529-18.151-1.826 0 0-.032-8.922 3.232-11.63 2.892-2.399 3.521.682 3.778 3.061 1.855-4.611 4.424-3.867 3.76.024.137-.197 1.327-3.578 2.821-3.171 1.236.337.69 3.968.728 4.212Z" style="fill:#afc319;fill-rule:nonzero;stroke:#000;stroke-width:.54px;stroke-miterlimit:3"/><path d="M49.725 28.762c2.49-.278 4.819-3.448 1.379-5.601-1.796-1.123-3.845.816-4.347 2.451-.64 2.087 1.439 3.321 2.968 3.15Z" style="fill:#fff;stroke:#000;stroke-width:.54px"/><path d="M51.683 26.216c.56-.041 1.067-.667.278-1.122-.413-.237-.864.142-.967.468-.132.418.345.679.689.654Z"/><path d="M53.775 29.279c3.791 2.054 6.487-3.079 4.048-4.716-3.511-2.355-6.834 3.206-4.048 4.716Z" style="fill:#fff;stroke:#000;stroke-width:.54px"/><path d="M54.551 27.087c.561-.042 1.068-.667.278-1.122-.412-.237-.863.142-.966.468-.132.418.344.679.688.654Z"/><path d="m147.367 144.096 4.042 1.148s-.979.853.406 1.592c1.385.74 1.405-1.283 1.405-1.283s1.565 1.781 2.236.119c.67-1.662-1.759-1.559-1.759-1.559s1.318-1.312-.231-1.944c-1.55-.632-1.442 1.48-1.442 1.48l-4.451-1.153" style="fill:#bf360c;stroke:#000;stroke-width:.66px"/><path d="M132.718 124.409c-1.485-5.91 3.481-10.066 6.627-10.063 5.924.007 3.171 9.955 2.52 11.881" style="fill:#62a6ff;stroke:#000;stroke-width:.66px"/><path d="M141.095 109.215c1.884.867 3.278 4.297-1.593 5.115-2.69.452-3.219-2.046-2.764-3.397.72-2.139 3.077-2.307 4.357-1.718Z" style="fill:#a287e9;stroke:#000;stroke-width:.66px"/><path d="M123.787 147.563c-.417.298-4.655 4.975-4.925 5.332.925 3.2 6.334 6.299 7.466 6.057.232-.05 2.025-.216 1.929-2.093-.077-1.5-.963-2.198-2.499-3.719 1.011-1.663 1.774-2.832 1.933-3.076" style="fill:#bf360c;stroke:#000;stroke-width:.66px"/><path d="M130.688 152.148c20.55 2.184 26.679-21.022 10.235-27.605-9.328-3.734-24.071 6.88-21.323 19.781 1.228 5.763 9.617 7.668 11.088 7.824Z" style="fill:#bf360c"/><clipPath id="i"><path d="M130.688 152.148c20.55 2.184 26.679-21.022 10.235-27.605-9.328-3.734-24.071 6.88-21.323 19.781 1.228 5.763 9.617 7.668 11.088 7.824Z"/></clipPath><g clip-path="url(#i)"><path d="M143.197 140.451c.931-1.229 1.041-2.586 3.095-1.699.522.226 3.417 3.678 5.945.212.304-.418 5.812-3.14 1.26-10.964-6.371-10.951-27.375-13.247-35.911 7.314-1.85 4.454-.663 6.505-.185 6.198.549-.351 3.127-3.6 4.041-1.801 2.555 5.028 4.232-.091 6.188-.38 3.413-.503 4.444 5.215 6.43 2.034.071-.114 1-3.293 3.978-1.881.355.169 3.008 3.809 5.159.967Z" style="fill:#eebfee;stroke:#000;stroke-width:.66px"/></g><path d="M130.688 152.148c20.55 2.184 26.679-21.022 10.235-27.605-9.328-3.734-24.071 6.88-21.323 19.781 1.228 5.763 9.617 7.668 11.088 7.824Z" style="fill:none;stroke:#000;stroke-width:.66px"/><path d="m126.891 143.319-1.472 3.935s-.771-1.045-1.62.276c-.85 1.32 1.165 1.504 1.165 1.504s-1.902 1.415-.3 2.219c1.602.803 1.696-1.626 1.696-1.626s1.201 1.42 1.957-.073c.755-1.493-1.359-1.557-1.359-1.557l1.511-4.343M138.785 151.217c.124.498 2.913 6.159 3.146 6.541 3.316.318 8.188-3.57 8.379-4.712.039-.234.545-1.963-1.236-2.564-1.423-.481-2.398.087-4.378.955a114.82 114.82 0 0 1-2.148-2.93" style="fill:#bf360c;stroke:#000;stroke-width:.66px"/><path d="M137.454 133.154c2.913-1.042 4.811-5.512.066-7.121-2.478-.84-4.389 2.072-4.527 4.179-.176 2.69 2.673 3.582 4.461 2.942Z" style="fill:#fff;stroke:#000;stroke-width:.66px"/><path d="M138.339 129.167c.662-.208 1.093-1.104.015-1.426-.562-.169-.996.415-1.028.837-.04.539.607.717 1.013.589Z"/><path d="M142.362 132.632c5.139 1.39 6.92-5.543 3.523-6.817-4.887-1.832-7.3 5.795-3.523 6.817Z" style="fill:#fff;stroke:#000;stroke-width:.66px"/><path d="M145.565 129.023c.662-.208 1.093-1.104.015-1.426-.563-.169-.997.415-1.028.837-.04.539.607.717 1.013.589Z"/><path d="M149.865 134.811c-.259-.125-4.344 1.331-8.108 1.086M141.091 134.756c-.048.078.164.034.379 1.083.15.735-.214.997-.343 1.315M132.729 122.285c1.278-.228 1.285-.13 9.873-.224M133.032 119.966c1.186-.018 7.44-.318 9.759-.449M134.735 116.904c.148.025 5.277-.024 7.744-.171" style="fill:none;stroke:#000;stroke-width:.66px"/></g></svg>