<svg xmlns="http://www.w3.org/2000/svg" viewBox="0 0 32 32" >
	<defs>
		<style>g { display: none; } g:target { display: inline; }</style>
		<path id="home" d="M27.499 26.21v.003l-.092.472-.254.392-.38.271-.47.114h-.01c-1.264.042-6.949.069-10.274-1.751-1.178.686-2.725 1.127-4.292 1.387-2.591.43-5.217.389-6.02.363h-.008l-.47-.113-.381-.27-.255-.391-.093-.475-.001-11.399a3.004 3.004 0 0 1 1.126-2.342l9.594-7.675.372-.205.408-.069.409.069.372.205 9.594 7.675a3 3 0 0 1 1.125 2.342V26.21Zm-9.48-1.763c2.503.966 5.865 1.05 7.481 1.033l-.001-10.667a.999.999 0 0 0-.375-.78l-9.125-7.3-9.124 7.3a1.003 1.003 0 0 0-.376.78L6.5 25.476c1.105.007 3.012-.037 4.9-.351.906-.15 1.811-.357 2.605-.661-1.272-.873-2.481-1.932-3.062-2.974-1.341-2.275-1.124-4.545.223-5.682 1.172-.99 3.32-1.204 4.833.099 1.514-1.303 3.662-1.089 4.834-.099 1.347 1.137 1.564 3.407.223 5.682-.578 1.035-1.774 2.087-3.037 2.957Zm-2.88-6.482c-.674-1.138-2.009-1.198-2.683-.629-.307.259-.43.661-.43 1.115 0 .62.226 1.324.646 2.032l.014.026c.586 1.06 2.011 2.09 3.314 2.865 1.302-.775 2.727-1.805 3.313-2.865l.014-.026c.42-.708.646-1.412.646-2.032 0-.454-.123-.856-.43-1.115-.674-.569-2.009-.509-2.683.629a1 1 0 0 1-1.721 0Z"/>
		<path id="switch_open" d="M13.518 9.894a1 1 0 0 1 0-2h11.844a1 1 0 0 1 0 2H13.518Zm-5.38-2.5a1.5 1.5 0 1 1-.001 3.001 1.5 1.5 0 0 1 .001-3.001ZM13.518 17a1 1 0 0 1 0-2h11.844a1 1 0 0 1 0 2H13.518Zm-5.38-2.5a1.5 1.5 0 1 1-.001 3.001 1.5 1.5 0 0 1 .001-3.001Zm5.38 9.606a1 1 0 0 1 0-2h11.844a1 1 0 0 1 0 2H13.518Zm-5.38-2.5a1.5 1.5 0 1 1-.001 3.001 1.5 1.5 0 0 1 .001-3.001Z"/>
		<path id="switch_close" d="m14.586 16-5.293-5.293a1 1 0 0 1 1.414-1.414L16 14.586l5.293-5.293a1 1 0 0 1 1.414 1.414L17.414 16l5.293 5.293a1 1 0 0 1-1.414 1.414L16 17.414l-5.293 5.293a1 1 0 0 1-1.414-1.414L14.586 16Z"/>
	</defs>
</svg>