<svg xmlns="http://www.w3.org/2000/svg" viewBox="0 0 24 24" >
    <defs>
        <style>
            g { display: none; }
            g:target { display: inline; }
        </style>
        <path id="bluesky" d="M11.999 7.686c1.122-1.553 2.543-3.184 3.896-4.203.868-.654 1.977-1.215 2.954-1.397.263-.05 1.643-.305 2.813.588C22.88 3.602 23 5.151 23 5.852c0 .608-.37 5.103-.574 5.834-.347 1.244-1.005 2.178-1.857 2.838.177.324.3.659.375.997.286 1.289-.084 2.827-1.51 4.295-2.152 2.215-3.988 2.404-5.326 2.02-.812-.232-1.524-.721-2.108-1.369-.584.648-1.296 1.137-2.108 1.369-1.339.384-3.174.195-5.326-2.02-1.426-1.468-1.796-3.005-1.51-4.295a3.8 3.8 0 0 1 .373-.996c-.85-.661-1.508-1.595-1.855-2.839C1.37 10.955 1 6.46 1 5.852c0-.701.145-2.276 1.338-3.178 1.192-.902 2.55-.638 2.813-.588.977.182 2.086.743 2.954 1.397 1.351 1.017 2.77 2.646 3.894 4.203m.262 9.172c.597 1.755 2.284 5.121 5.739 1.564 1.666-1.715 1.302-3.43-.973-4.31a.185.185 0 0 1-.106-.204.19.19 0 0 1 .171-.154c1.536-.142 2.934-.908 3.408-2.606.185-.663.5-4.744.5-5.296 0-2.761-2.413-1.893-3.902-.772-1.869 1.408-3.866 4.127-4.832 5.883a.3.3 0 0 1-.266.162.3.3 0 0 1-.266-.162c-.966-1.756-2.963-4.475-4.832-5.883C5.413 3.959 3 3.091 3 5.852c0 .552.315 4.633.5 5.296.474 1.698 1.872 2.464 3.408 2.612a.184.184 0 0 1 .063.348c-2.273.884-2.637 2.599-.971 4.314 3.455 3.557 5.142.191 5.739-1.563a.277.277 0 0 1 .522-.001"/>
        <path id="instagram" d="M22.5 8.2v7.6c0 3.698-3.002 6.7-6.7 6.7H8.2a6.703 6.703 0 0 1-6.7-6.7V8.2c0-3.698 3.002-6.7 6.7-6.7h7.6c3.698 0 6.7 3.002 6.7 6.7m-2 0c0-2.594-2.106-4.7-4.7-4.7H8.2a4.7 4.7 0 0 0-4.7 4.7v7.6c0 2.594 2.106 4.7 4.7 4.7h7.6c2.594 0 4.7-2.106 4.7-4.7zm-1.573-1.817a1.385 1.385 0 1 1-2.77 0 1.385 1.385 0 0 1 2.77 0m-1.58 5.541a5.357 5.357 0 0 1-5.355 5.354 5.356 5.356 0 0 1-5.354-5.354 5.356 5.356 0 0 1 5.354-5.354 5.357 5.357 0 0 1 5.355 5.354m-2 0a3.356 3.356 0 0 0-6.709 0 3.356 3.356 0 0 0 6.709 0"/>
        <path id="threads" d="M17.02 13.246c-.233 1.619-.847 2.786-1.753 3.53-.711.585-1.615.927-2.721.989-2.452.163-4.468-1.384-4.548-3.45-.131-2.146 1.702-4.093 5.174-3.978.615.001 1.239.05 1.85.151a5 5 0 0 0-.058-.311c-.13-.596-.361-1.144-.834-1.52-.42-.334-1.014-.519-1.83-.545-.816-.002-1.518.241-2.024.744a1 1 0 1 1-1.411-1.417c.87-.866 2.061-1.337 3.479-1.326h.011c1.353.041 2.32.422 3.02.979 1.165.926 1.598 2.423 1.703 3.978 1.368.576 2.515 1.519 3.127 2.917l.002.003c.712 1.66.794 4.375-1.371 6.552-1.603 1.77-4.399 2.595-7.154 2.439-2.75-.156-5.414-1.289-6.778-3.207-1.463-1.717-2.247-4.739-2.247-7.776 0-3.05.791-6.084 2.26-7.79C6.56 2.127 9.02 1.022 12.26 1h.005c4.512.014 7.619 2.147 9.019 6.039a1 1 0 1 1-1.882.677C18.298 4.649 15.819 3.012 12.264 3c-2.539.019-4.497.82-5.8 2.475l-.015.018C5.218 6.91 4.657 9.461 4.657 11.998s.561 5.087 1.792 6.504l.034.039.03.044c1.047 1.497 3.154 2.278 5.282 2.399 2.133.121 4.332-.42 5.568-1.795l.018-.02.019-.018c1.456-1.455 1.444-3.26.97-4.369-.293-.668-.768-1.168-1.35-1.536m-1.93-.729a10 10 0 0 0-1.942-.18l-.017-.001c-1.947-.067-3.213.663-3.135 1.876v.015c.036 1.043 1.187 1.625 2.426 1.542h.006c.634-.035 1.162-.203 1.57-.538.657-.54.985-1.457 1.092-2.714"/>
    </defs>
</svg>