<svg xmlns="http://www.w3.org/2000/svg" viewBox="0 0 32 32" >
    <defs>
        <style>g { display: none; } g:target { display: inline; }</style>
        <path id="bluesky" d="M15.999 11.588c1.26-1.781 2.902-3.698 4.463-4.874.937-.706 2.134-1.315 3.189-1.512a4.112 4.112 0 0 1 1.713.022l.631.22.605.37c.74.572 1.4 1.575 1.4 3.355 0 .669-.405 5.617-.629 6.422-.392 1.406-1.156 2.441-2.141 3.152.228.377.386.77.479 1.167.326 1.385-.072 3.038-1.608 4.619-2.342 2.412-4.326 2.608-5.771 2.165-.909-.279-1.697-.864-2.33-1.627-.633.763-1.421 1.348-2.33 1.627-1.445.443-3.429.247-5.771-2.165-1.536-1.581-1.934-3.233-1.608-4.619a4.03 4.03 0 0 1 .478-1.166c-.984-.712-1.747-1.747-2.14-3.153C4.405 14.786 4 9.838 4 9.169c0-1.78.66-2.783 1.4-3.356l.605-.369.631-.22a4.112 4.112 0 0 1 1.713-.022c1.056.197 2.252.806 3.19 1.512 1.558 1.174 3.198 3.088 4.46 4.874Zm.265 9.732c.639 1.925 2.511 5.822 6.403 1.816 1.869-1.925 1.438-3.849-1.157-4.819a.189.189 0 0 1 .064-.361c1.74-.138 3.335-.985 3.87-2.903.206-.736.556-5.271.556-5.884 0-3.068-2.681-2.104-4.335-.858-2.096 1.579-4.337 4.641-5.399 6.59a.299.299 0 0 1-.533 0c-1.061-1.949-3.302-5.011-5.398-6.59C8.681 7.065 6 6.101 6 9.169c0 .613.35 5.148.556 5.884.535 1.918 2.13 2.765 3.869 2.909a.183.183 0 0 1 .064.351c-2.594.974-3.025 2.898-1.156 4.823 3.892 4.006 5.764.109 6.404-1.816a.278.278 0 0 1 .527 0Z"/>
        <path id="instagram" d="M27.5 11.8v8.4c0 4.029-3.271 7.3-7.3 7.3h-8.4a7.303 7.303 0 0 1-7.3-7.3v-8.4c0-4.029 3.271-7.3 7.3-7.3h8.4c4.029 0 7.3 3.271 7.3 7.3Zm-2 0c0-2.925-2.375-5.3-5.3-5.3h-8.4a5.303 5.303 0 0 0-5.3 5.3v8.4c0 2.925 2.375 5.3 5.3 5.3h8.4c2.925 0 5.3-2.375 5.3-5.3v-8.4Zm-1.844-2.009a1.531 1.531 0 1 1-3.063.001 1.531 1.531 0 0 1 3.063-.001Zm-1.852 6.125a5.814 5.814 0 0 1-5.812 5.812 5.815 5.815 0 0 1-5.813-5.812 5.816 5.816 0 0 1 5.813-5.813 5.815 5.815 0 0 1 5.812 5.813Zm-2 0a3.815 3.815 0 0 0-3.812-3.813 3.815 3.815 0 0 0-3.813 3.813 3.814 3.814 0 0 0 7.625 0Z"/>
        <path id="threads" d="M21.337 17.217c-.234 1.776-.89 3.053-1.872 3.859-.754.62-1.712.981-2.883 1.047-2.59.171-4.725-1.455-4.809-3.638-.14-2.271 1.811-4.32 5.486-4.198a12.14 12.14 0 0 1 2.08.179 6.373 6.373 0 0 0-.079-.442c-.144-.658-.402-1.262-.923-1.676-.463-.368-1.115-.574-2.014-.602-.899-.003-1.672.267-2.229.821a1.001 1.001 0 0 1-1.412-1.417c.922-.918 2.184-1.415 3.686-1.404h.011c1.434.044 2.46.446 3.202 1.036 1.248.992 1.702 2.602 1.807 4.269 1.472.61 2.707 1.615 3.364 3.115l.001.003c.757 1.764.843 4.648-1.458 6.962-1.71 1.888-4.694 2.765-7.633 2.599-2.934-.167-5.778-1.373-7.23-3.419-1.566-1.835-2.401-5.066-2.401-8.314 0-3.259.842-6.503 2.412-8.326 1.753-2.221 4.38-3.397 7.837-3.421h.005c4.814.015 8.131 2.29 9.625 6.442a1 1 0 0 1-1.882.677c-1.198-3.328-3.887-5.106-7.744-5.119-2.755.02-4.88.893-6.293 2.688l-.015.018c-1.333 1.534-1.945 4.295-1.945 7.041 0 2.746.612 5.508 1.945 7.042l.034.039.03.043c1.137 1.627 3.424 2.481 5.736 2.612 2.316.131 4.702-.461 6.045-1.954l.018-.02.019-.019c1.593-1.592 1.577-3.566 1.059-4.779-.338-.77-.896-1.336-1.58-1.744Zm-1.936-.72a10.736 10.736 0 0 0-2.165-.21h-.017c-2.151-.075-3.535.756-3.448 2.094v.016c.04 1.159 1.31 1.822 2.687 1.729h.007c.699-.038 1.281-.226 1.731-.595.726-.596 1.09-1.613 1.204-3.011l.001-.023Z"/>
    </defs>
</svg>